<?xml version="1.0" standalone="no"?>
<!DOCTYPE svg PUBLIC "-//W3C//DTD SVG 1.1//EN" "http://www.w3.org/Graphics/SVG/1.1/DTD/svg11.dtd" >
<svg xmlns="http://www.w3.org/2000/svg" xmlns:xlink="http://www.w3.org/1999/xlink" version="1.1">
<metadata>
Created by FontForge 20150318 at Tue May 26 15:35:14 2015
 By uniteet7
(c) 2000 Adobe Systems Incorporated. All Rights Reserved.
</metadata>
<defs>
<font id="TrajanProBold" horiz-adv-x="632" >
  <font-face 
    font-family="TrajanProBold"
    font-weight="700"
    font-stretch="normal"
    units-per-em="1000"
    panose-1="2 2 6 2 5 5 6 2 3 1"
    ascent="750"
    descent="-250"
    x-height="640"
    cap-height="753"
    bbox="-248.062 -284 1528 985"
    underline-thickness="50"
    underline-position="-50"
    unicode-range="U+0020-FB02"
  />
<missing-glyph horiz-adv-x="500" 
d="M0 0h500v700h-500v-700zM250 395l-170 255h340zM280 350l170 255v-510zM80 50l170 255l170 -255h-340zM50 605l170 -255l-170 -255v510z" />
    <glyph glyph-name=".notdef" horiz-adv-x="500" 
d="M0 0h500v700h-500v-700zM250 395l-170 255h340zM280 350l170 255v-510zM80 50l170 255l170 -255h-340zM50 605l170 -255l-170 -255v510z" />
    <glyph glyph-name=".null" horiz-adv-x="0" 
 />
    <glyph glyph-name="nonmarkingreturn" horiz-adv-x="300" 
 />
    <glyph glyph-name="space" unicode=" " horiz-adv-x="300" 
 />
    <glyph glyph-name="exclam" unicode="!" horiz-adv-x="320" 
d="M160 -17q26 0 41.5 17.5t15.5 42.5q0 24 -16 38.5t-40 14.5q-30 0 -43 -19.5t-13 -37.5q0 -19 13 -37.5t42 -18.5zM158 164q8 0 10.5 8t4.5 24q1 6 4 39t7.5 79.5t9.5 99t9.5 98t7.5 77t4 36.5q5 56 10.5 89t5.5 40q0 13 -9 13q-16 0 -38 -10q-20 -8 -46.5 -24.5
t-43.5 -38.5q-5 -8 -5 -16q0 -5 3 -11t5 -15q3 -14 6.5 -41.5t6.5 -56.5t5.5 -52.5t2.5 -29.5q0 -4 2 -22t4.5 -44.5t5.5 -57.5t5.5 -59.5t4.5 -52.5l3 -36q2 -17 4.5 -26.5t10.5 -9.5z" />
    <glyph glyph-name="quotedbl" unicode="&#x22;" horiz-adv-x="360" 
d="M109 755q-23 0 -37 -2t-14 -13q0 -6 4 -18.5t10 -35t12 -56t11 -80.5q6 -50 14 -50t14 50q4 47 10.5 80.5t12.5 56t10 35t4 18.5q0 11 -14 13t-37 2zM251 755q-23 0 -37 -2t-14 -13q0 -6 4 -18.5t10 -35t12 -56t11 -80.5q6 -50 14 -50t14 50q4 47 10.5 80.5t12.5 56
t10 35t4 18.5q0 11 -14 13t-37 2z" />
    <glyph glyph-name="numbersign" unicode="#" horiz-adv-x="600" 
d="M571 460v82h-107l31 212h-60l-31 -212h-151l33 212h-61l-32 -212h-134v-82h123l-23 -150h-130v-81h119l-35 -229h60l34 229h152l-31 -229h59l33 229h123v81h-112l22 150h118zM393 460l-21 -150h-153l24 150h150z" />
    <glyph glyph-name="dollar" unicode="$" horiz-adv-x="600" 
d="M303 0q30 0 67.5 10.5t70.5 34.5t55.5 63.5t22.5 97.5q0 41 -12 74.5t-33.5 62t-52.5 53.5t-68 50l31 271q12 0 33 -8t35 -22q20 -20 24.5 -38.5t5.5 -38.5q0 -11 2.5 -15t7.5 -4q8 0 11 14q1 7 3.5 22t4 32t3 32.5t1.5 23.5q0 12 -3 16.5t-14 8.5q-14 5 -44.5 12
t-65.5 7l12 91q1 7 -8 5l-30 -7q-3 -1 -6.5 -2.5t-4.5 -6.5l-10 -80q-34 0 -71.5 -11t-68.5 -33t-51.5 -56t-20.5 -80q0 -36 10 -65.5t30 -57.5t51 -56t72 -59l-32 -295q-22 0 -49.5 11t-48.5 34q-18 20 -24.5 45.5t-4.5 45.5q1 16 -0.5 21.5t-6.5 5.5q-9 0 -15 -24
q-2 -10 -8.5 -44t-6.5 -77q0 -20 6.5 -27t27.5 -16q14 -6 32.5 -10t36.5 -6.5t33.5 -3.5t23.5 -1l-10 -85q-1 -11 7 -10l31 6q9 2 10 8zM309 475q-35 28 -62 58.5t-27 71.5q0 35 13 57t31 34t38 16.5t34 4.5zM337 311q38 -26 63 -58.5t25 -78.5q0 -27 -8.5 -50t-24 -39.5
t-36.5 -27t-46 -11.5z" />
    <glyph glyph-name="percent" unicode="%" horiz-adv-x="868" 
d="M645 0q50 0 85 17t57.5 44.5t33 61.5t10.5 68q0 30 -10 61t-32 56.5t-55.5 42t-81.5 16.5q-50 0 -85 -17t-57 -44t-32 -61.5t-10 -68.5q0 -29 10 -60.5t31 -57t54.5 -42t81.5 -16.5zM649 34q-22 0 -39.5 14t-30 36.5t-19 50.5t-6.5 55q0 29 5.5 55t17 45.5t29 31
t41.5 11.5q22 0 40.5 -14t31 -36.5t19.5 -50t7 -55.5q0 -63 -25 -103t-71 -40zM310 -4q6 1 10 12l287 732q5 11 8 18t3 11t-10 4q-11 0 -48 -3.5t-90 -8t-116.5 -8t-127.5 -3.5q-50 0 -85.5 -17t-58.5 -44.5t-34 -62t-11 -68.5q0 -29 10 -60.5t31 -57t54.5 -42t81.5 -16.5
q49 0 84 17t57.5 44.5t33 61.5t10.5 68q0 48 -19 85.5t-45 52.5v2q7 0 33.5 2t60.5 4.5t68.5 5t57.5 4.5q-3 -5 -20.5 -45.5t-44.5 -103t-60.5 -140t-68 -156.5t-67 -153t-57.5 -130q-4 -9 -2 -12t12 -1zM218 416q-22 0 -39.5 14t-30 36.5t-19 50.5t-6.5 55q0 29 5.5 55
t17 45.5t29 31t41.5 11.5q22 0 40.5 -14t31 -36.5t19.5 -50t7 -55.5q0 -63 -25 -103t-71 -40z" />
    <glyph glyph-name="ampersand" unicode="&#x26;" horiz-adv-x="830" 
d="M58 204q0 -33 13.5 -71.5t45.5 -71.5t85.5 -55.5t133.5 -22.5q51 0 90 10t67.5 24t48 30t31.5 27q32 -25 57 -40t50.5 -23.5t55.5 -11t73 -2.5h77q17 0 23.5 2t6.5 7q0 6 -3.5 7.5t-10.5 1.5q-8 0 -21 3t-28 7.5t-30.5 11t-27.5 13.5q-20 12 -54 34t-85 64q21 25 39 54.5
t31 60.5t20.5 62t7.5 60q0 9 -10 13.5t-24 6.5q-42 5 -72 6t-48 1q-6 0 -11 -2t-5 -8q0 -5 3.5 -6.5t8.5 -1.5q11 0 25 -3t24 -12q11 -10 15 -22.5t4 -23.5q0 -23 -4.5 -46t-12 -43.5t-16 -37.5t-15.5 -27q-5 4 -17.5 15.5t-29 26.5t-36 33t-37 35t-33 32t-23.5 25
q-30 33 -59.5 65t-53.5 64.5t-38.5 65.5t-14.5 68q0 32 11 53.5t27 35t34.5 19.5t34.5 6q42 0 69 -13.5t42 -31.5q17 -20 23 -42t6 -42q0 -11 1 -15t6 -4t7.5 3t4.5 14q1 6 3 22t3.5 35.5l3 39t1.5 31.5q0 9 -2 15t-15 11q-20 8 -52 14.5t-69 6.5q-65 0 -111.5 -17.5
t-75.5 -44.5t-42.5 -59.5t-13.5 -62.5q1 -34 10 -67t41 -75q-23 -11 -51 -33t-53 -52.5t-42 -69t-17 -82.5zM370 46q-39 0 -74 14.5t-61 41t-41.5 64.5t-15.5 85q0 60 21.5 96.5t47.5 55.5q6 -9 20 -26t30 -35.5t31.5 -36t25.5 -27.5q10 -11 31 -32t47 -46t53 -50t49 -44
q-8 -8 -23.5 -18t-37.5 -19.5t-48 -16t-55 -6.5z" />
    <glyph glyph-name="quotesingle" unicode="'" horiz-adv-x="218" 
d="M109 755q-23 0 -37 -2t-14 -13q0 -6 4 -18.5t10 -35t12 -56t11 -80.5q6 -50 14 -50t14 50q4 47 10.5 80.5t12.5 56t10 35t4 18.5q0 11 -14 13t-37 2z" />
    <glyph glyph-name="parenleft" unicode="(" horiz-adv-x="360" 
d="M154 321q0 70 15.5 135t37.5 118.5t46 93t41 59.5q6 6 6 11q0 8 -7 8q-4 0 -12 -6q-16 -10 -38.5 -31t-47.5 -51t-49.5 -68t-44 -82.5t-32 -95t-12.5 -104.5q0 -81 24 -150t59 -123t74 -92.5t68 -59.5q7 -5 10 -5q8 0 8 7q0 5 -3 8.5t-5 6.5q-30 38 -55 81.5t-43.5 95
t-29 112t-10.5 132.5z" />
    <glyph glyph-name="parenright" unicode=")" horiz-adv-x="360" 
d="M206 303q0 -71 -15.5 -135.5t-37.5 -118t-46 -93t-41 -59.5q-6 -6 -6 -11q0 -8 7 -8q4 0 12 6q15 10 38 31t48 51t49.5 68t44 82.5t32 95t12.5 104.5q0 81 -24 150t-59 123t-74 92.5t-68 59.5q-7 5 -10 5q-8 0 -8 -7q0 -5 3 -8.5t5 -6.5q30 -38 55 -81.5t43.5 -95
t29 -112t10.5 -132.5z" />
    <glyph glyph-name="asterisk" unicode="*" horiz-adv-x="380" 
d="M185 634q2 0 2.5 -2t1.5 -4q2 -9 6.5 -23.5t10 -29.5t10.5 -29t8 -21q9 -14 16 -14q4 0 13.5 6t20 14.5t18.5 17t8 14.5q0 5 -4 6.5t-10 3.5q-5 1 -16.5 9t-25 18.5t-25.5 21t-17 18.5q-3 5 -1 7q4 2 5 2q11 -1 30 -1.5t37 -1t32 0t16 0.5q10 1 10 8q0 8 -2.5 21t-6 25.5
t-8 21.5t-7.5 9q-7 0 -14 -10q-3 -3 -11.5 -10.5t-21 -16.5t-27.5 -18t-31 -14q-4 -1 -5 0q-2 4 0 6q5 15 10.5 33t10.5 36t8.5 34t3.5 25q0 11 -10 11q-6 0 -18.5 -2.5t-25 -6.5t-21.5 -9t-9 -10t2 -8t4 -8q1 -3 5.5 -13.5t9.5 -24.5t9.5 -29t5.5 -27q0 -5 -1 -7
q-4 -2 -7 1q-4 4 -18 15.5t-31 23t-34.5 20.5t-28.5 9q-8 0 -10.5 -2.5t-2.5 -10.5t1 -20t2.5 -23.5t3.5 -19.5t5 -8q5 0 8.5 0.5t8.5 1.5q4 0 15.5 0.5t24.5 0.5q14 0 28 -0.5t22 -1.5q4 0 4 -3t-3 -6q-5 -3 -18.5 -13.5t-29 -23.5t-28.5 -25t-17 -18q-10 -11 -10 -17
q0 -3 6 -7.5t15.5 -8.5t21.5 -7t24 -3t12 8q0 6 1.5 12t3.5 11q1 6 5.5 18.5t9.5 26t9.5 24.5t6.5 14q1 3 4 3z" />
    <glyph glyph-name="plus" unicode="+" horiz-adv-x="549" 
d="M509 223v61h-203v204h-64v-204h-202v-61h202v-204h64v204h203z" />
    <glyph glyph-name="comma" unicode="," horiz-adv-x="250" 
d="M64 71q0 -5 6.5 -11.5t14.5 -16t14.5 -24t6.5 -35.5q0 -17 -6.5 -38.5t-22.5 -48.5q-2 -4 -5 -8.5t-3 -8.5t3 -7t5 -3q5 0 8.5 3.5l8.5 8.5q13 15 25 33t22.5 36.5t18.5 35.5t13 28q5 12 9 26t4 22t-4.5 20.5t-17.5 31.5q-10 15 -14 20t-11 5q-11 0 -24.5 -6t-24.5 -15.5
t-18.5 -22t-7.5 -25.5z" />
    <glyph glyph-name="hyphen" unicode="-" horiz-adv-x="425" 
d="M75 315q-13 0 -17.5 -2t-6.5 -11l-15 -69q-2 -8 0 -13t8 -5t17.5 6t26.5 10q9 2 28.5 6.5t45 9t53.5 10t54 10t46.5 7.5t30.5 5q21 4 33 7.5t12 14.5q0 9 -9 11.5t-23 2.5h-284z" />
    <glyph glyph-name="period" unicode="." horiz-adv-x="250" 
d="M124 0q29 0 45.5 19t16.5 45t-17.5 42t-43.5 16q-16 0 -27.5 -6t-19 -15t-11 -20t-3.5 -20q0 -21 14 -41t46 -20z" />
    <glyph glyph-name="slash" unicode="/" horiz-adv-x="542" 
d="M53 -19q7 -4 13 6l459 745q6 9 -1 12l-36 22q-8 5 -14 -5l-456 -740q-7 -13 0 -17z" />
    <glyph glyph-name="zero" unicode="0" horiz-adv-x="600" 
d="M559 398q0 40 -5 82.5t-16 83.5t-30 78t-47 64.5t-65.5 44t-87.5 16.5q-69 0 -119.5 -32t-83.5 -87.5t-48.5 -131.5t-15.5 -163q0 -36 5 -77t16.5 -82t30 -79t46.5 -67.5t66 -47t87 -17.5q64 0 114 30t84 84.5t51.5 131t17.5 169.5zM442 359q0 -73 -9 -133.5t-26 -104.5
t-41.5 -68.5t-54.5 -24.5q-41 0 -70 32.5t-47.5 84t-27 116.5t-8.5 130q0 171 36.5 251t92.5 80q41 0 70.5 -32.5t48 -84t27.5 -116.5t9 -130z" />
    <glyph glyph-name="one" unicode="1" horiz-adv-x="600" 
d="M258 301q1 -72 -0.5 -132t-4.5 -93q-2 -24 -9 -36t-31 -17q-7 -2 -18.5 -3t-24 -2t-23 -1.5t-14.5 -0.5q-8 0 -8 -10q0 -9 17 -9q24 0 50.5 0.5t50.5 1t42.5 1t27.5 0.5q20 0 65 -1.5t102 -1.5q16 0 16 9q0 5 -3 7.5t-6 2.5t-11.5 0.5t-19 1.5t-20 2t-15.5 2
q-24 5 -31 17.5t-9 36.5q-3 33 -3.5 93t-0.5 132v185q0 115 3 184.5t3 75.5q0 8 -2.5 14.5t-9.5 6.5q-6 0 -12.5 -4t-13.5 -9q-9 -7 -29 -20.5t-45.5 -30.5l-52.5 -35t-50 -33t-38 -25t-16 -10q-4 -2 -7 -5.5t-3 -8.5t3 -8t5 -3q4 0 14 4q8 3 24.5 11t34.5 16.5t34 14.5
t23 6q11 0 13 -9t2 -27v-131z" />
    <glyph glyph-name="two" unicode="2" horiz-adv-x="600" 
d="M445 0q47 0 64 5t23 25q4 13 9 34.5t9.5 43.5t7.5 40.5t3 24.5q0 8 -1.5 13.5t-6.5 5.5q-8 0 -12 -16q-9 -35 -35.5 -59t-78.5 -30q-14 -2 -40 -3t-53.5 -2t-50.5 -1h-28h-68q-4 0 -5 2t3 5q32 26 70 57t76.5 66.5t74 75.5t63 83t44 89.5t16.5 94.5q0 44 -14.5 82.5
t-45 67.5t-78 46t-113.5 17t-109 -11.5t-72 -26.5q-8 -5 -10 -9t-2 -11q0 -11 1 -30l2 -38t2 -34.5t1 -18.5q2 -19 9 -19q8 0 10.5 5.5t2.5 13.5q0 10 3 23t9 26.5t13.5 25.5t16.5 21q23 21 48.5 28.5t57.5 7.5q19 0 42.5 -7.5t44.5 -28.5t35.5 -58t14.5 -96
q0 -79 -33.5 -148t-83.5 -130t-110 -113.5t-112 -98.5q-8 -7 -14 -13.5t-6 -12.5t4.5 -10t9.5 -4h392z" />
    <glyph glyph-name="three" unicode="3" horiz-adv-x="600" 
d="M226 -17q73 0 131.5 20.5t99.5 55.5t63 81.5t22 99.5q0 45 -17.5 79t-44 58t-57.5 39t-59 21v2q15 5 39.5 20t48.5 38.5t41 54t17 67.5q0 18 -8.5 43t-33 48.5t-69 40t-116.5 16.5q-63 0 -107 -12.5t-70 -23.5q-10 -5 -12 -8.5t-2 -10.5q0 -17 2 -46.5t5 -53.5
q1 -14 8 -14q4 0 6.5 3t2.5 12q0 22 10.5 41.5t29.5 33.5t44 22.5t55 8.5q38 0 63.5 -13.5t41 -32.5t22 -40t6.5 -37q0 -44 -18 -75t-42.5 -51.5t-51 -31.5t-43.5 -14q-18 -3 -18 -14q0 -6 6 -9.5t26 -7.5q18 -3 47 -14.5t56 -33.5t46.5 -57t19.5 -85q0 -45 -14.5 -77
t-39 -53t-57.5 -31t-70 -10q-38 0 -66 12t-47 30.5t-28 42.5t-9 48q0 14 -9 14q-8 0 -11 -19q-2 -8 -3 -22t-2 -31t-1.5 -35.5t-0.5 -36.5q0 -9 3 -15.5t14 -12.5q17 -10 57 -17t94 -7z" />
    <glyph glyph-name="four" unicode="4" horiz-adv-x="600" 
d="M347 197v-56t-3 -65q-2 -23 -10 -38.5t-37 -18.5q-12 -2 -26 -2.5t-21 -0.5q-8 0 -8 -10q0 -9 16 -9q42 0 79 1.5t58 1.5q8 0 23 -0.5t34.5 -1t41 -1t42.5 -0.5q16 0 16 9q0 10 -9 10q-8 0 -21 1t-24 3q-25 5 -32.5 19t-9.5 37q-3 33 -3 65v56h88q13 0 18 3t9 10
q3 5 6 14t5.5 19t4 18.5t1.5 11.5q0 12 -9 12q-5 0 -15.5 -5t-30.5 -5h-77v325v48q0 25 0.5 45.5t0.5 35.5v21q0 17 -12 17q-8 0 -14 -5.5t-12 -12.5q-2 -2 -19 -24.5t-44 -58.5t-61.5 -81t-70 -92t-69.5 -92.5t-61.5 -81t-44.5 -58t-18 -23.5q-3 -4 -8 -10.5t-5 -15.5
q0 -8 8 -11.5t17 -3.5h307zM347 275h-226q8 11 26.5 36t41.5 56.5t48 66.5t46.5 65.5t38 53.5t22.5 31h3v-309z" />
    <glyph glyph-name="five" unicode="5" horiz-adv-x="600" 
d="M192 -17q87 0 149.5 25t102 65.5t58.5 90.5t19 100q0 65 -31 113.5t-79 82.5t-106.5 54.5t-114.5 29.5l14 122h182q30 0 47.5 -4.5t26.5 -12t11.5 -17.5t2.5 -20q0 -14 8 -14q5 0 7.5 3.5t3.5 8.5q8 48 10.5 80t2.5 48q0 11 -2 15t-8 4q-2 0 -7 -1t-13 -2q-8 -2 -21.5 -3
t-34.5 -1h-245q-18 0 -19 -13l-23 -264q-1 -17 18 -20q30 -4 73 -19t83 -43.5t68.5 -71.5t28.5 -103q0 -49 -14.5 -83.5t-38 -56.5t-53 -32.5t-59.5 -10.5q-26 0 -50.5 6t-43.5 21t-30.5 41t-11.5 66q0 17 -9 17q-5 0 -7 -5t-4 -13q-2 -12 -3 -29t-1 -34v-34v-29
q0 -16 3 -24t16 -15q19 -9 44.5 -13.5t49.5 -4.5z" />
    <glyph glyph-name="six" unicode="6" horiz-adv-x="600" 
d="M305 -17q55 0 102.5 18.5t82.5 52t55.5 81t20.5 105.5q0 33 -12 69t-37 66t-63.5 49t-91.5 19q-42 0 -74.5 -10t-55.5 -26q-11 -7 -11 -15q0 -10 8 -10q4 0 10 2l12 4q11 3 22 5t30 2q25 0 50 -11.5t45 -36t33 -62.5t13 -90q0 -44 -10 -75.5t-27 -52t-40 -30.5t-49 -10
q-38 0 -66.5 21.5t-47.5 56t-28.5 77.5t-9.5 87q0 90 23.5 164.5t60 133.5t82 101.5t89.5 67.5q8 5 16.5 10t8.5 12q0 5 -3.5 7t-8.5 2q-9 0 -22 -6q-81 -33 -149.5 -86t-117.5 -119t-76.5 -139.5t-27.5 -146.5q0 -68 19.5 -121.5t54.5 -90t83.5 -56t106.5 -19.5z" />
    <glyph glyph-name="seven" unicode="7" horiz-adv-x="600" 
d="M230 750q-40 0 -65 1.5t-40 3.5t-21.5 3.5t-8.5 1.5q-10 0 -10 -14q0 -4 -2.5 -25t-5 -47l-5 -52t-2.5 -40q0 -15 8 -15t10 13q2 12 10.5 31.5t22.5 28.5q18 12 45.5 15t48.5 3h259q-35 -58 -68 -119.5t-63.5 -123t-57 -119.5t-47.5 -107.5t-36 -89t-22 -63.5
q-4 -12 -5.5 -22.5t-1.5 -18.5q0 -12 14 -12q17 0 38.5 6.5t41 16.5t33 20t13.5 18q0 10 -1 17t1 20q4 32 18.5 84t35.5 113.5t47.5 128t53.5 127t52.5 111t46.5 79.5q2 3 4.5 8t2.5 10q0 4 -5 6t-19 2h-320z" />
    <glyph glyph-name="eight" unicode="8" horiz-adv-x="600" 
d="M293 -17q63 0 112.5 18t83 48.5t51.5 71t18 84.5q0 46 -18.5 81.5t-46 62.5t-59 46.5t-58.5 33.5q21 8 46.5 23t48 38t37.5 54t15 70q0 36 -15 64.5t-42 48t-64.5 30t-83.5 10.5q-64 0 -109 -17.5t-73.5 -44t-41.5 -58.5t-13 -61q0 -32 11 -58.5t30.5 -49t46 -41
t57.5 -34.5q-36 -15 -69.5 -36t-59 -49t-40.5 -62.5t-15 -76.5q0 -46 18.5 -82.5t51.5 -61.5t79 -38.5t102 -13.5zM155 185q0 38 11 69t28 55t38 41t41 29q33 -20 64 -39t54 -42.5t37 -52t14 -65.5q0 -35 -11 -62.5t-30 -47.5t-45 -30.5t-55 -10.5q-30 0 -57 12t-46.5 33
t-31 49.5t-11.5 61.5zM417 605q0 -38 -11 -65t-27 -45t-32.5 -28t-27.5 -15q-69 38 -101.5 72.5t-32.5 81.5q0 21 7 42t21.5 38t37.5 27.5t56 10.5q45 0 77.5 -31t32.5 -88z" />
    <glyph glyph-name="nine" unicode="9" horiz-adv-x="600" 
d="M298 767q-58 0 -105 -17.5t-80.5 -48.5t-52 -73.5t-18.5 -93.5q0 -32 11.5 -66t36.5 -62t63.5 -46.5t92.5 -18.5q38 0 74 11.5t58 34.5q5 5 5 11q0 9 -8 9q-3 0 -7.5 -3t-12.5 -8q-10 -5 -26 -8.5t-42 -3.5q-13 0 -35.5 8t-44 29t-37.5 58t-16 94q0 32 8.5 59t24.5 47
t38 31.5t49 11.5q29 0 56.5 -15t48.5 -46t34 -79.5t13 -114.5q0 -89 -26 -163.5t-65 -133t-84.5 -100.5t-84.5 -66q-4 -3 -8 -7.5t-4 -9.5q0 -4 3 -7t6 -3q11 0 18 4q31 14 70.5 38.5t80.5 58.5t80 77t70 95t49.5 113.5t18.5 131.5q0 57 -16.5 106.5t-48.5 86.5t-79 58
t-108 21z" />
    <glyph glyph-name="colon" unicode=":" horiz-adv-x="250" 
d="M124 30q29 0 45.5 19t16.5 45t-17.5 42t-43.5 16q-16 0 -27.5 -6t-19 -15t-11 -20t-3.5 -20q0 -21 14 -41t46 -20zM124 368q28 0 45 19t17 45q0 27 -17.5 42.5t-43.5 15.5q-16 0 -27.5 -6t-19 -15t-11 -19.5t-3.5 -20.5t3.5 -21t11 -20t18.5 -14.5t27 -5.5z" />
    <glyph glyph-name="semicolon" unicode=";" horiz-adv-x="250" 
d="M64 81q0 -5 6.5 -11.5t14.5 -16t14.5 -24t6.5 -35.5q0 -17 -6.5 -38.5t-22.5 -48.5q-2 -4 -5 -8.5t-3 -8.5t3 -7t5 -3q5 0 8.5 3.5l8.5 8.5q13 15 25 33t22.5 36.5t18.5 35.5t13 28q5 12 9 26t4 22t-4.5 20.5t-17.5 31.5q-10 15 -14 20t-11 5q-11 0 -24.5 -6t-24.5 -15.5
t-18.5 -22t-7.5 -25.5zM124 368q28 0 45 18.5t17 45.5t-17.5 42.5t-43.5 15.5q-16 0 -27.5 -6t-19 -15t-11 -20t-3.5 -21q0 -20 14 -40t46 -20z" />
    <glyph glyph-name="less" unicode="&#x3c;" horiz-adv-x="549" 
d="M509 19v67l-393 168l393 168v67l-469 -200v-70z" />
    <glyph glyph-name="equal" unicode="=" horiz-adv-x="549" 
d="M509 317v61h-469v-61h469zM509 128v61h-469v-61h469z" />
    <glyph glyph-name="greater" unicode="&#x3e;" horiz-adv-x="549" 
d="M509 219v70l-469 200v-67l393 -168l-393 -168v-67z" />
    <glyph glyph-name="question" unicode="?" horiz-adv-x="532" 
d="M250 767q-66 0 -110 -13t-67 -27q-8 -5 -9.5 -8t-1.5 -8v-33t0.5 -35t1.5 -30.5t2 -18.5q2 -6 3.5 -9.5t6.5 -3.5t6.5 6t2.5 14q2 18 10 39.5t25 43.5q12 15 36 27t59 12q34 0 57 -11.5t36.5 -29.5t19.5 -40t6 -44q0 -25 -4.5 -47.5t-14.5 -46.5t-27 -51t-42 -61
q-14 -20 -31.5 -39t-34.5 -41q-11 -15 -15.5 -27.5t-4.5 -23.5q0 -14 9 -27.5t36 -35.5q17 -14 31 -22.5t20 -8.5q5 0 7 3t2 5q0 6 -8 18q-8 11 -12 25t-4 26q0 28 51 88q29 34 59.5 65t55 64t40 71t15.5 85q0 23 -10 49t-34 48.5t-65 37.5t-103 15zM232 -17q26 0 41.5 17.5
t15.5 42.5q0 24 -16 38.5t-40 14.5q-30 0 -43 -19.5t-13 -37.5q0 -19 13 -37.5t42 -18.5z" />
    <glyph glyph-name="at" unicode="@" horiz-adv-x="902" 
d="M705 161q63 44 99 108.5t36 141.5q0 63 -20 115.5t-60 90.5t-101 59t-143 21q-83 0 -163.5 -37t-144 -100t-103 -146t-39.5 -175q0 -85 26.5 -147t72 -102.5t105.5 -60.5t127 -20q50 0 95.5 9.5t83.5 25.5t67.5 35t49.5 39q21 21 17 30q-3 7 -12 5t-20 -11
q-25 -20 -50 -36.5t-55 -28.5t-67.5 -18.5t-86.5 -6.5q-62 0 -113.5 20t-88.5 58t-58 92.5t-21 124.5q0 89 27 165t76 132t117 88t151 32q69 0 121.5 -20t87.5 -55t52.5 -82t17.5 -101q0 -59 -15.5 -102t-38.5 -71t-48.5 -41.5t-44.5 -13.5q-25 0 -39.5 19.5t-14.5 71.5
q0 28 4 63t10.5 70t15.5 68t20 57q2 5 -0.5 11t-10.5 4q-14 -5 -27.5 -15t-21.5 -18q-10 3 -24.5 5.5t-29.5 2.5q-18 0 -39.5 -7t-43.5 -18t-41.5 -23.5t-32.5 -23.5q-60 -50 -88.5 -111.5t-28.5 -131.5q0 -14 3 -28.5t10.5 -27t20 -20.5t30.5 -8q24 0 48.5 13.5t47.5 35.5
t44.5 48.5t40.5 52.5q-3 -17 -3.5 -33.5t0.5 -27.5q4 -48 24.5 -70.5t52.5 -22.5q31 0 67 12t70 35zM498 476q14 0 26.5 -4.5t19.5 -9.5q-14 -38 -24.5 -76.5t-17.5 -66.5q-15 -20 -33 -43t-36.5 -42.5t-35.5 -32t-29 -12.5q-10 0 -14.5 16t-4.5 37q0 30 5.5 66.5t21.5 73.5
q21 50 52.5 72t69.5 22z" />
    <glyph glyph-name="A" unicode="A" horiz-adv-x="700" 
d="M427 258q7 0 10 -7l80 -212q4 -9 0 -15t-9 -8q-14 -1 -14 -9q0 -5 8 -6t22 -2q60 -2 111 -2h78q28 0 37 2t9 8q0 8 -13 8q-9 0 -20 1t-22 3q-8 2 -17.5 6.5t-20.5 16t-23.5 32t-26.5 54.5q-16 38 -39 94.5t-48.5 120.5t-51.5 129t-48 121t-38.5 96t-22.5 54
q-14 32 -25 32q-8 0 -13.5 -9t-14.5 -31l-251 -628q-15 -38 -32.5 -61.5t-52.5 -28.5q-6 -1 -15 -1.5t-16 -0.5q-12 0 -12 -8q0 -10 19 -10t38.5 0.5t36 1t28 1t15.5 0.5q23 0 52.5 -1.5t53.5 -1.5q17 0 17 10q0 5 -3 6.5t-12 1.5h-15q-23 0 -31.5 8.5t-8.5 22.5
q0 9 3.5 25.5t11.5 35.5l54 143q3 8 9 8h223zM224 308q-6 0 -4 7l92 246q1 3 2.5 6t3.5 3t3 -3l2 -6l90 -247q2 -6 -5 -6h-184z" />
    <glyph glyph-name="B" unicode="B" horiz-adv-x="707" 
d="M164 287q0 -69 -0.5 -125t-4.5 -88q-3 -22 -8.5 -37t-20.5 -18q-7 -2 -16 -3t-20 -1q-16 0 -16 -8q0 -10 20 -10q15 0 33.5 1t35.5 1q18 1 33 1h24q11 0 31.5 -0.5t43.5 -2.5q22 -1 41.5 -2t28.5 -1q69 0 119.5 19t83 50t48.5 70t16 79q0 44 -17 79t-43.5 62t-58.5 45.5
t-63 29.5q21 16 39.5 34t32.5 39t22 46t8 56q0 20 -8 46t-31 49t-64.5 39t-109.5 16q-26 0 -55.5 -1.5t-66.5 -1.5q-8 0 -22.5 0.5t-33 1t-39.5 1t-41 0.5q-22 0 -22 -9t17 -9q11 0 22 -0.5t17 -2.5q25 -5 33 -18t10 -39q1 -12 1.5 -25.5t0.5 -36.5v-58v-92v-176zM284 693
q0 14 9 17q8 2 15 2h18q32 0 55.5 -15t39 -37.5t23 -50t7.5 -52.5q0 -73 -41 -106q-13 -11 -30 -15t-42 -4q-34 0 -47 3q-3 1 -5 3t-2 8v247zM513 167q0 -39 -12.5 -64t-31 -39t-39.5 -19.5t-38 -5.5t-35 2t-38 10q-12 5 -19 11.5t-10.5 17t-4.5 26.5t-1 41v237q0 7 6 7h20
t23 -1q29 -2 48 -7.5t35 -16.5q28 -20 47 -45t30 -51.5t15.5 -53t4.5 -49.5z" />
    <glyph glyph-name="C" unicode="C" horiz-adv-x="800" 
d="M522 -17q24 0 49.5 1.5t49.5 4t45 7t36 10.5q13 5 17.5 10.5t8.5 18.5t8 33.5t7 41t5 37t2 21.5q0 6 -2 10.5t-7 4.5q-6 0 -8.5 -4t-4.5 -16q-3 -14 -12 -33t-22 -33q-30 -35 -73 -45.5t-110 -10.5q-50 0 -105.5 22t-102 66.5t-77 111.5t-30.5 156q0 73 18.5 140.5
t73.5 118.5q33 30 77.5 46t110.5 16q69 0 123.5 -18t79.5 -44q19 -20 28.5 -44.5t10.5 -47.5q0 -22 10 -22q7 0 9 6t3 17q1 7 1 20q0 14 0.5 29t0.5 31t1 28q2 26 3.5 37.5t1.5 17.5q0 11 -15 12q-23 2 -47 7.5t-53 9.5q-35 5 -66.5 7.5t-78.5 2.5q-112 0 -187 -28t-129 -78
q-36 -33 -59 -70.5t-35.5 -74t-17.5 -70.5t-5 -59q0 -36 5.5 -74.5t19.5 -77t38 -75t61 -68.5q69 -60 154.5 -84.5t188.5 -24.5z" />
    <glyph glyph-name="D" unicode="D" horiz-adv-x="936" 
d="M164 287q0 -69 -0.5 -125t-4.5 -88q-3 -22 -8.5 -37t-20.5 -18q-7 -2 -16 -3t-20 -1q-16 0 -16 -8q0 -10 20 -10q15 0 33.5 1t35.5 1q18 1 33 1h24q19 0 44 -2t54 -4t58.5 -4t56.5 -2q69 0 123.5 12t96 29.5t70 38t45.5 38.5q21 21 40.5 49.5t35 64t24.5 77t9 88.5
q0 45 -8 83t-21.5 69.5t-31 56.5t-36.5 45q-41 43 -91 66t-103.5 33.5t-106.5 12.5t-100 2q-45 0 -88 -1.5t-66 -1.5q-11 0 -27 0.5t-35.5 1t-40.5 1t-41 0.5q-22 0 -22 -9t17 -9q11 0 22 -0.5t17 -2.5q25 -5 33 -18t10 -39q1 -12 1.5 -25.5t0.5 -36.5v-58v-92v-176z
M289 479v60v57t0.5 48.5t0.5 34.5q0 15 12 20q3 1 10.5 2.5t17.5 2.5t19.5 1.5t17.5 0.5q29 0 64 -3.5t72.5 -14t75 -30t72.5 -52.5q16 -15 33 -38.5t31 -54.5t23 -70t9 -87q0 -78 -18 -142.5t-66 -106.5q-45 -39 -99 -55.5t-131 -16.5q-60 0 -90.5 13t-40.5 27q-3 4 -5 13
t-3 20t-2 22.5t-1 20.5q-1 14 -1.5 68t-0.5 134v126z" />
    <glyph glyph-name="E" unicode="E" 
d="M164 287q0 -69 -0.5 -125t-4.5 -88q-3 -22 -8.5 -37t-20.5 -18q-7 -2 -16 -3t-20 -1q-16 0 -16 -8q0 -10 20 -10q15 0 33.5 1t35.5 1q18 1 33 1h24q23 0 47.5 -0.5t56.5 -2.5q32 -1 74 -2t99 -1q14 0 23.5 0.5t15.5 3t9 7.5t6 15q2 7 4 22.5t4 32t3.5 32t1.5 24.5
q0 8 -1 13t-7 5q-8 0 -11 -15q-5 -31 -15 -48t-30 -26t-47 -10.5t-47 -1.5q-38 0 -61.5 3.5t-36 12.5t-17 25.5t-5.5 42.5v31v44v45v35v79q0 10 6 10h29q21 0 43.5 -0.5t42.5 -1t27 -1.5q28 -3 40 -13.5t16 -25.5q2 -10 2.5 -19t1.5 -17q0 -9 9 -9q7 0 8 6.5t1 12.5
q0 3 0.5 11t1 18t1.5 20t1 18q3 38 5.5 53t2.5 20q0 8 -7 8q-5 0 -16 -13q-7 -8 -18.5 -10.5t-29.5 -4.5q-9 -1 -32 -1.5t-49 -0.5h-48h-31q-7 0 -7 11v253q0 10 7 10t28 -0.5t44 -1t43.5 -1t26.5 -1.5q37 -5 49.5 -14t17.5 -22q4 -9 5 -20t1 -16q0 -14 9 -14q5 0 7 3.5
t3 7.5t1.5 13.5t1.5 20t1.5 19.5t0.5 13q2 35 5 47.5t3 17.5q0 9 -6 9q-4 0 -8 -1.5t-8 -2.5q-6 -2 -17.5 -3t-25.5 -3q-5 0 -23 -0.5t-43 -0.5h-54h-55h-47h-28q-11 0 -27 0.5t-36 1.5q-19 0 -40 0.5t-41 0.5q-22 0 -22 -9t17 -9q11 0 22 -0.5t17 -2.5q25 -5 33 -18t10 -39
q1 -12 1.5 -25.5t0.5 -36.5v-58v-92v-176z" />
    <glyph glyph-name="F" unicode="F" horiz-adv-x="622" 
d="M290 368q0 9 7 9h26q21 0 45 -0.5t46 -1t31 -1.5q23 -3 35 -14t16 -22q6 -18 6 -31q0 -5 1.5 -9.5t6.5 -4.5q8 0 9 6t1 13q0 3 0.5 11.5t1 20t1 22.5t1.5 19q2 23 5 40t3 22q0 9 -6 9q-5 0 -7 -2.5l-6 -7.5q-8 -10 -18.5 -13.5t-24.5 -4.5q-11 -1 -22 -1h-23l-128 -1
q-7 0 -7 9v250q0 14 9 14l154 -3q29 -1 45 -10t21 -20t5.5 -21.5t0.5 -16.5q1 -16 10 -16q8 0 10 14q1 4 1.5 16t1.5 25t1.5 24.5t0.5 15.5q2 20 5 30t3 15q0 9 -7 9q-4 0 -7.5 -2t-8.5 -4q-8 -2 -17.5 -2.5t-23.5 -1.5q-6 0 -25 -0.5t-45 -0.5h-56h-58h-49h-31
q-11 0 -27 0.5t-36 1.5q-20 0 -40.5 0.5t-40.5 0.5q-23 0 -23 -10q0 -8 17 -8q11 0 22 -0.5t17 -2.5q25 -5 33 -18t10 -39q1 -12 1.5 -25.5t0.5 -36.5v-58v-92v-176q0 -72 -0.5 -126.5t-4.5 -86.5q-3 -22 -8.5 -37t-20.5 -18q-7 -2 -16 -3t-20 -1q-15 0 -15 -8q0 -10 21 -10
q14 0 32 0.5l36 1t33.5 1t25.5 0.5q20 0 62 -1.5t90 -1.5q22 0 22 10q0 8 -17 8q-11 0 -25 1t-25 3q-23 3 -30 18t-9 37q-4 32 -4.5 86.5t-0.5 126.5v81z" />
    <glyph glyph-name="G" unicode="G" horiz-adv-x="886" 
d="M771 174v67q0 30 1 53q1 26 9.5 39.5t28.5 17.5q9 2 15 2.5t12 0.5q13 0 13 8q0 10 -20 10q-12 0 -27.5 -0.5t-31.5 -1t-31 -1t-27 -0.5q-11 0 -28 0.5t-36.5 1t-40.5 1t-40 0.5q-21 0 -21 -10q0 -8 15 -8q11 0 22 -0.5t17 -2.5q25 -5 33.5 -18t9.5 -39q1 -23 1 -52v-66
v-94q0 -13 -4 -22.5t-15 -14.5q-18 -8 -41.5 -9.5t-43.5 -1.5q-79 0 -143.5 28.5t-110 79t-70 119t-24.5 149.5q0 93 25 151.5t67 93.5q26 22 52.5 34.5t52 18.5t49 7.5t44.5 1.5q42 0 78 -7.5t64.5 -19.5t49 -25.5t31.5 -25.5q20 -21 26 -43.5t8 -39.5q2 -13 10 -13
q6 0 8.5 4.5t2.5 16.5q0 47 1 77t2.5 48t2.5 26.5t1 12.5q0 5 -2.5 8t-11.5 4q-17 1 -40 4.5t-39 6.5q-8 1 -26.5 4t-43.5 5.5t-53 4.5t-54 2q-32 0 -64 -2t-66 -9t-68.5 -19.5t-70.5 -34.5q-34 -21 -65.5 -52t-55.5 -72t-38.5 -92t-14.5 -111q0 -104 37.5 -178
t101.5 -121.5t147.5 -70t175.5 -22.5q29 0 61.5 2t64 7.5t61.5 14t54 21.5q9 5 11 10.5t2 25.5v110z" />
    <glyph glyph-name="H" unicode="H" horiz-adv-x="972" 
d="M295 435q-6 0 -6 7v21v92v58q0 23 0.5 36.5t1.5 25.5q2 26 9.5 39.5t27.5 17.5q18 3 29 3q18 0 18 9t-21 9q-15 0 -33 -0.5t-35.5 -1t-33 -1t-24.5 -0.5q-10 0 -26 0.5t-35.5 1t-41 1t-41.5 0.5q-21 0 -21 -9t17 -9q11 0 22 -0.5t17 -2.5q25 -5 33 -18t10 -39
q1 -12 1.5 -25.5t0.5 -36.5v-58v-92v-176q0 -69 -0.5 -125t-4.5 -88q-3 -22 -8.5 -37t-20.5 -18q-7 -2 -16 -3t-20 -1q-16 0 -16 -8q0 -10 20 -10q15 0 33.5 0.5t36 1t32.5 1t24 0.5q21 0 64 -1.5t92 -1.5q20 0 20 10q0 8 -16 8q-11 0 -25.5 1t-25.5 3q-23 3 -30 18t-9 36
q-4 32 -4.5 88.5t-0.5 125.5v88q0 6 6 6h382q6 0 6 -6v-88q0 -69 -0.5 -125t-4.5 -88q-3 -22 -8.5 -37t-20.5 -18q-7 -2 -16 -3t-20 -1q-16 0 -16 -8q0 -10 21 -10q15 0 33 0.5t35.5 1t32.5 1t24 0.5q21 0 64 -1.5t92 -1.5q20 0 20 10q0 8 -16 8q-11 0 -25.5 1t-25.5 3
q-23 3 -30 18t-9 36q-4 32 -4.5 88.5t-0.5 125.5v176v92v58q0 23 0.5 36.5t1.5 25.5q2 26 9.5 39.5t27.5 17.5q18 3 29 3q18 0 18 9t-21 9q-15 0 -33 -0.5t-35.5 -1t-33 -1t-24.5 -0.5q-10 0 -26 0.5t-35.5 1t-41 1t-41.5 0.5q-21 0 -21 -9t17 -9q11 0 22 -0.5t17 -2.5
q25 -5 33 -18t10 -39q1 -12 1.5 -25.5t0.5 -36.5v-58v-92v-21q0 -7 -6 -7h-382z" />
    <glyph glyph-name="I" unicode="I" horiz-adv-x="452" 
d="M164 287q0 -73 -0.5 -129.5t-4.5 -88.5q-2 -22 -8 -34.5t-21 -15.5q-7 -2 -16 -3t-20 -1q-16 0 -16 -8q0 -10 20 -10q15 0 33.5 0.5t36 1t32.5 1t24 0.5q20 0 63 -1.5t93 -1.5q19 0 19 10q0 8 -16 8q-11 0 -25.5 1t-25.5 3q-23 3 -30.5 16t-9.5 33q-3 32 -3.5 89
t-0.5 130v176v92v58q0 23 0.5 36.5t1.5 25.5q2 26 9.5 39.5t27.5 17.5q9 2 15.5 2.5t14.5 0.5q16 0 16 10q0 8 -21 8q-14 0 -31.5 -0.5t-34.5 -1t-32 -1t-24 -0.5q-11 0 -27.5 0.5t-34.5 1l-36 1t-32 0.5q-24 0 -24 -8q0 -10 16 -10q9 0 18.5 -1t17.5 -3q31 -7 34 -56
q1 -12 1.5 -25.5t0.5 -36.5v-58v-92v-176z" />
    <glyph glyph-name="J" unicode="J" horiz-adv-x="416" 
d="M164 176q0 -74 -1 -130.5t-8 -100.5t-22.5 -78.5t-43.5 -63.5q-15 -15 -26.5 -24t-21.5 -14q-13 -7 -17.5 -10.5t-4.5 -7.5q0 -8 8 -8q9 0 20 6l28 14t22 12q72 45 113 94t57 95q15 42 19.5 88t4.5 89q0 38 -1.5 73.5t-1.5 67.5v185v92v58q0 23 0.5 36.5t1.5 25.5
q2 26 9.5 39.5t27.5 17.5q9 2 15 2.5t14 0.5q18 0 18 9t-21 9q-15 0 -33 -0.5t-35.5 -1t-33 -1t-24.5 -0.5q-10 0 -26 0.5t-35 1t-40 1t-41 0.5q-22 0 -22 -9t17 -9q11 0 22 -0.5t17 -2.5q25 -5 33 -18t10 -39q1 -12 1.5 -25.5t0.5 -36.5v-58v-92v-287z" />
    <glyph glyph-name="K" unicode="K" horiz-adv-x="768" 
d="M286 463v92v58q0 23 0.5 36.5t1.5 25.5q2 26 9.5 39.5t27.5 17.5q9 2 14.5 2.5t13.5 0.5q14 0 14 9t-21 9q-13 0 -30 -0.5t-34.5 -1t-32.5 -1t-24 -0.5t-24.5 0.5t-34.5 1t-40 1t-41 0.5q-22 0 -22 -9t17 -9q11 0 22 -0.5t17 -2.5q25 -5 33 -18t10 -39q1 -12 1.5 -25.5
t0.5 -36.5v-58v-92v-176q0 -69 -0.5 -125t-4.5 -88q-3 -22 -8.5 -37t-20.5 -18q-7 -2 -16 -3t-20 -1q-16 0 -16 -8q0 -10 20 -10q15 0 33.5 0.5t36 1t32.5 1t24 0.5t25 -0.5t35.5 -1t41 -1t42.5 -0.5q19 0 19 10q0 8 -13 8q-10 0 -24 1t-25 3q-19 3 -26.5 18t-9.5 36
q-2 32 -2.5 88.5t-0.5 125.5v91h5l11 -15q5 -7 23.5 -29.5t44 -52.5t55 -64t57 -64.5t49.5 -54.5t33 -34q16 -14 30 -25.5t28 -19.5t30 -13t36 -7q16 -2 31 -2h38h87q14 0 19 2.5t5 7.5q0 8 -13 8q-9 0 -24 3t-38 12q-41 16 -75.5 46t-67.5 62q-10 9 -31 31.5t-48.5 51
t-57.5 61t-56.5 62.5t-47.5 53.5t-30 35.5q8 9 25.5 26.5l39 39l45 45l44.5 44.5t37.5 37t24.5 24q32 32 58.5 49t49.5 26q14 5 30.5 8t27.5 3q15 0 15 9t-17 9q-12 0 -27 -0.5t-31.5 -1t-31.5 -1t-27 -0.5q-10 0 -24.5 0.5t-29.5 1t-28 1t-21 0.5q-16 0 -16 -9q0 -7 13 -10
q14 -3 14 -20q0 -13 -14.5 -31.5t-35.5 -43.5q-7 -9 -23 -26t-36.5 -38t-43 -44.5t-43.5 -45.5t-38 -39.5t-25 -26.5h-5v44z" />
    <glyph glyph-name="L" unicode="L" horiz-adv-x="605" 
d="M289 463v92v58q0 23 0.5 36.5t1.5 25.5q2 26 9.5 39.5t27.5 17.5q9 2 20 2.5t19 0.5q18 0 18 9t-21 9q-15 0 -34.5 -0.5l-39 -1t-36.5 -1t-26 -0.5q-10 0 -26 0.5t-35 1t-38.5 1t-37.5 0.5q-22 0 -22 -9t17 -9q21 0 33 -3q25 -5 33 -18t10 -39q1 -12 1.5 -25.5t0.5 -36.5
v-58v-92v-176q0 -69 -0.5 -125t-4.5 -88q-3 -22 -8.5 -37t-20.5 -18q-7 -2 -16 -3t-20 -1q-16 0 -16 -8q0 -10 20 -10q15 0 33.5 1t35.5 1q18 1 33 1h24q31 0 59.5 -0.5t62.5 -2.5q34 -1 74.5 -2t94.5 -1q19 0 30.5 1t18 4t9.5 8.5t5 13.5q3 11 5.5 28.5t5 35.5t3.5 32.5
t1 18.5q0 17 -8 17q-6 0 -8 -4t-3 -11q-2 -14 -9.5 -32t-16.5 -28q-19 -20 -48 -24t-69 -4q-29 0 -49.5 1.5t-34 4t-22.5 6.5t-15 10q-16 14 -18.5 66t-2.5 149v176z" />
    <glyph glyph-name="M" unicode="M" horiz-adv-x="1043" 
d="M102 97q-4 -26 -12 -50t-29 -29q-11 -2 -17.5 -2.5t-12.5 -0.5q-16 0 -16 -7t5 -9t13 -2q12 0 26.5 0.5t28 1t25.5 1t19 0.5q14 0 43.5 -1.5t61.5 -1.5q24 0 24 11q0 4 -4.5 5.5t-10.5 1.5q-8 0 -18 1t-24 4q-13 3 -21.5 10.5t-8.5 21.5q0 12 0.5 22.5t2.5 24.5l52 398h4
q13 -28 29.5 -63.5t32 -68t27.5 -57.5t15 -33q4 -11 19.5 -41t33.5 -65.5t35.5 -69.5t26.5 -51q12 -23 20 -36.5t15 -13.5t13.5 10.5t23.5 45.5l218 454h4l60 -440q3 -21 1.5 -31t-6.5 -12q-11 -5 -11 -11q0 -5 6 -7t23 -4q15 -1 45 -2t62 -2t59.5 -1.5t36.5 -0.5
q11 0 18.5 2.5t7.5 8.5q0 7 -16 7q-10 0 -25 1.5t-37 8.5q-23 7 -32.5 30t-16.5 71l-91 618q-4 31 -18 31q-7 0 -11.5 -6t-10.5 -18l-272 -571l-273 564q-10 20 -15.5 25.5t-11.5 5.5q-12 0 -17 -26z" />
    <glyph glyph-name="N" unicode="N" horiz-adv-x="947" 
d="M209 553h3q7 -7 29.5 -32t55.5 -60.5t72.5 -77.5t80.5 -82l81 -81l82 -82t74 -74.5t58 -56.5q8 -8 17 -15t17 -7q13 0 13 31l11 631q1 42 8.5 60.5t28.5 24.5q9 2 15.5 2.5t14.5 0.5q18 0 18 9q0 6 -6.5 7.5t-16.5 1.5q-37 0 -63.5 -1.5t-34.5 -1.5q-16 0 -49 1.5
t-72 1.5q-11 0 -18.5 -1.5t-7.5 -7.5q0 -9 16 -9q11 0 26.5 -0.5t26.5 -5.5q18 -8 25.5 -26t8.5 -64l10 -449h-5l-17.5 17.5t-32 33.5t-41 43.5t-46 47.5t-45 46.5t-38.5 39.5q-55 54 -108.5 109.5t-97 100.5t-72 75.5t-32.5 35.5q-13 14 -21 22.5t-16 8.5t-10.5 -9.5
t-2.5 -24.5l-9 -592q-1 -65 -6.5 -91.5t-24.5 -32.5q-11 -3 -23 -4t-22 -1q-16 0 -16 -8q0 -7 6 -8.5t16 -1.5q39 0 70 1.5t38 1.5q14 0 44.5 -1.5t79.5 -1.5q23 0 23 10q0 8 -17 8q-12 0 -25.5 1t-26.5 6q-8 3 -14 9.5t-10.5 19.5t-7 33t-3.5 49z" />
    <glyph glyph-name="O" unicode="O" horiz-adv-x="927" 
d="M458 -17q95 0 171.5 32t130.5 87.5t83 130t29 160.5t-28 155t-80.5 118t-127.5 75t-168 26q-113 0 -191.5 -37t-127.5 -94.5t-71.5 -127t-22.5 -133.5q0 -66 22.5 -135.5t71.5 -126.5t125 -93.5t184 -36.5zM500 33q-72 0 -129 29t-96.5 79.5t-60.5 118.5t-21 146
q0 93 22.5 154t57.5 96t79 49t87 14q61 0 114.5 -25t93.5 -72.5t62.5 -114.5t22.5 -151q0 -72 -12.5 -124t-32.5 -88t-45 -58t-51 -33.5t-50 -15.5t-41 -4z" />
    <glyph glyph-name="P" unicode="P" horiz-adv-x="655" 
d="M164 287q0 -69 -0.5 -125t-4.5 -88q-3 -22 -8.5 -37t-20.5 -18q-7 -2 -16 -3t-20 -1q-16 0 -16 -8q0 -10 20 -10q15 0 33.5 0.5t36 1t32.5 1t24 0.5q20 0 62.5 -1.5t92.5 -1.5q19 0 19 10q0 8 -16 8q-11 0 -25.5 1t-25.5 3q-23 3 -30 18t-9 36q-4 32 -4.5 88.5
t-0.5 125.5v400q0 16 8 19q7 2 17.5 3t21.5 1q17 0 45 -7t55 -32q21 -19 33 -40t17.5 -41.5t7 -38.5t1.5 -30q0 -38 -13 -68.5t-33 -52t-43.5 -33t-44.5 -11.5q-16 0 -22 -2.5t-6 -8.5q0 -5 4 -6.5t8 -2.5t10 -1h11q53 0 98 18t78 50t51.5 76.5t18.5 97.5q0 40 -16.5 71.5
t-33.5 47.5q-6 6 -18 15.5t-34 18.5t-54.5 16t-79.5 7q-35 0 -74.5 -1.5t-70.5 -1.5q-11 0 -27 0.5t-35.5 1t-40.5 1t-41 0.5q-22 0 -22 -9t17 -9q11 0 22 -0.5t17 -2.5q25 -5 33 -18t10 -39q1 -12 1.5 -25.5t0.5 -36.5v-58v-92v-176z" />
    <glyph glyph-name="Q" unicode="Q" horiz-adv-x="930" 
d="M776 -83q62 -36 114.5 -62t102 -42.5t99.5 -24t107 -7.5q54 0 102 7.5t88 19t72 24.5t55 24q12 5 12 12q0 9 -9 9q-3 0 -6.5 -1.5t-8.5 -3.5q-52 -20 -104 -27.5t-91 -7.5q-26 0 -63.5 3.5t-88.5 15.5t-116 35.5t-144 64.5l-201 103q24 16 54 44.5t56.5 69.5t45 95
t18.5 120q0 88 -29.5 158t-83 119t-128 75.5t-164.5 26.5q-110 0 -187.5 -37.5t-127 -95t-72.5 -125.5t-23 -129q0 -68 22.5 -138t71 -128t126 -94.5t187.5 -36.5q40 0 83.5 7.5t73.5 18.5zM499 33q-60 0 -115.5 24.5t-97.5 71.5t-67 116t-25 158q0 87 20.5 147t54.5 97.5
t79 54.5t94 17q52 0 103.5 -22t92.5 -66.5t66.5 -111.5t25.5 -158q0 -73 -11.5 -126t-30.5 -89.5t-43.5 -58.5t-50 -34t-50.5 -16t-45 -4z" />
    <glyph glyph-name="R" unicode="R" horiz-adv-x="755" 
d="M164 287q0 -69 -0.5 -125t-4.5 -88q-3 -22 -8.5 -37t-20.5 -18q-7 -2 -16 -3t-20 -1q-16 0 -16 -8q0 -10 20 -10q15 0 33.5 0.5t35.5 1t31.5 1t21.5 0.5q6 0 21.5 -0.5t36 -1t44 -1t45.5 -0.5q20 0 20 10q0 8 -12 8q-9 0 -23.5 1t-25.5 3q-23 3 -30 18t-9 37
q-4 32 -4.5 88t-0.5 126v14q0 8 8 8l87 -2q12 0 18 -7q5 -6 15.5 -20.5t24 -33.5t29 -41t30.5 -43q42 -58 73.5 -94t63.5 -53q19 -11 42 -15t65 -4h95q19 0 19 10q0 8 -12 8t-28 3q-6 1 -16 3.5t-24.5 9.5t-32.5 20t-39 35q-45 47 -97.5 112.5t-119.5 150.5q38 31 63.5 59.5
t40.5 55.5t21.5 54t6.5 55q0 25 -6.5 47t-17 39.5t-22.5 30.5t-22 20q-41 28 -88.5 35.5t-95.5 7.5q-12 0 -30.5 -0.5t-39 -1t-39.5 -1t-32 -0.5q-8 0 -23 0.5t-33.5 1t-39.5 1t-41 0.5q-22 0 -22 -9t17 -9q11 0 22 -0.5t17 -2.5q25 -5 33 -18t10 -39q1 -12 1.5 -25.5
t0.5 -36.5v-58v-92v-176zM282 688q0 11 9 14q13 4 53 4q22 0 48.5 -8.5t50 -29.5t39 -56.5t15.5 -88.5q0 -62 -18 -97.5t-41 -52.5q-7 -5 -13 -8t-14 -5t-18.5 -3t-25.5 -1q-19 0 -39.5 2.5t-36.5 7.5q-9 4 -9 18v304z" />
    <glyph glyph-name="S" unicode="S" horiz-adv-x="582" 
d="M255 -17q40 0 80.5 8.5t78.5 32.5q27 18 45 39t29 44t15.5 46t4.5 45q0 36 -8.5 67.5t-28 61.5t-51 61t-76.5 65l-28 21q-31 24 -51.5 43t-32.5 35.5t-17 32.5t-5 33q0 45 31.5 74t87.5 29q24 0 42 -5t31 -12.5t21.5 -16t14.5 -15.5q16 -20 21 -39.5t5 -26.5
q0 -18 10 -18q6 0 8.5 6.5t2.5 23.5q0 59 2 84.5t2 35.5q0 9 -14 12q-20 5 -52 11t-81 6q-52 0 -94.5 -14t-73 -39t-47 -60t-16.5 -76q0 -30 7.5 -59t25 -57.5t46 -58.5t69.5 -62l46 -36q31 -24 50.5 -45.5t30 -40.5t14 -37.5t3.5 -36.5q0 -20 -8.5 -40t-25 -36.5t-41.5 -27
t-59 -10.5q-47 0 -86.5 22.5t-56.5 78.5q-4 13 -6.5 27t-2.5 24q0 6 -1.5 11.5t-8.5 5.5q-6 0 -8.5 -7.5t-3.5 -18.5q0 -6 -1 -19.5t-2 -31.5t-1.5 -38.5t-0.5 -41.5q0 -17 3.5 -23t15.5 -11q32 -14 67 -20t79 -6z" />
    <glyph glyph-name="T" unicode="T" horiz-adv-x="710" 
d="M297 287q0 -69 -0.5 -125t-4.5 -88q-2 -22 -8 -37t-21 -18q-7 -2 -16 -3t-20 -1q-16 0 -16 -8q0 -10 20 -10q15 0 33.5 0.5t36 1t32.5 1t24 0.5q21 0 64 -1.5t93 -1.5q19 0 19 10q0 8 -16 8q-11 0 -25.5 1t-25.5 3q-23 3 -30 18t-9 36q-4 32 -4.5 88.5t-0.5 125.5v410
l126 -3q33 -1 55.5 -6t36 -13t19.5 -17.5t7 -19.5l1 -11q1 -20 11 -20q7 0 9 16q0 10 0.5 26.5t1 33.5t1 32.5t0.5 23.5q0 21 -8 21q-3 0 -9.5 -1.5t-17.5 -3.5t-28 -3.5t-41 -1.5h-396q-25 0 -51.5 1.5t-48.5 3.5q-19 2 -28 7t-15 5q-8 0 -12 -19q-1 -3 -4.5 -19t-7 -35.5
t-6.5 -37t-3 -23.5q0 -16 9 -16q8 0 11 12q2 6 5.5 15t11.5 20q11 17 32 22t65 7l149 4v-410z" />
    <glyph glyph-name="U" unicode="U" horiz-adv-x="852" 
d="M121 317q0 -54 6.5 -96t18.5 -73.5t28.5 -55t35.5 -40.5q27 -25 58 -39t60.5 -20.5t56.5 -8t47 -1.5q24 0 49.5 2.5t52 10.5t53 22t53.5 37q31 27 50 62t29 74t13 81t3 84v107v92v58q0 23 0.5 36.5t1.5 25.5q2 26 9.5 39.5t27.5 17.5q9 2 15 2.5t14 0.5q18 0 18 9t-21 9
q-15 0 -33 -0.5t-34.5 -1t-29.5 -1t-17 -0.5l-11 0.5t-27.5 1t-37 1t-39.5 0.5q-21 0 -21 -9t17 -9q8 0 19 -0.5t17 -2.5q25 -5 33 -18t10 -39q1 -12 1.5 -25.5t0.5 -36.5v-58v-92v-125q0 -39 -1.5 -74.5t-7 -67.5t-17 -58.5t-32.5 -47.5q-30 -30 -67.5 -42t-70.5 -12
q-26 0 -58.5 6.5t-66.5 34.5q-18 15 -32.5 35t-24.5 48.5t-15.5 68.5t-5.5 94v140v92v58q0 23 0.5 36.5t1.5 25.5q2 26 9.5 39.5t27.5 17.5q9 2 15 2.5t14 0.5q16 0 16 9t-22 9q-14 0 -31.5 -0.5t-34.5 -1t-32.5 -1t-24.5 -0.5q-23 0 -64.5 1.5t-81.5 1.5q-22 0 -22 -9
t17 -9q11 0 22 -0.5t17 -2.5q25 -5 33 -18t10 -39q1 -12 1.5 -25.5t0.5 -36.5v-58v-92v-146z" />
    <glyph glyph-name="V" unicode="V" horiz-adv-x="724" 
d="M324 44q14 -35 21 -48t17 -13q5 0 9.5 3.5t9 12t11 22.5t16.5 36q17 38 51 116.5t82 188.5q20 46 36 81t29.5 65.5t26.5 60t28 64.5q10 24 18 40t14.5 26t12 15.5t10.5 8.5q14 9 27.5 10.5t21.5 1.5q16 0 16 9t-21 9q-11 0 -25 -0.5t-27 -1t-24.5 -1t-17.5 -0.5
q-10 0 -38.5 1.5t-66.5 1.5q-28 0 -28 -10q0 -5 5 -6.5t12 -1.5q10 0 20.5 -1t19.5 -4q7 -2 10 -7.5t3 -11.5q0 -7 -2.5 -17t-6.5 -20q-6 -17 -20 -52.5t-32 -81.5t-39 -98.5t-41 -102t-37 -93t-28 -70.5h-4l-172 454q-11 27 -17 47t-6 30q0 14 10 21q6 5 16.5 6t22.5 1
q15 0 15 9q0 5 -7 7t-16 2q-38 0 -71 -1.5t-52 -1.5q-26 0 -65.5 1.5t-79.5 1.5q-11 0 -18.5 -1.5t-7.5 -7.5q0 -9 12 -9q6 0 17 -0.5t22 -3.5q13 -4 23.5 -8.5t19.5 -12.5t16.5 -21t16.5 -34z" />
    <glyph glyph-name="W" unicode="W" horiz-adv-x="1085" 
d="M287 20q7 -20 11 -28.5t12 -8.5q9 0 15.5 11t20.5 42q11 23 28 65t37.5 93t41 105.5t39 102t31.5 83t18 48.5h2l208 -501q11 -28 17 -38.5t14 -10.5q10 0 15.5 10.5t13.5 36.5q12 37 28.5 87t35 105.5t37.5 113.5t37.5 111.5t34.5 99t27 77.5q16 43 27 71t29 35
q8 3 17.5 4t17.5 1q14 0 14 10q0 8 -18 8q-12 0 -25.5 -0.5t-25.5 -1t-20.5 -1t-11.5 -0.5q-7 0 -35.5 1.5t-68.5 1.5q-23 0 -23 -9t17 -9q29 0 38.5 -9t9.5 -21q0 -11 -2.5 -26t-7.5 -32q-9 -29 -21 -69t-25 -84t-26.5 -89.5t-25.5 -85.5t-21 -71.5t-14 -48.5h-3l-208 503
q-10 24 -15.5 35.5t-13.5 11.5q-6 0 -11.5 -7.5t-13.5 -28.5l-194 -521h-3q-5 14 -15 46.5t-22.5 74t-27 88t-27 89t-22.5 77t-14 50.5q-9 34 -15.5 58t-6.5 34q0 17 11 22q5 3 12 3.5t13 0.5q8 0 13 1.5t5 7.5q0 9 -21 9q-44 0 -74 -1.5t-37 -1.5q-3 0 -14.5 0.5t-27.5 1
t-35.5 1t-38.5 0.5q-22 0 -22 -9q0 -6 4 -7.5t12 -1.5q7 0 19.5 -2t20.5 -7q11 -8 19.5 -25.5t17.5 -45.5z" />
    <glyph glyph-name="X" unicode="X" horiz-adv-x="712" 
d="M576 651q23 33 39.5 53t33.5 25q21 6 36 6q16 0 16 9t-18 9q-28 0 -55.5 -1.5t-42.5 -1.5q-14 0 -42.5 1.5t-57.5 1.5q-21 0 -21 -9q0 -5 3.5 -7t8.5 -2q6 0 15 -0.5t17 -2.5q17 -5 17 -18q0 -6 -2.5 -16.5t-8.5 -21.5t-23.5 -39t-39 -60.5t-42 -64t-31.5 -47.5
q-29 51 -62 106t-65 115q-10 18 -10 29q0 5 2.5 9.5t9.5 6.5q6 2 14 3t13 1q15 0 15 9t-20 9q-14 0 -30.5 -0.5t-31.5 -1t-27.5 -1t-17.5 -0.5q-18 0 -40.5 0.5t-44 1t-40 1t-27.5 0.5q-20 0 -20 -8q0 -10 10 -10q8 0 19 -1.5t23 -5.5q26 -8 45.5 -26.5t37.5 -48.5l172 -285
l-191 -273q-26 -36 -43 -52.5t-39 -22.5q-11 -3 -21.5 -4t-15.5 -1q-14 0 -14 -9t15 -9h17q6 0 17 0.5t23.5 1t24.5 1t19 0.5q9 0 24 -0.5l30 -1t26.5 -1t13.5 -0.5h18q20 0 20 9q0 5 -3.5 7t-8.5 2q-6 0 -12 0.5t-11 1.5q-7 2 -12.5 6t-6.5 11q-2 17 14 42l148 239
q35 -57 75.5 -127.5t82.5 -144.5q5 -10 3.5 -16t-5.5 -7q-14 -3 -14 -11q0 -5 7 -7t27 -3q29 -1 57.5 -1.5t52.5 -0.5h42h28h30q19 0 19 10q0 8 -13 8q-7 0 -16 1t-22 5q-20 6 -32.5 15.5t-25.5 26.5q-6 8 -22.5 34t-38 61t-46 75t-47 76.5t-40 65t-25.5 40.5z" />
    <glyph glyph-name="Y" unicode="Y" horiz-adv-x="670" 
d="M276 174q0 -12 -0.5 -40t-2.5 -60q-2 -22 -9 -37t-22 -18q-7 -2 -15.5 -3t-19.5 -1q-16 0 -16 -8q0 -10 22 -10q14 0 31.5 0.5t35.5 1t33.5 1t24.5 0.5q20 0 63 -1.5t90 -1.5q21 0 21 10q0 8 -16 8q-11 0 -25 1t-25 3q-23 3 -31 18t-10 37q-2 32 -2.5 60t-0.5 40v82
q0 25 2 49t13 51q4 11 18 36t32.5 57t39.5 67.5t41 67t36 56t24 34.5q17 20 27.5 30.5t26.5 18.5q11 6 23.5 9t20.5 3q19 0 19 10q0 8 -18 8q-7 0 -21.5 -0.5t-31 -1t-31.5 -1t-23 -0.5q-22 0 -45.5 1.5t-48.5 1.5q-17 0 -17 -9q0 -5 5.5 -6.5t12.5 -3.5q13 -3 17 -10t4 -15
q0 -21 -14 -52q-4 -8 -15.5 -29.5t-27.5 -50t-33.5 -60.5t-33 -60t-27 -48.5t-13.5 -26.5q-4 7 -17 30t-31 53.5t-38 65t-37.5 65.5t-30.5 54t-16 31q-5 11 -8.5 19.5t-3.5 14.5t3.5 11t10.5 7l16.5 4.5t5.5 6.5q0 9 -15 9q-34 0 -62.5 -1.5t-44.5 -1.5q-12 0 -31 0.5
t-37.5 1t-34.5 1t-23 0.5q-19 0 -19 -9q0 -5 4.5 -7t10.5 -2q9 0 20.5 -4t21.5 -9q14 -8 32 -26.5t37 -46.5q9 -13 25 -38.5t35 -56t38.5 -63t36.5 -60t28 -47t13 -23.5q5 -11 9 -21t7 -22t5 -27t2 -35v-82z" />
    <glyph glyph-name="Z" unicode="Z" horiz-adv-x="710" 
d="M222 55q106 162 216.5 330.5t214.5 337.5q3 5 5.5 9.5t2.5 9.5q0 8 -17 8h-305h-33h-39t-49 0.5t-63 2.5q-19 1 -26 4t-14 3q-9 0 -12 -19q-2 -11 -5.5 -32t-6.5 -43t-5.5 -41t-2.5 -28q0 -17 8 -17q5 0 7.5 3.5t4.5 14.5q2 17 15.5 40.5t38.5 37.5q12 7 29 11t36 6
t39.5 3t39.5 1h196q-101 -159 -209 -325t-214 -332q-9 -14 -12 -19.5t-3 -10.5q0 -10 17 -10q151 0 281.5 -2.5t255.5 -2.5q14 0 20 6t10 20q3 9 6.5 25t6.5 33.5t5 34.5t2 29q0 18 -2 24.5t-8 6.5q-7 0 -10 -16q-2 -11 -6.5 -23.5t-11.5 -24.5q-12 -23 -46.5 -39
t-110.5 -16h-246z" />
    <glyph glyph-name="bracketleft" unicode="[" horiz-adv-x="360" 
d="M188 617q0 29 1.5 51t5.5 38q23 10 54 14.5t54 6.5q17 1 17 10t-12 9h-191q-11 0 -13.5 -2.5t-2.5 -10.5v-839q0 -11 2.5 -13.5t13.5 -2.5h190q12 0 12 9t-17 10q-23 2 -54 6t-53 15q-7 29 -7 93v606z" />
    <glyph glyph-name="backslash" unicode="\" horiz-adv-x="542" 
d="M525 4q7 4 0 17l-456 740q-6 10 -14 5l-36 -22q-7 -3 -1 -12l459 -745q6 -10 13 -6z" />
    <glyph glyph-name="bracketright" unicode="]" horiz-adv-x="360" 
d="M172 7q0 -29 -1.5 -51t-5.5 -38q-23 -11 -54 -15t-54 -6q-17 -1 -17 -10t12 -9h191q11 0 13.5 2.5t2.5 10.5v839q0 11 -2.5 13.5t-13.5 2.5h-190q-12 0 -12 -9t17 -10q23 -2 54 -6t53 -15q7 -29 7 -93v-606z" />
    <glyph glyph-name="asciicircum" unicode="^" horiz-adv-x="549" 
d="M501 300l-192 448h-70l-192 -448h68l159 372l159 -372h68z" />
    <glyph glyph-name="underscore" unicode="_" horiz-adv-x="500" 
d="M0 -75v-50h500v50h-500z" />
    <glyph glyph-name="grave" unicode="`" horiz-adv-x="927" 
d="M537 837q0 5 -6.5 8.5t-14.5 9.5q-17 12 -35.5 28t-34 31t-27 26.5t-14.5 16.5q-8 11 -10 16.5t-6 5.5t-7.5 -1.5t-11.5 -5.5q-5 -2 -13.5 -5.5t-18 -7l-19 -7t-16.5 -5.5q-13 -3 -13 -9q0 -5 9.5 -12t23.5 -13q4 -2 20 -9t37 -16t45 -19.5t45.5 -19t36.5 -14t19 -5.5
q3 0 7 1.5t4 5.5z" />
    <glyph glyph-name="a" unicode="a" 
d="M389 211q7 0 9 -6l68 -171q3 -8 0 -13t-8 -6q-11 -1 -11 -9q0 -5 7 -5.5t19 -1.5q56 -2 101 -2h68q25 0 31.5 2t6.5 7q0 9 -12 9q-14 0 -33 3q-6 1 -13.5 4.5t-17 13t-20.5 27t-24 46.5q-14 32 -34.5 80t-43.5 102.5t-47 110t-44 103t-35 82t-20 46.5q-7 14 -11.5 20.5
t-14.5 6.5q-12 0 -26 -34l-230 -535q-14 -32 -28.5 -51t-44.5 -24q-6 0 -13 -0.5t-13 -0.5q-10 0 -10 -9t16 -9q35 0 65 1.5t37 1.5q21 0 48.5 -1.5t49.5 -1.5q14 0 14 9q0 4 -2.5 6.5t-10.5 2.5h-13q-20 0 -27.5 6.5t-7.5 17.5q0 8 3 22t10 30l47 114q2 6 8 6h207zM200 258
q-6 0 -3 6l85 215q1 2 2 5t3 3t2.5 -3t1.5 -5l83 -216q2 -5 -4 -5h-170z" />
    <glyph glyph-name="b" unicode="b" horiz-adv-x="640" 
d="M144 244q0 -59 -0.5 -106.5t-3.5 -74.5q-2 -19 -7 -30.5t-19 -14.5q-12 -3 -31 -3q-8 0 -11 -3t-3 -6q0 -9 17 -9q14 0 29.5 0.5t31.5 1.5q16 0 29 0.5t21 0.5q11 0 31.5 -0.5t43.5 -1.5q23 -2 42.5 -2.5t27.5 -0.5q61 0 105 16t72.5 42.5t42.5 59.5t14 67q0 37 -15 67.5
t-39 53.5t-52.5 38.5t-55.5 24.5q19 12 36.5 27.5t31.5 34t22.5 40.5t8.5 47q0 17 -7 39t-27 41.5t-56.5 33t-96.5 13.5q-11 0 -27 -0.5t-34 -0.5t-36.5 -0.5t-34.5 -0.5q-6 0 -19 0.5t-30 0.5q-16 0 -34.5 0.5t-35.5 0.5q-20 0 -20 -8q0 -9 15 -9q10 0 20 -0.5t15 -2.5
q21 -6 28.5 -15t9.5 -31q0 -10 0.5 -21.5t0.5 -30.5v-50v-78v-150zM258 585q0 13 8 14q7 2 18 2h20q28 0 49 -12t34.5 -30.5t20 -41.5t6.5 -44q0 -31 -11.5 -53.5t-28.5 -36.5q-11 -9 -29 -12t-40 -3q-29 0 -41 3q-2 1 -4 2.5t-2 6.5v205zM258 323q0 6 5 6h38q26 0 44 -6
t32 -16q25 -17 41 -37t25.5 -40.5t13 -39.5t3.5 -34q0 -35 -10.5 -58.5t-26 -37t-34.5 -19t-37 -5.5q-15 0 -30.5 1.5t-32.5 8.5q-21 8 -26 25t-5 59v193z" />
    <glyph glyph-name="c" unicode="c" horiz-adv-x="705" 
d="M460 -14q21 0 44 1t44 3t39.5 6t31.5 9q11 5 15.5 9.5t7.5 15.5t6.5 28.5t6.5 35t4.5 31.5t1.5 18q0 5 -2.5 10t-7.5 5q-8 0 -11 -17q-2 -12 -10.5 -28t-19.5 -29q-26 -29 -62 -37t-94 -8q-44 0 -92.5 18t-89 55t-66.5 93t-26 132q0 31 3.5 61.5t12.5 59t25 54t40 46.5
q30 26 69 37t97 11q61 0 104 -14t66 -36q17 -17 25 -38t9 -41q0 -18 9 -18q6 0 8.5 6t3.5 15q0 6 0.5 17.5t0.5 24.5t0.5 26t1.5 24q2 23 3 32.5t1 14.5q0 9 -13 10q-20 2 -41.5 6t-46.5 8q-30 4 -58.5 6.5t-69.5 2.5q-98 0 -164.5 -24t-114.5 -66q-32 -28 -52 -60t-31 -63
t-15.5 -59.5t-4.5 -50.5q0 -31 5 -63.5t17.5 -65t33.5 -64t54 -58.5q60 -51 135.5 -71.5t166.5 -20.5z" />
    <glyph glyph-name="d" unicode="d" horiz-adv-x="831" 
d="M144 244q0 -59 -0.5 -106.5t-3.5 -74.5q-2 -19 -7 -30.5t-19 -14.5q-12 -3 -31 -3q-8 0 -11 -3t-3 -6q0 -9 17 -9q14 0 29.5 0.5t31.5 1.5q16 0 29 0.5t21 0.5q17 0 40 -1.5t49 -3.5t53.5 -3.5t51.5 -1.5q61 0 109 10t84.5 25t61.5 32.5t40 32.5q19 18 36 42.5t30.5 54.5
t21.5 65t8 75q0 76 -25 129.5t-58 86.5q-36 36 -80.5 56t-91.5 29t-94 10.5t-88 1.5q-20 0 -41 -0.5t-41 -0.5q-19 0 -35 -0.5t-26 -0.5q-19 0 -55.5 1t-71.5 1q-20 0 -20 -8q0 -9 15 -9q10 0 20 -0.5t15 -2.5q21 -6 28.5 -15t9.5 -31q0 -10 0.5 -21.5t0.5 -30.5v-50v-78
v-150zM262 407v97q0 47 1 69q0 13 11 17q5 3 22.5 4.5t31.5 1.5q26 0 56 -2.5t62.5 -11t65 -24.5t62.5 -43q15 -13 29.5 -32.5t26 -46t19 -60t7.5 -73.5q0 -66 -16 -121t-59 -90q-40 -33 -86 -45.5t-106 -12.5q-52 0 -79.5 11t-35.5 23q-5 7 -7 25.5t-3 34.5
q-1 13 -1.5 58.5t-0.5 113.5v107z" />
    <glyph glyph-name="e" unicode="e" horiz-adv-x="576" 
d="M144 244q0 -59 -0.5 -106.5t-3.5 -74.5q-2 -19 -7 -30.5t-19 -14.5q-12 -3 -31 -3q-8 0 -11 -3t-3 -6q0 -9 17 -9q14 0 29.5 0.5t31.5 1.5q16 0 29 0.5t21 0.5q20 0 45 -0.5t57 -1.5q64 -3 162 -3q12 0 20 0.5t13.5 2.5t8.5 6.5t5 12.5q2 6 4 19t4 27t3 27.5t1 20.5
t-1.5 13.5t-6.5 6.5q-7 0 -10 -13q-5 -26 -13 -40.5t-25 -22.5t-41.5 -9.5t-41.5 -1.5q-34 0 -56.5 3t-36 11t-19.5 21.5t-7 35.5v26v35v36v29v68q0 9 5 9q8 0 28.5 -0.5t43 -1t41.5 -1t25 -1.5q25 -2 35 -11t14 -22q2 -8 2 -16t1 -15q0 -7 8 -7q6 0 7.5 7t1.5 12t1 24.5
t3 32.5q4 32 5.5 45t1.5 17q0 9 -7 9q-3 0 -6 -3l-8 -8q-6 -7 -16 -9t-26 -4q-8 -1 -30 -1.5t-47 -0.5h-48h-29q-6 0 -6 9v210q0 8 6 8q7 0 27 -0.5t43 -1t42.5 -1t25.5 -1.5q33 -3 43 -11.5t15 -19.5q4 -8 5 -17t1 -14q0 -11 7 -11q5 0 7 5.5t3 8.5q1 4 1.5 12t1.5 16.5
t1.5 16.5t0.5 11q2 29 4.5 39.5t2.5 15.5q0 8 -6 8q-3 0 -6.5 -1.5t-7.5 -2.5q-5 -1 -15 -2.5t-22 -2.5h-22h-42h-52h-53h-45h-26q-19 0 -55.5 1t-71.5 1q-20 0 -20 -8q0 -9 15 -9q10 0 20 -0.5t15 -2.5q21 -6 28.5 -15t9.5 -31q0 -10 0.5 -21.5t0.5 -30.5v-50v-78v-150z
" />
    <glyph glyph-name="f" unicode="f" horiz-adv-x="567" 
d="M262 311q0 7 6 7h25q20 0 43 -0.5t44 -1t29 -1.5q20 -2 29.5 -12t12.5 -19q6 -15 6 -26q0 -5 2 -8.5t6 -3.5q7 0 8.5 7t1.5 12v9q0 8 0.5 17.5t1 19.5t1.5 16q2 20 4.5 35.5t2.5 19.5q0 8 -5 8q-4 0 -6 -2.5t-6 -6.5q-6 -8 -15.5 -11t-21.5 -4q-10 -1 -20 -1h-20l-123 -1
q-6 0 -6 8v206q0 8 2 10t6 2l146 -3q25 -1 38 -9t18 -17t5 -18v-14q0 -14 11 -14q5 0 6.5 6t2.5 11q0 4 0.5 14t1.5 21t1.5 21t0.5 13q2 17 4.5 25t2.5 13q0 8 -6 8q-4 0 -7 -2t-7 -3q-11 -2 -36 -4h-43h-77h-80h-50q-19 0 -55.5 1t-70.5 1q-21 0 -21 -8q0 -5 4.5 -7
t10.5 -2q10 0 20 -0.5t15 -2.5q21 -5 28.5 -14.5t9.5 -31.5q0 -10 0.5 -21.5t0.5 -30.5v-50v-78v-150q0 -62 -0.5 -108t-3.5 -73q-2 -19 -7 -30.5t-19 -14.5q-12 -3 -31 -3q-8 0 -10.5 -3t-2.5 -6q0 -9 18 -9q12 0 28 0.5t31.5 1t29.5 1t23 0.5t24 -0.5t34 -1t40.5 -1
t42.5 -0.5q19 0 19 9q0 3 -3.5 6t-11.5 3q-9 0 -21.5 0.5t-21.5 2.5q-20 3 -26.5 14.5t-8.5 30.5q-3 27 -4 71.5t-1 106.5v70z" />
    <glyph glyph-name="g" unicode="g" horiz-adv-x="783" 
d="M681 148v57t1 45q1 23 8.5 33t25.5 13q15 3 24 3q11 0 11 9q0 8 -18 8q-22 0 -52 -1t-51 -1q-10 0 -25.5 0.5t-34.5 0.5t-38.5 0.5t-36.5 0.5q-19 0 -19 -8q0 -9 14 -9q9 0 19 -0.5t15 -2.5q21 -6 29 -15t9 -31q1 -20 1 -44v-56v-78q0 -22 -17 -30q-16 -7 -30.5 -8
t-31.5 -1q-71 0 -127.5 23.5t-96 65.5t-61 100t-21.5 127q0 78 22 127.5t59 79.5q23 18 45.5 28.5t44.5 15t42 5.5t38 1q37 0 68 -6.5t55 -16t41 -21t27 -21.5q17 -18 22.5 -37t7.5 -33q2 -11 9 -11q12 0 12 19q0 40 1 65.5t2 41t2 22.5t1 11q0 5 -2 7t-10 3q-16 1 -36 4
t-34 5q-7 1 -23.5 3.5t-38.5 5t-46.5 4t-47.5 1.5q-56 0 -115 -9t-122 -46q-30 -18 -58 -44.5t-49.5 -61.5t-34 -78t-12.5 -94q0 -88 33 -151t89.5 -103.5t130 -59.5t154.5 -19q26 0 54.5 2t57 6.5t55 11.5t48.5 18q8 5 9.5 9t1.5 21v94z" />
    <glyph glyph-name="h" unicode="h" horiz-adv-x="867" 
d="M268 363q-6 0 -6 6v18v79v52q0 21 0.5 33.5t1.5 22.5q2 23 8.5 33t24.5 13q15 3 25 3q16 0 16 9q0 8 -18 8q-13 0 -30 -0.5t-34 -0.5q-16 0 -30.5 -0.5t-22.5 -0.5q-9 0 -23.5 0.5t-32.5 0.5q-17 0 -36 0.5t-37 0.5q-19 0 -19 -8q0 -9 15 -9q10 0 20 -0.5t15 -2.5
q21 -6 28.5 -15t9.5 -31q0 -10 0.5 -21.5t0.5 -30.5v-50v-78v-150q0 -59 -0.5 -106.5t-3.5 -74.5q-2 -19 -7 -30.5t-19 -14.5q-12 -3 -31 -3q-8 0 -11 -3t-3 -6q0 -9 17 -9q13 0 29.5 0.5t32.5 1t29.5 1t21.5 0.5q19 0 59.5 -1.5t83.5 -1.5q18 0 18 9q0 3 -3 6t-11 3
q-10 0 -23 0.5t-22 2.5q-20 3 -26 14.5t-8 29.5q-3 28 -4 74.5t-1 105.5v65q0 5 6 5h332q5 0 5 -5v-65q0 -59 -0.5 -105.5t-3.5 -73.5q-2 -19 -7 -30.5t-19 -14.5q-12 -3 -32 -3q-8 0 -11 -3t-3 -6q0 -9 19 -9q13 0 30 0.5t33.5 1t30.5 1t22 0.5q18 0 57 -1.5t82 -1.5
q18 0 18 9q0 3 -3.5 6t-10.5 3q-11 0 -23.5 0.5t-21.5 2.5q-20 3 -26.5 14.5t-8.5 29.5q-3 28 -3.5 75.5t-0.5 106.5v150v78v50t0.5 30.5t1.5 21.5q2 23 8.5 33t23.5 13q16 3 26 3q16 0 16 9q0 8 -19 8q-13 0 -29 -0.5t-32 -0.5t-30 -0.5t-22 -0.5q-9 0 -24 0.5t-33 0.5
t-37.5 0.5t-37.5 0.5q-19 0 -19 -8q0 -9 15 -9q9 0 19 -0.5t15 -2.5q21 -6 28.5 -15t9.5 -31q0 -10 0.5 -22.5t1 -33t0.5 -52.5v-79v-18q0 -6 -5 -6h-332z" />
    <glyph glyph-name="i" unicode="i" horiz-adv-x="407" 
d="M144 244q0 -62 -0.5 -110.5t-3.5 -74.5q-2 -19 -7 -28.5t-19 -12.5q-12 -3 -31 -3q-8 0 -11 -3t-3 -6q0 -9 17 -9q13 0 30 0.5t33.5 1t30 1t21.5 0.5q18 0 58 -1.5t84 -1.5q17 0 17 9q0 3 -3 6t-11 3q-10 0 -23 0.5t-22 2.5q-20 3 -26.5 13t-8.5 27q-3 27 -3.5 75.5
t-0.5 110.5v150v78v50t0.5 30.5t1.5 21.5q2 23 8.5 33t24.5 13q15 3 26 3q14 0 14 10q0 7 -18 7q-13 0 -29 -0.5t-32 -0.5t-30 -0.5t-22 -0.5q-9 0 -24 0.5t-32 0.5t-33.5 0.5t-28.5 0.5q-21 0 -21 -7q0 -10 14 -10q19 0 32 -4q14 -5 21 -14t9 -31q0 -10 0.5 -21.5
t0.5 -30.5v-50v-78v-150z" />
    <glyph glyph-name="j" unicode="j" horiz-adv-x="373" 
d="M144 150q0 -63 -1 -111t-7 -85.5t-19.5 -66.5t-38.5 -53q-24 -24 -42 -33q-11 -5 -15 -8.5t-4 -6.5q0 -8 7 -8q3 0 8 1t10 3q28 13 44 22q64 38 104 80.5t54 81.5q14 36 17.5 75t3.5 75q0 32 -1.5 62.5t-1.5 57.5v158v78v50t0.5 30.5t1.5 21.5q2 23 8.5 33t24.5 13
q8 2 13 2.5t12 0.5q16 0 16 9q0 8 -18 8q-13 0 -29.5 -0.5t-32.5 -0.5q-15 0 -28.5 -0.5t-21.5 -0.5q-9 0 -24 0.5t-34 0.5q-18 0 -38 0.5t-37 0.5q-20 0 -20 -8q0 -9 15 -9q10 0 20 -0.5t15 -2.5q21 -6 28.5 -15t9.5 -31q0 -10 0.5 -21.5t0.5 -30.5v-50v-78v-244z" />
    <glyph glyph-name="k" unicode="k" horiz-adv-x="685" 
d="M259 394v78v50t0.5 30.5t0.5 21.5q2 23 8.5 33t24.5 13q8 2 13 2.5t12 0.5q12 0 12 9q0 8 -19 8q-11 0 -27 -0.5t-33 -0.5q-16 0 -30.5 -0.5t-22.5 -0.5q-16 0 -52 1t-71 1q-20 0 -20 -8q0 -9 15 -9q10 0 20 -0.5t15 -2.5q21 -6 28.5 -15t9.5 -31q0 -10 0.5 -21.5
t0.5 -30.5v-50v-78v-150q0 -59 -0.5 -106.5t-3.5 -74.5q-2 -19 -7 -30.5t-19 -14.5q-12 -3 -31 -3q-8 0 -11 -3t-3 -6q0 -9 17 -9q13 0 29 0.5l32 1t29 1t21 0.5t23 -0.5t33.5 -1t39 -1t38.5 -0.5q17 0 17 9q0 3 -3.5 6t-8.5 3q-8 0 -21 0.5t-22 2.5q-17 3 -23.5 14.5
t-8.5 29.5q-2 28 -2 75v107v77h4l9 -12q5 -7 21 -26t38 -44.5t47 -54.5t48.5 -55t43 -46.5t28.5 -28.5q29 -25 54 -38.5t60 -16.5q14 -2 27 -2h34h77q12 0 16.5 2t4.5 7q0 9 -12 9q-8 0 -21 1.5t-33 9.5q-35 14 -63 39.5t-57 51.5q-9 8 -27.5 27t-42.5 43.5t-50 52.5t-50 53
t-42 45.5t-26 30.5q7 8 21.5 22.5l32.5 32.5t38.5 37.5t39 37t33 31.5t21.5 20q28 26 50 40.5t43 22.5q12 5 26.5 7.5t24.5 2.5q13 0 13 9q0 8 -15 8q-10 0 -23.5 -0.5t-28.5 -0.5q-14 0 -27.5 -0.5t-23.5 -0.5q-9 0 -21.5 0.5t-25.5 0.5t-25 0.5t-19 0.5q-14 0 -14 -8
q0 -6 12 -9t12 -17q0 -11 -12.5 -26.5t-31.5 -36.5q-10 -11 -35.5 -37t-55 -55.5l-56 -56t-37.5 -38.5h-4v38z" />
    <glyph glyph-name="l" unicode="l" horiz-adv-x="552" 
d="M262 394v78v50t0.5 30.5t1.5 21.5q2 23 8.5 33t24.5 13q8 2 17 2.5t17 0.5q16 0 16 9q0 8 -19 8q-13 0 -31.5 -0.5t-37.5 -0.5q-18 0 -34 -0.5t-24 -0.5q-9 0 -23.5 0.5t-31.5 0.5q-16 0 -33.5 0.5t-32.5 0.5q-19 0 -19 -8q0 -9 15 -9q18 0 29 -3q21 -6 28.5 -15t9.5 -31
q0 -10 0.5 -21.5t0.5 -30.5v-50v-78v-150q0 -59 -0.5 -106.5t-3.5 -74.5q-2 -19 -7 -30.5t-19 -14.5q-12 -3 -31 -3q-8 0 -11 -3t-3 -6q0 -9 17 -9q14 0 29.5 0.5t31.5 1.5q16 0 29 0.5t21 0.5q27 0 55.5 -0.5t61.5 -1.5q66 -3 158 -3q17 0 27 1t16 3.5t8.5 7t4.5 11.5
q3 9 5 24.5t4 30.5t3 27t1 16q0 8 -1.5 13.5t-6.5 5.5q-8 0 -10 -13q-2 -12 -8 -27.5t-14 -23.5q-17 -17 -42.5 -20.5t-60.5 -3.5q-51 0 -78.5 4t-38.5 14q-14 12 -16.5 54.5t-2.5 124.5v150z" />
    <glyph glyph-name="m" unicode="m" horiz-adv-x="923" 
d="M90 82q-3 -21 -10.5 -42t-25.5 -23q-11 -2 -17 -2h-10q-14 0 -14 -8q0 -10 16 -10q21 0 47.5 1.5t39.5 1.5q12 0 38.5 -1.5t54.5 -1.5q21 0 21 10q0 8 -14 8q-11 0 -31 4q-11 2 -19 7.5t-8 17.5q0 11 0.5 20t2.5 20l42 332h3q11 -22 25 -51t27 -56t23 -48t13 -27
q4 -9 17 -35t29 -56t31.5 -58.5t23.5 -43.5q11 -20 19 -31.5t16 -11.5t14 9t21 39l189 380h3l49 -368q2 -18 1 -26t-5 -10q-10 -3 -10 -9q0 -4 5 -6.5t21 -3.5q13 -1 40 -2t56 -2t53.5 -1.5t32.5 -0.5q10 0 16.5 2.5t6.5 7.5q0 8 -14 8q-8 0 -19.5 1.5t-30.5 6.5
q-20 6 -28.5 25t-14.5 59l-80 525q-2 14 -8.5 20.5t-11.5 6.5q-13 0 -23 -21l-236 -480l-236 474q-9 17 -14.5 22t-12.5 5q-5 0 -10 -5.5t-7 -16.5z" />
    <glyph glyph-name="n" unicode="n" horiz-adv-x="841" 
d="M189 460h3q6 -6 25.5 -26.5t47.5 -49.5t62.5 -64.5t70.5 -69.5q34 -33 71 -68.5t71.5 -68.5t64 -61t50.5 -47q7 -7 16 -12.5t20 -5.5q5 0 9.5 6.5t4.5 20.5l10 536q1 36 7.5 50.5t24.5 19.5q8 2 14 2.5t13 0.5q15 0 15 9q0 8 -20 8q-32 0 -55 -1t-31 -1q-14 0 -45.5 1
t-66.5 1q-22 0 -22 -8q0 -9 14 -9q9 0 22.5 -0.5t23.5 -4.5q16 -6 22.5 -21t7.5 -54l9 -378h-4q-5 4 -27 26.5t-50.5 51.5t-59.5 60l-53 53q-48 47 -95 93.5t-84.5 84.5t-62.5 63.5t-29 29.5q-11 11 -20.5 19.5t-17.5 8.5q-7 0 -11 -8t-4 -21l-8 -504q0 -28 -1 -46.5
t-4 -30.5t-8 -18t-14 -8t-20 -3t-20 -1q-14 0 -14 -9q0 -6 5.5 -7.5t14.5 -1.5q34 0 61.5 1.5t33.5 1.5q12 0 41.5 -1.5t72.5 -1.5q20 0 20 9t-15 9q-11 0 -23 1t-23 5q-13 5 -20.5 23.5t-9.5 68.5z" />
    <glyph glyph-name="o" unicode="o" horiz-adv-x="827" 
d="M408 -14q85 0 153.5 27t116.5 74t73.5 110.5t25.5 136.5t-25 132t-71.5 100t-113.5 63.5t-150 22.5q-100 0 -170 -31.5t-114.5 -80.5t-64.5 -108t-20 -113q0 -57 20 -116t63.5 -107t112 -79t164.5 -31zM444 32q-62 0 -111.5 24.5t-84 66.5t-52.5 99t-18 123
q0 79 19.5 129.5t50 80t68.5 41t75 11.5q53 0 99.5 -21t81 -60.5t54.5 -96t20 -126.5q0 -91 -23 -144.5t-55 -81.5t-66.5 -36.5t-57.5 -8.5z" />
    <glyph glyph-name="p" unicode="p" horiz-adv-x="596" 
d="M144 244q0 -59 -0.5 -106.5t-3.5 -74.5q-2 -19 -7 -30.5t-19 -14.5q-12 -3 -31 -3q-8 0 -11 -3t-3 -6q0 -9 17 -9q13 0 29 0.5l32 1t29 1t21 0.5q9 0 24 -0.5t34.5 -1t41.5 -1t44 -0.5q16 0 16 9q0 3 -3 6t-11 3q-10 0 -22.5 0.5t-22.5 2.5q-20 3 -26 14.5t-8 29.5
q-3 28 -3.5 75.5t-0.5 106.5v337q0 13 7 16q6 2 17 3t21 1q15 0 39.5 -5.5t48.5 -26.5q18 -16 28.5 -33.5t16 -34.5t6.5 -32.5t1 -25.5q0 -33 -11.5 -58.5t-29 -43t-38.5 -27t-39 -9.5q-29 0 -29 -11q0 -5 3.5 -7t7.5 -2q3 -1 13 -1h13q47 0 87.5 15.5t70 42.5t46.5 65
t17 83q0 35 -15 61.5t-29 40.5q-5 4 -16 12.5t-30 16t-48 13.5t-70 6q-15 0 -34.5 -0.5t-40.5 -0.5q-20 0 -39 -0.5t-32 -0.5q-19 0 -55.5 1t-71.5 1q-20 0 -20 -8q0 -9 15 -9q10 0 20 -0.5t15 -2.5q21 -6 28.5 -15t9.5 -31q0 -10 0.5 -21.5t0.5 -30.5v-50v-78v-150z" />
    <glyph glyph-name="q" unicode="q" horiz-adv-x="826" 
d="M683 -74q54 -32 100.5 -54t90 -35.5t87.5 -19.5t95 -6q48 0 90.5 7t78.5 17t64.5 22t48.5 21q11 5 11 11q0 8 -8 8q-3 0 -6 -1t-7 -3q-46 -17 -91.5 -22t-80.5 -5q-23 0 -56 3t-77.5 13.5t-101 30.5t-125.5 54l-173 84q20 13 46 37.5t49.5 59.5t39.5 80.5t16 101.5
q0 75 -26.5 134.5t-74.5 101t-114.5 64t-145.5 22.5q-97 0 -166 -32t-113.5 -80.5t-65 -106.5t-20.5 -110q0 -57 20 -117t63 -109t111 -80t165 -31q17 0 36.5 1.5t38 4.5t35.5 6.5t29 8.5zM443 32q-53 0 -101 20t-84 59.5t-57.5 97.5t-21.5 134q0 73 17.5 123t46.5 81.5
t68 45.5t82 14q45 0 90 -18.5t80 -55.5t57 -93.5t22 -132.5q0 -92 -21 -146.5t-52 -83t-65 -37t-61 -8.5z" />
    <glyph glyph-name="r" unicode="r" horiz-adv-x="686" 
d="M144 244q0 -59 -0.5 -106.5t-3.5 -74.5q-2 -19 -7 -30.5t-19 -14.5q-12 -3 -31 -3q-8 0 -11 -3t-3 -6q0 -9 17 -9q13 0 29 0.5t31.5 1t28.5 1t19 0.5q5 0 20 -0.5t34.5 -1t41.5 -1t41 -0.5q18 0 18 9q0 3 -3 6t-8 3q-8 0 -20.5 0.5t-22.5 2.5q-20 3 -26 14.5t-8 30.5
q-3 27 -4 74t-1 107v12q0 7 7 7l79 -2q10 0 16 -6q4 -5 12.5 -17t20 -28.5t24.5 -35t26 -35.5q37 -50 64 -80.5t56 -44.5q17 -9 38 -13t58 -4h84q17 0 17 9q0 3 -3 6t-8 3h-10q-4 0 -11 2q-5 1 -13.5 3t-20.5 7.5t-27 16.5t-33 29q-40 40 -87 97t-106 129q65 52 93.5 96
t28.5 92q0 21 -6 39.5t-15.5 33.5t-20.5 26.5t-20 17.5q-35 23 -80 29.5t-87 6.5q-10 0 -28.5 -0.5t-39.5 -0.5q-20 0 -39 -0.5t-30 -0.5q-14 0 -49.5 1t-70.5 1q-20 0 -20 -8q0 -9 15 -9q10 0 20 -0.5t15 -2.5q21 -6 28.5 -15t9.5 -31q0 -10 0.5 -21.5t0.5 -30.5v-50v-78
v-150zM256 581q0 9 8 12q7 2 21 2.5t31 0.5q19 0 42.5 -6.5t44 -24t34 -46.5t13.5 -74q0 -53 -18.5 -82.5t-38.5 -43.5q-11 -8 -23.5 -11t-38.5 -3q-17 0 -35 1.5t-32 6.5q-8 4 -8 15v253z" />
    <glyph glyph-name="s" unicode="s" horiz-adv-x="540" 
d="M239 -14q35 0 75 6t72 29q48 34 68 72.5t20 86.5q0 29 -7.5 55.5t-25 52t-47 50t-72.5 48.5l-36 20q-30 16 -48 30.5t-28 28t-13.5 26.5t-3.5 27q0 22 10 39t26.5 28.5t38 17.5t45.5 6q43 0 65.5 -14t32.5 -26q14 -17 18.5 -33.5t4.5 -22.5q0 -15 9 -15q11 0 11 27
q0 50 1.5 72t1.5 30t-12 11q-17 5 -49.5 9.5t-75.5 4.5q-46 0 -86.5 -12t-70.5 -34.5t-47.5 -54t-17.5 -70.5q0 -28 7 -53t23 -48.5t42.5 -46t65.5 -45.5l51 -30q29 -17 46.5 -33t26.5 -30.5t11.5 -28.5t2.5 -28q0 -45 -32.5 -76.5t-89.5 -31.5q-21 0 -42.5 4.5t-41 14
t-34.5 25.5t-22 40q-4 11 -6 23.5t-2 20.5q0 5 -1.5 9.5t-7.5 4.5q-11 0 -11 -22q-1 -11 -3 -44.5t-2 -68.5q0 -14 3 -19t14 -10q29 -13 67 -17.5t76 -4.5z" />
    <glyph glyph-name="t" unicode="t" horiz-adv-x="633" 
d="M261 244q0 -59 -0.5 -106.5t-3.5 -74.5q-2 -19 -7 -30.5t-19 -14.5q-11 -3 -31 -3q-8 0 -11 -3t-3 -6q0 -9 17 -9q13 0 30 0.5t33.5 1t30 1t21.5 0.5q19 0 58.5 -1.5t83.5 -1.5q17 0 17 9q0 3 -3 6t-11 3q-10 0 -23 0.5t-22 2.5q-20 3 -26 14.5t-8 29.5q-3 28 -4 75.5
t-1 106.5v344l111 -2q30 0 49.5 -5t31.5 -12t17 -15.5t6 -16.5l1 -9q1 -17 10 -17q6 0 8 14q0 8 0.5 22.5t0.5 30.5t0.5 29.5t0.5 20.5q0 18 -7 18q-2 0 -7.5 -1l-16.5 -3q-10 -2 -24.5 -3t-35.5 -1h-357q-22 0 -45 1t-43 3q-17 2 -25 6t-13 4q-7 0 -10 -16q-1 -3 -4 -17.5
t-6.5 -31.5t-6 -33t-2.5 -21q0 -14 8 -14q7 0 10 11l5 12.5t10 16.5q10 14 28.5 19.5t56.5 6.5l131 3v-344z" />
    <glyph glyph-name="u" unicode="u" horiz-adv-x="760" 
d="M106 269q0 -92 23 -144t57 -81q24 -21 52 -32.5t55.5 -17.5t52 -7t41.5 -1q43 0 91 11t95 50q28 23 44.5 52.5t25.5 63t11.5 69t2.5 71.5v91v78q0 31 0.5 50t1 30.5t0.5 21.5q2 23 8 33t24 13q8 2 13 2.5t13 0.5q15 0 15 9q0 8 -18 8q-13 0 -29 -0.5t-32 -0.5
q-15 0 -26.5 -0.5t-15.5 -0.5l-10.5 0.5t-25.5 0.5t-33.5 0.5t-35.5 0.5q-18 0 -18 -8q0 -9 15 -9q8 0 17.5 -0.5t14.5 -2.5q21 -6 28 -15t9 -31q0 -10 0.5 -21.5t1 -30.5t0.5 -50v-78v-107q0 -33 -1 -63t-6 -56t-15.5 -48.5t-28.5 -39.5q-26 -26 -57.5 -35.5t-60.5 -9.5
q-23 0 -52.5 5.5t-58.5 28.5q-16 13 -28.5 29t-21 40t-13 57t-4.5 80v119v78v50t0.5 30.5t1.5 21.5q2 23 8.5 33t23.5 13q8 2 13 2.5t13 0.5q14 0 14 9q0 8 -19 8q-12 0 -28 -0.5t-32 -0.5t-30.5 -0.5t-22.5 -0.5q-10 0 -25 0.5t-33 0.5t-37 0.5t-37 0.5q-19 0 -19 -8
q0 -9 15 -9q9 0 19 -0.5t15 -2.5q21 -6 28.5 -14.5t9.5 -31.5q1 -10 1 -22v-30v-50v-78v-125z" />
    <glyph glyph-name="v" unicode="v" horiz-adv-x="637" 
d="M283 37q13 -30 20 -40.5t16 -10.5t17 12.5t25 49.5q15 32 45 99t72 161q18 39 32 68.5t26 55.5t23.5 51t24.5 55q17 40 27.5 54.5t18.5 20.5q11 8 23.5 9t19.5 1q14 0 14 9q0 8 -18 8q-20 0 -46 -1t-37 -1q-8 0 -34.5 1t-59.5 1q-25 0 -25 -8q0 -5 4.5 -7t10.5 -2
q8 0 17.5 -1t17.5 -3q6 -2 9 -5t3 -10q0 -5 -2.5 -14t-5.5 -17q-5 -14 -17.5 -44.5t-28 -69.5t-34 -83t-36 -86t-32 -77.5t-24.5 -57.5h-3l-148 381q-9 23 -14.5 39.5t-5.5 24.5q0 11 9 17q5 4 14 5t20 1q14 0 14 9q0 5 -6.5 6.5t-14.5 1.5q-33 0 -64 -1t-48 -1q-23 0 -58 1
t-70 1q-22 0 -22 -8q0 -9 10 -9q5 0 14.5 -0.5t19.5 -2.5q12 -3 21 -6.5t16 -10.5t13.5 -17.5t14.5 -28.5z" />
    <glyph glyph-name="w" unicode="w" horiz-adv-x="955" 
d="M249 17q6 -17 11 -24t13 -7q10 0 16 9.5t18 35.5q9 19 24 55t32.5 79t36 89t34 85.5t27 68.5t15.5 38h2l179 -419q10 -23 16 -32t15 -9q10 0 15 8.5t13 31.5q16 48 39.5 117.5t48 142t48 138.5t38.5 106q14 37 23.5 60t25.5 29q8 2 16 3t15 1q12 0 12 10q0 7 -16 7
q-22 0 -45 -1t-28 -1q-6 0 -32.5 1t-61.5 1q-21 0 -21 -8q0 -4 4.5 -6.5t10.5 -2.5q26 0 34.5 -6.5t8.5 -17.5q0 -19 -9 -49q-8 -25 -18 -58.5t-21.5 -71t-23 -75.5t-22 -71t-18.5 -58.5t-12 -37.5h-3l-176 419q-16 40 -29 40q-6 0 -12.5 -6.5t-13.5 -24.5l-168 -434h-3
q-3 10 -11.5 36t-19 60.5t-22.5 73.5t-23 74.5t-19.5 64.5t-12.5 43q-8 29 -13.5 49.5t-5.5 28.5q0 7 1.5 11t7.5 6q9 4 22 4q16 0 16 9q0 8 -19 8q-38 0 -67 -1t-35 -1q-3 0 -13 0.5t-24 0.5t-31 0.5t-34 0.5q-20 0 -20 -8q0 -9 14 -9q6 0 16.5 -1t17.5 -6q10 -6 16.5 -21
t14.5 -38z" />
    <glyph glyph-name="x" unicode="x" horiz-adv-x="635" 
d="M516 553q20 28 34 44.5t29 20.5q20 5 32 5q14 0 14 9q0 8 -16 8q-25 0 -49 -1t-37 -1t-39.5 1t-52.5 1q-19 0 -19 -8q0 -5 3.5 -7t7.5 -2q5 0 13 -0.5t15 -2.5q15 -3 15 -14q0 -5 -2.5 -13.5t-7.5 -17.5q-6 -9 -21.5 -32.5t-34 -51t-36 -53.5t-27.5 -40q-26 44 -53.5 89
t-56.5 96q-4 7 -6.5 14t-2.5 11q0 9 12 12q5 2 11 2.5t10 0.5q14 0 14 9q0 8 -18 8q-12 0 -27.5 -0.5t-30.5 -0.5q-14 0 -25.5 -0.5t-15.5 -0.5q-16 0 -36 0.5t-39 0.5t-35 0.5t-24 0.5q-18 0 -18 -7q0 -10 9 -10q16 0 37 -6q23 -8 38.5 -22t32.5 -40l155 -242l-172 -232
q-11 -15 -20 -26t-16.5 -18t-15.5 -11t-18 -7q-10 -2 -18.5 -3t-13.5 -1q-12 0 -12 -10q0 -8 13 -8h15q5 0 15 0.5t21 1t21.5 1t16.5 0.5q8 0 21.5 -0.5l27 -1t24 -1t12.5 -0.5h16q18 0 18 8q0 4 -3.5 7t-7.5 3q-5 0 -10 0.5t-9 0.5q-6 0 -11 3.5t-6 9.5q-1 13 13 36
l129 200q30 -49 65.5 -107t73.5 -121q5 -8 2.5 -12.5t-5.5 -5.5q-12 -3 -12 -11q0 -5 7 -6.5t24 -2.5q27 -1 53 -1.5t47 -0.5h38h25h26q17 0 17 9t-11 9q-6 0 -15.5 1t-18.5 4q-14 5 -25.5 12.5t-22.5 21.5q-6 7 -20.5 29t-34 51.5t-41.5 63.5t-42 65.5t-35.5 56t-22.5 34.5
z" />
    <glyph glyph-name="y" unicode="y" horiz-adv-x="590" 
d="M239 148q0 -11 -0.5 -34.5t-2.5 -50.5q-2 -19 -7.5 -30.5t-19.5 -14.5q-12 -3 -31 -3q-8 0 -11 -3t-3 -6q0 -9 19 -9q12 0 28.5 0.5t32.5 1t30.5 1t22.5 0.5q9 0 24 -0.5t33.5 -1t39 -1t41.5 -0.5q19 0 19 9q0 3 -3.5 6t-11.5 3q-9 0 -21.5 0.5t-22.5 2.5q-20 3 -27 14.5
t-9 30.5q-2 27 -2 50v35v68q0 21 0.5 41.5t10.5 43.5q4 9 16 30.5t29 48.5t36 57.5t36.5 58t32 48t21.5 29.5q14 17 23 25t23 15q22 10 38 10q17 0 17 10q0 7 -16 7q-6 0 -19 -0.5t-28 -0.5q-14 0 -27 -0.5t-20 -0.5q-20 0 -42 1t-44 1q-15 0 -15 -8q0 -5 5 -6.5t11 -3.5
q11 -2 15 -7.5t4 -11.5q0 -18 -13 -45q-3 -7 -13.5 -25t-24 -41.5t-29 -50t-29 -49.5t-23 -40t-12.5 -22q-4 6 -15 25t-26 44.5t-31.5 54.5t-31.5 54.5t-26.5 44.5t-15.5 26q-11 19 -11 29t12 13q11 3 15.5 4.5t4.5 6.5q0 8 -13 8q-30 0 -58 -1t-42 -1q-11 0 -27.5 0.5
t-33.5 0.5q-16 0 -29.5 0.5t-19.5 0.5q-17 0 -17 -8q0 -9 13 -9q8 0 18.5 -3t18.5 -8q13 -7 26.5 -22t30.5 -38q8 -11 22 -32.5t31 -48t35 -54t32.5 -51t24.5 -40t12 -19.5q9 -19 14.5 -36.5t5.5 -52.5v-70z" />
    <glyph glyph-name="z" unicode="z" horiz-adv-x="625" 
d="M201 51q94 135 190 277.5t188 286.5q2 5 3.5 8t1.5 8q0 7 -15 7h-271h-63t-99 2q-17 1 -23 3.5t-12 2.5q-9 0 -10 -16q-2 -10 -5 -27.5t-6 -36.5t-5 -35.5t-2 -23.5q0 -14 9 -14q4 0 6.5 3t4.5 12q2 15 13.5 34t33.5 31q21 11 56 13t69 2h166q-89 -132 -182.5 -272.5
t-187.5 -281.5q-8 -11 -9.5 -16t-1.5 -9q0 -9 15 -9q134 0 248.5 -2t225.5 -2q12 0 17.5 5.5t9.5 16.5q2 8 5 21t5.5 28t4.5 29.5t2 25.5q0 15 -2 20.5t-7 5.5q-7 0 -10 -14q-2 -9 -6.5 -19t-9.5 -20q-11 -20 -40 -32t-96 -12h-211z" />
    <glyph glyph-name="braceleft" unicode="{" horiz-adv-x="360" 
d="M136 351q10 3 21.5 10.5t21.5 17.5t18 22.5t11 25.5q4 15 6 32.5t2.5 39t0 48t-0.5 60.5q0 32 9 54.5t22 37.5t26.5 22t22.5 9l13.5 3t4.5 6q0 7 -20 7q-27 0 -56.5 -10t-52.5 -31q-14 -13 -26 -28t-20.5 -35.5t-13 -47.5t-4.5 -65q0 -19 5 -50t5 -59q0 -17 -2 -30
t-10 -19q-14 -12 -30 -13t-27 -2q-14 -1 -14 -11q0 -5 3 -6.5t11 -3.5q21 -3 36.5 -7.5t23.5 -17.5q7 -10 7 -30q0 -9 -1.5 -22.5t-3 -28.5t-2.5 -29.5t-1 -26.5q0 -53 4.5 -90.5t11.5 -63.5t16 -43.5t19 -30.5q14 -19 29 -32t29.5 -20.5t27 -11t21.5 -3.5q23 0 29.5 1
t6.5 6t-5 7t-19 6q-13 3 -26.5 14.5t-24 37t-17.5 67.5t-7 105v48t-0.5 38t-3 32.5t-6.5 31.5q-8 30 -29 50t-41 28v1z" />
    <glyph glyph-name="bar" unicode="|" horiz-adv-x="500" 
d="M281 -250v1000h-61v-1000h61z" />
    <glyph glyph-name="braceright" unicode="}" horiz-adv-x="360" 
d="M224 350q-20 -8 -41 -28t-29 -50q-5 -16 -7 -31.5t-2.5 -32.5t-0.5 -38v-48q0 -63 -7 -105t-17.5 -67.5t-24 -37t-26.5 -14.5q-14 -4 -19 -6t-5 -7t6.5 -6t29.5 -1q9 0 21.5 3.5t27 11t29.5 20.5t29 32q10 13 19 30.5t16 43.5t11.5 63.5t4.5 90.5q0 12 -1.5 26.5t-3 29.5
t-2.5 28.5t-1 22.5q0 20 7 30q8 13 23.5 17.5t36.5 7.5q8 2 11 3.5t3 6.5q0 10 -14 11q-11 1 -27 2t-30 13q-8 6 -10 19t-2 30q0 28 5 59t5 50q0 38 -4.5 65t-13 47.5t-20.5 35.5t-26 28q-23 21 -52.5 31t-56.5 10q-20 0 -20 -7q0 -5 4.5 -6l13.5 -3t22.5 -9t26.5 -22
t22 -37.5t9 -54.5q0 -34 -0.5 -60.5t0 -48t2.5 -39t6 -32.5q3 -13 11 -25.5t18 -23t21.5 -18t21.5 -10.5z" />
    <glyph glyph-name="asciitilde" unicode="~" horiz-adv-x="549" 
d="M512 342h-57q-1 -39 -13.5 -61t-36.5 -22t-53.5 11.5t-64.5 28.5q-23 11 -41 19t-33.5 13.5t-30 8t-29.5 2.5q-51 0 -84.5 -34.5t-31.5 -110.5h57q2 43 16 63t38 20t53 -12t63 -29q47 -23 77 -33t59 -10q23 0 44 7t37 24t24.5 45t6.5 70z" />
    <glyph glyph-name="uni00A0" unicode="&#xa0;" horiz-adv-x="300" 
 />
    <glyph glyph-name="exclamdown" unicode="&#xa1;" horiz-adv-x="320" 
d="M162 466q-8 0 -10.5 -8t-4.5 -24q-1 -6 -4 -39t-7.5 -79.5t-9.5 -99t-9.5 -98t-8 -77t-3.5 -36.5q-5 -56 -10.5 -89t-5.5 -40q0 -13 9 -13q16 0 38 10q20 8 46.5 24.5t43.5 38.5q5 8 5 16q0 5 -3 11t-5 15q-3 14 -7 41.5t-7 56.5t-5 52.5t-2 29.5q-1 4 -2.5 22t-4 44.5
t-5.5 57.5t-5.5 59.5t-4.5 52.5l-3 36q-2 17 -4.5 26.5t-10.5 9.5zM169 647q-26 0 -41.5 -17.5t-15.5 -42.5q0 -24 16 -38.5t40 -14.5q30 0 43 19.5t13 37.5q0 19 -13 37.5t-42 18.5z" />
    <glyph glyph-name="cent" unicode="&#xa2;" horiz-adv-x="600" 
d="M388 585q37 0 61.5 -12t35.5 -25q11 -14 16.5 -29t7.5 -37q2 -11 9 -11q9 0 10 11q1 10 2 24t2 28.5t1.5 28t0.5 22.5q0 12 -1 15.5t-6 5.5q-37 14 -74.5 20t-57.5 6l14 108q2 8 -11 6l-32 -4q-6 -1 -7.5 -3t-2.5 -7l-11 -100q-67 0 -115.5 -16.5t-90.5 -51.5
q-11 -9 -24.5 -25.5t-25.5 -39.5t-20 -53t-8 -66q0 -54 16.5 -98t46.5 -77t71.5 -54t90.5 -30l-18 -150q-2 -8 9 -6l37 5q7 1 8 11l14 134q11 -1 20 -1h25q20 0 55 3.5t68 13.5q7 2 9.5 5.5t4.5 11.5q2 10 4 25.5t4 32t3.5 31t1.5 20.5q0 12 -8 12q-9 0 -13 -16
q-7 -27 -19 -44t-28 -26.5t-35.5 -12.5t-42.5 -3q-19 0 -42 4zM293 182q-17 6 -38.5 23t-40 45.5t-31.5 67.5t-13 89q0 37 13 70.5t35.5 58t53.5 38t66 11.5z" />
    <glyph glyph-name="sterling" unicode="&#xa3;" horiz-adv-x="600" 
d="M404 359q14 0 18.5 1.5t6.5 6.5l12 34q4 10 -7 10q-4 0 -14 -2t-30 -2h-126l19 135q14 94 51.5 138t90.5 44q63 0 92 -37q11 -14 17 -37t7 -37q0 -16 10 -16q8 0 10 14q2 12 5 46t3 72q0 20 -10 21q-7 1 -13 2t-14 3q-16 5 -39.5 8.5t-50.5 3.5q-44 0 -85.5 -11
t-87.5 -51q-27 -22 -45 -50t-30.5 -60t-20.5 -66.5t-13 -69.5l-8 -53h-77q-13 0 -15 -7l-10 -29q-3 -12 3 -12q4 0 8 1t14 1h71l-13 -108q-5 -44 -12.5 -81t-20.5 -65.5t-32 -47.5t-48 -26q-15 -4 -22.5 -8t-7.5 -12t7.5 -10t22.5 -2h202q49 0 84.5 -0.5t64.5 -1.5
q29 -2 54.5 -2.5t53.5 -0.5q21 0 33 0.5t18 3t8 6.5t4 10q4 17 8 40t6 44.5t3.5 38.5t1.5 23q0 10 -2 13t-7 3q-8 0 -11 -12q-4 -24 -12.5 -40t-25 -26t-42 -14.5t-63.5 -4.5l-253 -3l-2 7q30 25 50 57.5t33 65.5t19 61.5t8 45.5l5 45h146z" />
    <glyph glyph-name="currency" unicode="&#xa4;" horiz-adv-x="600" 
d="M535 524l-49 50l-72 -76q-21 18 -50.5 28.5t-64.5 10.5h-1q-33 0 -63 -10.5t-52 -29.5l-70 77l-48 -50l77 -72q-15 -21 -26.5 -51.5t-11.5 -71.5q0 -38 11 -69t26 -51l-74 -71l47 -49l68 76q20 -19 51.5 -29t62.5 -10q30 0 62 10.5t55 31.5l69 -79l49 49l-77 74
q14 20 24.5 50.5t10.5 72.5q0 37 -10 67t-24 50zM410 334q0 -37 -10 -63.5t-26.5 -43t-37 -24t-40.5 -7.5q-19 0 -39 8t-36.5 24.5t-27 42t-10.5 60.5q0 28 8 53t22.5 43.5t35.5 29t47 10.5h1q27 0 48 -11t35.5 -29.5t22 -42.5t7.5 -50z" />
    <glyph glyph-name="yen" unicode="&#xa5;" horiz-adv-x="600" 
d="M348 286h153q11 0 13 8l7 30q2 10 -8 10h-161q9 19 24.5 48.5t34 64t38 70.5t37.5 68t32.5 56t22.5 34q16 20 26 31.5t26 18.5q10 5 22.5 7t23.5 2q15 0 15 10q0 9 -16 9q-8 0 -22.5 -0.5t-30.5 -1t-29.5 -1t-18.5 -0.5q-17 0 -39 1.5t-50 1.5q-14 0 -14 -10q0 -5 4 -7
t12 -4q16 -4 20.5 -9.5t4.5 -10.5q0 -24 -13 -54q-5 -12 -24 -49t-41.5 -81t-44.5 -84.5t-32 -59.5q-4 8 -16 31t-28.5 53.5t-35 64.5t-35 64.5t-29 53t-15.5 29.5q-11 24 -11 34q0 6 3.5 11t13.5 7q19 3 19 11q0 10 -14 10q-35 0 -61.5 -1.5t-45.5 -1.5q-7 0 -22.5 0.5
t-32.5 1t-32.5 1t-22.5 0.5q-17 0 -17 -10q0 -9 13 -9q8 0 20.5 -2.5t25.5 -9.5q14 -8 30.5 -25.5t32.5 -45.5q8 -14 22.5 -39t32.5 -56t37.5 -64.5t37 -64.5t31.5 -55.5t20 -37.5h-142q-10 0 -11 -6l-9 -34q-2 -8 6 -8h162v-121v-51q0 -26 -1 -43q-1 -23 -11.5 -35.5
t-35.5 -16.5q-11 -2 -25.5 -2.5t-25.5 -0.5q-13 0 -13 -10q0 -5 3 -7t12 -2q24 0 47.5 0.5t43 1t34 1t21.5 0.5t22 -0.5t35 -1t43.5 -1t48.5 -0.5q14 0 14 9q0 10 -14 10q-11 0 -25 0.5t-25 2.5q-25 4 -35 16.5t-11 35.5q-1 17 -1 43v51v121z" />
    <glyph glyph-name="brokenbar" unicode="&#xa6;" horiz-adv-x="500" 
d="M281 325v350h-61v-350h61zM281 -175v350h-61v-350h61z" />
    <glyph glyph-name="section" unicode="&#xa7;" horiz-adv-x="596" 
d="M177 476q-15 -8 -33 -24t-34 -38.5t-27 -50t-11 -58.5q0 -34 11 -60.5t32 -50.5t51 -47t67 -48l51 -35q28 -19 45.5 -34t28 -30t14.5 -30.5t4 -36.5t-9 -40t-26 -33t-40.5 -22.5t-51.5 -8.5q-21 0 -42.5 4.5t-41 14t-34.5 25.5t-22 40q-4 11 -6 23.5t-2 20.5
q0 5 -1.5 9.5t-7.5 4.5q-11 0 -11 -22q-1 -11 -3 -44.5t-2 -68.5q0 -14 3 -19t14 -10q29 -13 66.5 -17.5t75.5 -4.5q42 0 82 8t68 27q48 32 68.5 72t20.5 83q0 31 -12 59t-38 60q23 15 41.5 35t32 42.5t20.5 46.5t7 45q0 70 -48 122.5t-132 105.5l-36 23q-29 18 -47 32
t-29 26t-15 24t-4 27q0 25 10.5 44t28 31.5t40 18.5t46.5 6q43 0 65 -14t32 -26q14 -17 18.5 -33.5t4.5 -22.5q0 -15 9 -15q11 0 11 27q0 50 1.5 72t1.5 30t-12 11q-17 5 -49 9.5t-75 4.5q-46 0 -87 -12t-71.5 -34.5t-48.5 -53.5t-18 -70q0 -35 14 -63t42 -57zM216 443
q11 -9 22 -17l22 -16l51 -37q27 -20 50 -35.5t39.5 -31.5t26 -34.5t9.5 -43.5q0 -31 -12.5 -55t-34.5 -42q-13 12 -32 25t-39 26l-36 24q-32 21 -55.5 37t-39 31t-23 31.5t-7.5 39.5q0 21 5.5 36.5t14 27t19 20t20.5 14.5z" />
    <glyph glyph-name="dieresis" unicode="&#xa8;" horiz-adv-x="927" 
d="M568 830q22 0 35 14.5t13 35.5t-13.5 32.5t-33.5 11.5q-24 0 -35 -16t-11 -31q0 -16 10.5 -31.5t34.5 -15.5zM357 830q22 0 35 14.5t13 35.5q0 20 -13.5 31.5t-33.5 11.5q-24 0 -35 -16t-11 -30q0 -16 10.5 -31.5t34.5 -15.5z" />
    <glyph glyph-name="copyright" unicode="&#xa9;" horiz-adv-x="902" 
d="M452 -17q82 0 154.5 30.5t125.5 83.5t84 124.5t31 152.5q0 84 -30 156t-83 124.5t-125 82.5t-157 30q-83 0 -155.5 -31t-126 -84t-84.5 -124.5t-31 -153.5q0 -84 30 -155.5t83 -124t125.5 -82t158.5 -29.5zM119 375q0 73 25 136.5t69.5 109.5t105.5 72.5t133 26.5
q70 0 130.5 -28t105 -75t70 -109.5t25.5 -132.5q0 -72 -25 -135t-69 -109.5t-104.5 -73.5t-132.5 -27q-69 0 -130 27.5t-106 74.5t-71 109.5t-26 133.5zM478 153q12 0 43 1.5t64 10.5q12 3 15 7t6 21q6 29 8.5 50.5t2.5 27.5q0 4 -1 7.5t-6 3.5t-6.5 -3.5t-3.5 -8.5
q-3 -12 -7.5 -25.5t-14.5 -23.5t-30.5 -18t-57.5 -8q-28 0 -58 14t-54.5 41t-40 66.5t-15.5 90.5q0 75 40 117t104 42q25 0 44 -4t33 -10t22.5 -12t12.5 -10q9 -11 13.5 -23t5.5 -24q1 -6 2.5 -10.5t6.5 -4.5q6 0 8 10q1 6 2 19.5t1.5 27.5t1 26t0.5 14q0 8 0.5 13.5
t-1.5 5.5t-5 -0.5t-6 -0.5q-1 0 -8 1.5t-17 3.5t-19.5 4t-15.5 3q-26 5 -48.5 6.5t-33.5 1.5q-57 0 -99.5 -13t-76.5 -44q-10 -9 -21.5 -24.5t-21.5 -36t-16.5 -46t-6.5 -55.5q0 -53 18.5 -96t52.5 -73t80.5 -46t103.5 -16z" />
    <glyph glyph-name="ordfeminine" unicode="&#xaa;" horiz-adv-x="425" 
d="M254 515q4 0 7 -6l33 -77q2 -3 0.5 -6t-3.5 -3q-7 0 -7 -8q0 -5 15 -5q38 -2 64 -2h40t18.5 1.5t4.5 5.5q0 7 -6 7q-5 0 -10.5 0.5t-10.5 1.5q-8 1 -17 9.5t-23 36.5q-9 18 -21 44.5t-25.5 56.5t-27 61t-24.5 57t-19.5 45t-11.5 26q-7 15 -15 15q-4 0 -8 -4t-9 -15
l-139 -296q-8 -17 -16.5 -26t-25.5 -11q-4 0 -8 -0.5t-7 -0.5q-7 0 -7 -7t9 -7q20 0 39 1t30 1q14 0 29 -1t27 -1q9 0 9 7t-8 7h-7q-10 0 -13.5 4.5t-3.5 8.5q0 3 1 9.5t3 13.5l19 51q3 6 7 6h118zM149 549q-5 0 -3 3l42 102q4 10 8 10q3 0 8 -13l40 -99q0 -3 -2 -3h-93z
" />
    <glyph glyph-name="guillemotleft" unicode="&#xab;" horiz-adv-x="550" 
d="M478 127q4 4 4 7q0 2 -3 4.5t-11 10.5q-17 16 -39 37t-42 42t-36.5 38t-22.5 26q8 12 30 39t46 56.5t45 54l27 31.5q6 6 6 13q0 3 -3.5 5.5t-8.5 2.5t-19 -11q-3 -2 -17 -14.5t-33.5 -30.5t-42.5 -38.5t-43.5 -39t-36 -33t-20.5 -18.5q-19 -16 -19 -22q0 -5 4 -9.5
t14 -14.5q7 -8 27 -29t42 -45t42.5 -46.5t29.5 -32.5q17 -20 23.5 -26.5t8.5 -6.5q3 0 10 7zM281 127q4 4 4 7q0 2 -3 4.5t-11 10.5q-17 16 -39 37t-42 42t-36.5 38t-22.5 26q8 12 30 39t46 56.5t45 54l27 31.5q6 6 6 13q0 3 -3.5 5.5t-8.5 2.5t-19 -11q-3 -2 -17 -14.5
t-33.5 -30.5t-42.5 -38.5t-43.5 -39t-36 -33t-20.5 -18.5q-19 -16 -19 -22q0 -5 4 -9.5t14 -14.5q7 -8 27 -29t42 -45t42.5 -46.5t29.5 -32.5q17 -20 23.5 -26.5t8.5 -6.5q3 0 10 7z" />
    <glyph glyph-name="logicalnot" unicode="&#xac;" horiz-adv-x="549" 
d="M509 128v250h-469v-61h405v-189h64z" />
    <glyph glyph-name="uni00AD" unicode="&#xad;" horiz-adv-x="425" 
d="M75 315q-13 0 -17.5 -2t-6.5 -11l-15 -69q-2 -8 0 -13t8 -5t17.5 6t26.5 10q9 2 28.5 6.5t45 9t53.5 10t54 10t46.5 7.5t30.5 5q21 4 33 7.5t12 14.5q0 9 -9 11.5t-23 2.5h-284z" />
    <glyph glyph-name="registered" unicode="&#xae;" horiz-adv-x="206" 
d="M103 591q40 0 66 25t26 62q0 38 -26 63t-66 25t-66 -25t-26 -63q0 -37 26 -62t66 -25zM104 608q-33 0 -53.5 19.5t-20.5 51.5t20.5 51t52.5 19t52.5 -19t20.5 -51t-20 -51.5t-52 -19.5zM65 671q0 -11 0.5 -16.5t-0.5 -9.5q-1 -5 -2.5 -5.5t-8.5 -0.5q-3 0 -3 -3
q0 -2 2.5 -3t4.5 -1h5q2 0 7.5 0.5t7.5 0.5q4 0 9 -0.5t7 -0.5h4q4 0 4 4q0 3 -3 3h-5t-5 1q-1 1 -1.5 4t-0.5 17v9h12l14 -19q11 -15 20 -17t19 -2q6 0 7.5 1t1.5 3q0 3 -3 3q-2 0 -4.5 2t-12.5 13l-18 21q13 9 17 15.5t4 14.5q0 18 -15.5 22.5t-28.5 4.5q-8 0 -12 -0.5
t-11 -0.5q-5 0 -10 0.5t-7 0.5h-4q-5 0 -5 -4q0 -3 2 -3q12 0 12 -7v-25v-22zM87 719q2 2 5 2h4q11 0 17 -6.5t6 -15.5q0 -12 -9 -17q-3 -2 -9 -2q-3 0 -7.5 0.5t-6.5 2.5v36z" />
    <glyph glyph-name="macron" unicode="&#xaf;" horiz-adv-x="927" 
d="M578 857q9 0 11 6l8 36q3 10 -8 10h-240q-8 0 -11 -9l-8 -36q-1 -7 8 -7h240z" />
    <glyph glyph-name="degree" unicode="&#xb0;" horiz-adv-x="363" 
d="M311 579q0 25 -9 47.5t-25.5 39.5t-40 27.5t-53.5 10.5h-1q-27 0 -51 -10t-41.5 -27.5t-27.5 -41.5t-10 -51q0 -25 9.5 -47.5t26 -40t40 -27.5t52.5 -10q25 0 49 9.5t42 26.5t29 41t11 53zM255 577q0 -34 -21 -56.5t-53 -22.5t-52.5 22.5t-20.5 54.5q0 15 4.5 29.5
t13.5 26t22.5 18.5t31.5 7h1q19 0 33 -7.5t23 -18.5t13.5 -25.5t4.5 -27.5z" />
    <glyph glyph-name="plusminus" unicode="&#xb1;" horiz-adv-x="549" 
d="M509 317v61h-203v204h-64v-204h-202v-61h202v-203h64v203h203zM509 0v61h-469v-61h469z" />
    <glyph glyph-name="twosuperior" unicode="&#xb2;" horiz-adv-x="444" 
d="M309 305q21 0 32.5 3.5t16.5 13.5q4 12 8 26.5t7.5 27.5t5.5 23.5t2 14.5q0 9 -6 9t-10 -10q-8 -24 -23.5 -36t-50.5 -15q-4 0 -21 -1t-36.5 -1.5t-36.5 -1t-21 -0.5h-29q-2 0 -2.5 1.5t1.5 3.5q49 40 89.5 74.5t69 68.5t44 68.5t15.5 74.5q0 22 -10 43.5t-30 38
t-51 26.5t-74 10q-39 0 -68.5 -7t-51.5 -18q-5 -2 -6 -4.5t-1 -9.5q0 -6 0.5 -18t1 -23t1.5 -19.5l1 -8.5q1 -16 7 -16q9 0 9 11q1 17 6.5 29.5t14.5 21.5q28 28 69 28q13 0 29 -5t30 -17t23 -31.5t9 -47.5q0 -38 -14.5 -73.5t-42.5 -72t-69 -75t-95 -82.5q-3 -3 -7.5 -7
t-4.5 -9q0 -8 11 -8h258z" />
    <glyph glyph-name="threesuperior" unicode="&#xb3;" horiz-adv-x="423" 
d="M151 301q48 0 86.5 12.5t66.5 34t43 49.5t15 59q0 28 -13.5 48.5t-32.5 34.5t-40 22t-36 10v2q11 4 27.5 13.5t31.5 23t26 32t11 40.5q0 11 -5.5 25.5t-21.5 28t-43.5 22.5t-72.5 9q-39 0 -68 -6.5t-45 -11.5q-11 -4 -12.5 -8t-1.5 -8q0 -14 2 -32t4 -32q1 -11 8 -11
q6 0 6 13q0 27 25 45.5t60 18.5q24 0 39.5 -8t24.5 -19t13 -23.5t4 -21.5q0 -24 -11.5 -41.5t-27 -29.5t-30 -18.5t-20.5 -7.5q-20 -3 -20 -12q0 -4 4 -6t18 -4q15 -2 34.5 -9t37 -20.5t28.5 -34t10 -48.5q-1 -25 -10 -43t-23.5 -29.5t-33 -17t-37.5 -5.5q-28 0 -46.5 6
t-30.5 16t-17.5 23.5t-7.5 28.5q-1 10 -8 10q-5 0 -6 -11q-2 -10 -2.5 -30.5t-0.5 -33.5q0 -17 1.5 -22t9.5 -10q11 -6 36.5 -9.5t51.5 -3.5z" />
    <glyph glyph-name="acute" unicode="&#xb4;" horiz-adv-x="927" 
d="M600 972q-4 7 -6.5 9.5t-7.5 2.5q-7 0 -20 -9q-6 -4 -26.5 -18.5t-45 -34t-49.5 -39.5t-40 -34q-9 -9 -9 -13q0 -3 2 -4.5t4 -1.5t6.5 2.5t10.5 5.5q14 7 34.5 16.5t44 18t47.5 15t45 9.5q15 2 22.5 1t11.5 -1t7 3t-2 12q-9 20 -16 34.5t-13 25.5z" />
    <glyph glyph-name="mu" unicode="&#xb5;" horiz-adv-x="576" 
d="M70 150q0 -56 -1 -104.5t-3 -95t-4.5 -94t-6.5 -101.5l15 -5l110 55q-15 38 -28 105t-17 150q11 -23 24 -37.5t28.5 -22.5t36 -11.5t46.5 -3.5q53 0 88.5 31t46.5 84q2 -36 9.5 -58t19 -35t25 -17.5t26.5 -4.5q30 0 52.5 20.5t28.5 55.5l-15 7q-5 -8 -12.5 -15.5
t-21.5 -7.5t-23 13t-9 43v349h-95v-250q0 -41 -7 -68t-20.5 -43t-32 -22.5t-40.5 -6.5q-68 0 -96.5 48t-28.5 142v200h-95v-300z" />
    <glyph glyph-name="mu" unicode="&#x3bc;" horiz-adv-x="576" 
d="M70 150q0 -56 -1 -104.5t-3 -95t-4.5 -94t-6.5 -101.5l15 -5l110 55q-15 38 -28 105t-17 150q11 -23 24 -37.5t28.5 -22.5t36 -11.5t46.5 -3.5q53 0 88.5 31t46.5 84q2 -36 9.5 -58t19 -35t25 -17.5t26.5 -4.5q30 0 52.5 20.5t28.5 55.5l-15 7q-5 -8 -12.5 -15.5
t-21.5 -7.5t-23 13t-9 43v349h-95v-250q0 -41 -7 -68t-20.5 -43t-32 -22.5t-40.5 -6.5q-68 0 -96.5 48t-28.5 142v200h-95v-300z" />
    <glyph glyph-name="paragraph" unicode="&#xb6;" horiz-adv-x="712" 
d="M384 675v-601q0 -36 -0.5 -71t-1 -65.5t-2 -55.5t-2.5 -40q-2 -21 -4 -28.5t-2 -9.5q0 -6 8 -6q6 0 14 2t17 6t17 8t13 9q7 7 6 13q-2 16 -2.5 41.5t-0.5 57.5v67v72v389v93v58v35q0 14 1 29q2 20 13 28.5t28 8.5q22 0 28.5 -11.5t6.5 -27.5v-606q0 -72 -1.5 -123.5
t-3.5 -68.5q-1 -16 -3 -25t-2 -13q0 -5 6 -5q10 0 29.5 8t29.5 17q7 7 7 14q-2 32 -2 78v118v393v95v59q0 23 0.5 36.5t1.5 25.5q2 26 9 37.5t27 16.5q12 3 28 3q8 0 8 8q0 9 -16 9q-17 0 -41 -0.5t-47 -1t-40.5 -1t-21.5 -0.5q-8 0 -28 0.5t-42.5 1t-42 1t-26.5 0.5
q-45 0 -81 -6t-64.5 -16.5t-49.5 -24t-36 -28.5q-26 -25 -47.5 -66.5t-21.5 -94.5q0 -50 19 -91t52.5 -70t79.5 -45t99 -16q4 0 10.5 0.5t10.5 1.5t8 3.5t4 6.5q0 8 -5.5 10t-18.5 10q-30 20 -48 70.5t-18 119.5q0 12 1.5 30t5 38t10.5 40t18 37q18 29 42 41t44 12
q14 0 17 -10t3 -30z" />
    <glyph glyph-name="periodcentered" unicode="&#xb7;" horiz-adv-x="250" 
d="M124 207q29 0 45.5 19t16.5 45t-17.5 42t-43.5 16q-16 0 -27.5 -6t-19 -15t-11 -20t-3.5 -20q0 -21 14 -41t46 -20z" />
    <glyph glyph-name="cedilla" unicode="&#xb8;" horiz-adv-x="927" 
d="M480 0l-94 -70q-10 -8 -13 -10.5t-3 -4.5q0 -5 22 -8q25 -4 40.5 -12t24 -18t11.5 -21.5t3 -21.5q0 -16 -8.5 -28.5t-21 -21t-27.5 -13t-27 -4.5q-11 0 -18.5 -3t-7.5 -10q0 -5 5 -7.5t12 -2.5q54 0 89.5 11t56.5 27.5t29.5 35t8.5 33.5q0 34 -31.5 54.5t-86.5 25.5
l93 69h-57z" />
    <glyph glyph-name="onesuperior" unicode="&#xb9;" horiz-adv-x="340" 
d="M136 485q0 -38 -0.5 -72.5t-2.5 -54.5q-2 -13 -7 -20.5t-23 -11.5q-5 -1 -13.5 -2t-17 -1.5t-16 -1t-10.5 -0.5q-14 0 -14 -9t18 -9q37 0 70.5 1t50.5 1q20 0 50 -1t71 -1q18 0 18 10q0 5 -4.5 6.5t-10.5 1.5q-5 0 -21 1.5t-25 3.5q-17 4 -22 11.5t-7 20.5
q-2 20 -2.5 54.5t-0.5 72.5v110q0 74 1.5 111.5t1.5 47.5q0 13 -8 13q-5 0 -11.5 -3.5t-15.5 -8.5q-4 -2 -16.5 -10t-29.5 -18.5t-36 -22t-35.5 -21.5t-27.5 -16.5t-12 -7.5q-5 -3 -5 -8q0 -4 2 -6.5t4 -2.5q5 0 11 3t17.5 8t24.5 10.5t24.5 9.5t16.5 4q10 0 12 -18
q1 -9 1 -25v-39v-110z" />
    <glyph glyph-name="ordmasculine" unicode="&#xba;" horiz-adv-x="472" 
d="M233 405q48 0 87 14.5t66 40t41.5 60t14.5 74.5q0 81 -54.5 127t-149.5 46q-57 0 -96.5 -17t-64 -43.5t-36 -58.5t-11.5 -62q0 -32 11.5 -64t36 -58t63 -42.5t92.5 -16.5zM352 579q0 -47 -11.5 -75.5t-27.5 -43.5t-33.5 -19.5t-30.5 -4.5q-27 0 -50.5 13.5t-41 35.5
t-27.5 51t-10 61q0 41 9.5 68t24.5 42.5t33 22t36 6.5q28 0 51.5 -11.5t40.5 -32t27 -49.5t10 -64z" />
    <glyph glyph-name="guillemotright" unicode="&#xbb;" horiz-adv-x="550" 
d="M72 444q-4 -4 -4 -7q0 -2 3 -4.5t11 -10.5q17 -16 39 -37t42 -42t36.5 -38t22.5 -26q-5 -8 -17 -23.5t-27 -34t-31.5 -38.5t-31.5 -37.5t-26 -30.5t-15 -17q-6 -6 -6 -13q0 -3 3.5 -5.5t8.5 -2.5t19 11q3 2 17 14.5t33.5 30.5t42.5 38.5t43.5 39t36 32.5t20.5 19
q11 9 15 14.5t4 7.5q0 5 -4 9.5t-14 14.5q-8 7 -27.5 28.5t-41.5 45.5t-42.5 46.5t-29.5 32.5q-17 20 -23.5 26.5t-8.5 6.5q-3 0 -10 -7zM269 444q-4 -4 -4 -7q0 -2 3 -4.5t11 -10.5q17 -16 39 -37t42 -42t36.5 -38t22.5 -26q-5 -8 -17 -23.5t-27 -34t-31.5 -38.5
t-31.5 -37.5t-26 -30.5t-15 -17q-6 -6 -6 -13q0 -3 3.5 -5.5t8.5 -2.5t19 11q3 2 17 14.5t33.5 30.5t42.5 38.5t43.5 39t36 32.5t20.5 19q11 9 15 14.5t4 7.5q0 5 -4 9.5t-14 14.5q-8 7 -27.5 28.5t-41.5 45.5t-42.5 46.5t-29.5 32.5q-17 20 -23.5 26.5t-8.5 6.5
q-3 0 -10 -7z" />
    <glyph glyph-name="onequarter" unicode="&#xbc;" horiz-adv-x="841" 
d="M802 170q0 7 -6 7q-2 0 -10.5 -3.5t-22.5 -3.5h-54v282q0 10 -10 10q-9 0 -18 -11q-6 -7 -27.5 -30t-50.5 -55t-62 -67.5t-61.5 -67t-49.5 -54t-25 -27.5q-2 -2 -6 -7t-4 -10q0 -4 4 -7.5t10 -3.5h227v-11v-20q0 -11 -0.5 -23t-0.5 -22q-1 -14 -6.5 -20t-22.5 -8
q-8 -1 -16.5 -2t-12.5 -1q-8 0 -8 -8q0 -2 1.5 -5.5t6.5 -3.5q27 0 51.5 1t27.5 1q2 0 14 -0.5t28 -0.5t33.5 -0.5t31.5 -0.5q5 0 7.5 3.5t2.5 5.5t-2 5t-4 3q-5 0 -13.5 1t-15.5 2q-16 2 -21 8t-7 20q-1 10 -1 22v23v20v11h69q10 0 13 8q1 4 3 10.5t3.5 12.5t3 11t1.5 6z
M636 170h-166l162 177h4v-177zM714 744l-30 20q-4 2 -6.5 1.5t-6.5 -5.5l-536 -737q-9 -12 -2 -17l29 -21q5 -4 12 5l539 742q6 9 1 12zM310 313q0 5 -4.5 6.5t-10.5 1.5q-5 0 -21 1.5t-25 3.5q-17 4 -22 11.5t-7 20.5q-2 20 -2.5 54.5t-0.5 72.5v110q0 74 1.5 111.5
t1.5 47.5q0 13 -8 13q-5 0 -11.5 -3.5t-15.5 -8.5q-4 -2 -16.5 -10t-29.5 -18.5t-36 -22t-35.5 -21.5t-27.5 -16.5t-12 -7.5q-5 -3 -5 -8q0 -4 2 -6.5t4 -2.5q5 0 11 3t17.5 8t24.5 10.5t24.5 9.5t16.5 4q10 0 12 -18q1 -9 1 -25v-39v-110q0 -38 -0.5 -72.5t-2.5 -54.5
q-2 -13 -7 -20.5t-23 -11.5q-5 -1 -13.5 -2t-17 -1.5t-16 -1t-10.5 -0.5q-14 0 -14 -9t18 -9q37 0 70.5 1t50.5 1q20 0 50 -1t71 -1q18 0 18 10z" />
    <glyph glyph-name="onehalf" unicode="&#xbd;" horiz-adv-x="924" 
d="M861 109q0 9 -6 9t-10 -10q-8 -24 -23.5 -36t-50.5 -15q-4 0 -21 -1t-36.5 -1.5t-36.5 -1t-21 -0.5h-29q-2 0 -2.5 1.5t1.5 3.5q49 40 89.5 74.5t69 68.5t44 68.5t15.5 74.5q0 22 -10 43.5t-30 38t-51 26.5t-74 10q-39 0 -68.5 -7t-51.5 -18q-5 -2 -6 -4.5t-1 -9.5
q0 -6 0.5 -18t1 -23t1.5 -19.5l1 -8.5q1 -16 7 -16q9 0 9 11q1 17 6.5 29.5t14.5 21.5q28 28 69 28q13 0 29 -5t30 -17t23 -31.5t9 -47.5q0 -38 -14.5 -73.5t-42.5 -72t-69 -75t-95 -82.5q-3 -3 -7.5 -7t-4.5 -9q0 -8 11 -8h258q21 0 32.5 3.5t16.5 13.5q4 12 8 26.5
t7.5 27.5t5.5 23.5t2 14.5zM714 744l-30 20q-4 2 -6.5 1.5t-6.5 -5.5l-536 -737q-9 -12 -2 -17l29 -21q5 -4 12 5l539 742q6 9 1 12zM310 313q0 5 -4.5 6.5t-10.5 1.5q-5 0 -21 1.5t-25 3.5q-17 4 -22 11.5t-7 20.5q-2 20 -2.5 54.5t-0.5 72.5v110q0 74 1.5 111.5t1.5 47.5
q0 13 -8 13q-5 0 -11.5 -3.5t-15.5 -8.5q-4 -2 -16.5 -10t-29.5 -18.5t-36 -22t-35.5 -21.5t-27.5 -16.5t-12 -7.5q-5 -3 -5 -8q0 -4 2 -6.5t4 -2.5q5 0 11 3t17.5 8t24.5 10.5t24.5 9.5t16.5 4q10 0 12 -18q1 -9 1 -25v-39v-110q0 -38 -0.5 -72.5t-2.5 -54.5
q-2 -13 -7 -20.5t-23 -11.5q-5 -1 -13.5 -2t-17 -1.5t-16 -1t-10.5 -0.5q-14 0 -14 -9t18 -9q37 0 70.5 1t50.5 1q20 0 50 -1t71 -1q18 0 18 10z" />
    <glyph glyph-name="threequarters" unicode="&#xbe;" horiz-adv-x="882" 
d="M842 170q0 7 -6 7q-2 0 -10.5 -3.5t-22.5 -3.5h-54v282q0 10 -10 10q-9 0 -18 -11q-6 -7 -27.5 -30t-50.5 -55t-62 -67.5t-61.5 -67t-49.5 -54t-25 -27.5q-2 -2 -6 -7t-4 -10q0 -4 4 -7.5t10 -3.5h227v-11v-20q0 -11 -0.5 -23t-0.5 -22q-1 -14 -6.5 -20t-22.5 -8
q-8 -1 -16.5 -2t-12.5 -1q-8 0 -8 -8q0 -2 1.5 -5.5t6.5 -3.5q27 0 51.5 1t27.5 1q2 0 14 -0.5t28 -0.5t33.5 -0.5t31.5 -0.5q5 0 7.5 3.5t2.5 5.5t-2 5t-4 3q-5 0 -13.5 1t-15.5 2q-16 2 -21 8t-7 20q-1 10 -1 22v23v20v11h69q10 0 13 8q1 4 3 10.5t3.5 12.5t3 11t1.5 6z
M676 170h-166l162 177h4v-177zM754 744l-30 20q-4 2 -6.5 1.5t-6.5 -5.5l-536 -737q-9 -12 -2 -17l29 -21q5 -4 12 5l539 742q6 9 1 12zM362 456q0 28 -13.5 48.5t-32.5 34.5t-40 22t-36 10v2q11 4 27.5 13.5t31.5 23t26 32t11 40.5q0 11 -5.5 25.5t-21.5 28t-43.5 22.5
t-72.5 9q-39 0 -68 -6.5t-45 -11.5q-11 -4 -12.5 -8t-1.5 -8q0 -14 2 -32t4 -32q1 -11 8 -11q6 0 6 13q0 27 25 45.5t60 18.5q24 0 39.5 -8t24.5 -19t13 -23.5t4 -21.5q0 -24 -11.5 -41.5t-27 -29.5t-30 -18.5t-20.5 -7.5q-20 -3 -20 -12q0 -4 4 -6t18 -4q15 -2 34.5 -9
t37 -20.5t28.5 -34t10 -48.5q-1 -25 -10 -43t-23.5 -29.5t-33 -17t-37.5 -5.5q-28 0 -46.5 6t-30.5 16t-17.5 23.5t-7.5 28.5q-1 10 -8 10q-5 0 -6 -11q-2 -10 -2.5 -30.5t-0.5 -33.5q0 -17 1.5 -22t9.5 -10q11 -6 36.5 -9.5t51.5 -3.5q48 0 86.5 12.5t66.5 34t43 49.5
t15 59z" />
    <glyph glyph-name="questiondown" unicode="&#xbf;" horiz-adv-x="532" 
d="M282 -137q66 0 110 13t67 27q8 5 9.5 8t1.5 8v33t-0.5 35t-1.5 30.5t-2 18.5q-2 6 -3.5 9.5t-6.5 3.5t-6.5 -6t-2.5 -14q-2 -18 -10 -39.5t-25 -43.5q-12 -15 -36 -27t-59 -12q-34 0 -57 11.5t-36.5 29.5t-19.5 40.5t-6 44.5q0 25 4.5 47t14.5 46t27 51t42 61
q14 20 31.5 39t34.5 41q11 15 15.5 27.5t4.5 23.5q0 14 -9 27.5t-36 35.5q-17 14 -31 22.5t-20 8.5q-5 0 -7 -3t-2 -5q0 -6 8 -18q8 -11 12 -25t4 -26q0 -28 -51 -88q-29 -34 -59.5 -65t-55 -64t-40 -71t-15.5 -85q0 -23 10 -49t34 -48.5t65 -37.5t103 -15zM296 647
q-26 0 -41.5 -17.5t-15.5 -42.5q0 -24 16 -38.5t40 -14.5q30 0 43 19.5t13 37.5q0 19 -13 37.5t-42 18.5z" />
    <glyph glyph-name="Agrave" unicode="&#xc0;" horiz-adv-x="700" 
d="M427 258q7 0 10 -7l80 -212q4 -9 0 -15t-9 -8q-14 -1 -14 -9q0 -5 8 -6t22 -2q60 -2 111 -2h78q28 0 37 2t9 8q0 8 -13 8q-9 0 -20 1t-22 3q-8 2 -17.5 6.5t-20.5 16t-23.5 32t-26.5 54.5q-16 38 -39 94.5t-48.5 120.5t-51.5 129t-48 121t-38.5 96t-22.5 54
q-14 32 -25 32q-8 0 -13.5 -9t-14.5 -31l-251 -628q-15 -38 -32.5 -61.5t-52.5 -28.5q-6 -1 -15 -1.5t-16 -0.5q-12 0 -12 -8q0 -10 19 -10t38.5 0.5t36 1t28 1t15.5 0.5q23 0 52.5 -1.5t53.5 -1.5q17 0 17 10q0 5 -3 6.5t-12 1.5h-15q-23 0 -31.5 8.5t-8.5 22.5
q0 9 3.5 25.5t11.5 35.5l54 143q3 8 9 8h223zM224 308q-6 0 -4 7l92 246q1 3 2.5 6t3.5 3t3 -3l2 -6l90 -247q2 -6 -5 -6h-184zM424 837q0 5 -6.5 8.5t-14.5 9.5q-17 12 -35.5 28t-34 31t-27 26.5t-14.5 16.5q-8 11 -10 16.5t-6 5.5t-7.5 -1.5t-11.5 -5.5q-5 -2 -13.5 -5.5
t-18 -7l-19 -7t-16.5 -5.5q-13 -3 -13 -9q0 -5 9.5 -12t23.5 -13q4 -2 20 -9t37 -16t45 -19.5t45.5 -19t36.5 -14t19 -5.5q3 0 7 1.5t4 5.5z" />
    <glyph glyph-name="Aacute" unicode="&#xc1;" horiz-adv-x="700" 
d="M427 258q7 0 10 -7l80 -212q4 -9 0 -15t-9 -8q-14 -1 -14 -9q0 -5 8 -6t22 -2q60 -2 111 -2h78q28 0 37 2t9 8q0 8 -13 8q-9 0 -20 1t-22 3q-8 2 -17.5 6.5t-20.5 16t-23.5 32t-26.5 54.5q-16 38 -39 94.5t-48.5 120.5t-51.5 129t-48 121t-38.5 96t-22.5 54
q-14 32 -25 32q-8 0 -13.5 -9t-14.5 -31l-251 -628q-15 -38 -32.5 -61.5t-52.5 -28.5q-6 -1 -15 -1.5t-16 -0.5q-12 0 -12 -8q0 -10 19 -10t38.5 0.5t36 1t28 1t15.5 0.5q23 0 52.5 -1.5t53.5 -1.5q17 0 17 10q0 5 -3 6.5t-12 1.5h-15q-23 0 -31.5 8.5t-8.5 22.5
q0 9 3.5 25.5t11.5 35.5l54 143q3 8 9 8h223zM224 308q-6 0 -4 7l92 246q1 3 2.5 6t3.5 3t3 -3l2 -6l90 -247q2 -6 -5 -6h-184zM487 972q-4 7 -6.5 9.5t-7.5 2.5q-7 0 -20 -9q-6 -4 -26.5 -18.5t-45 -34t-49.5 -39.5t-40 -34q-9 -9 -9 -13q0 -3 2 -4.5t4 -1.5t6.5 2.5
t10.5 5.5q14 7 34.5 16.5t44 18t47.5 15t45 9.5q15 2 22.5 1t11.5 -1t7 3t-2 12q-9 20 -16 34.5t-13 25.5z" />
    <glyph glyph-name="Acircumflex" unicode="&#xc2;" horiz-adv-x="700" 
d="M427 258q7 0 10 -7l80 -212q4 -9 0 -15t-9 -8q-14 -1 -14 -9q0 -5 8 -6t22 -2q60 -2 111 -2h78q28 0 37 2t9 8q0 8 -13 8q-9 0 -20 1t-22 3q-8 2 -17.5 6.5t-20.5 16t-23.5 32t-26.5 54.5q-16 38 -39 94.5t-48.5 120.5t-51.5 129t-48 121t-38.5 96t-22.5 54
q-14 32 -25 32q-8 0 -13.5 -9t-14.5 -31l-251 -628q-15 -38 -32.5 -61.5t-52.5 -28.5q-6 -1 -15 -1.5t-16 -0.5q-12 0 -12 -8q0 -10 19 -10t38.5 0.5t36 1t28 1t15.5 0.5q23 0 52.5 -1.5t53.5 -1.5q17 0 17 10q0 5 -3 6.5t-12 1.5h-15q-23 0 -31.5 8.5t-8.5 22.5
q0 9 3.5 25.5t11.5 35.5l54 143q3 8 9 8h223zM224 308q-6 0 -4 7l92 246q1 3 2.5 6t3.5 3t3 -3l2 -6l90 -247q2 -6 -5 -6h-184zM356 981q-8 0 -21 -12q-4 -3 -14 -12.5t-24 -22.5t-29.5 -27t-28.5 -27t-23 -22.5t-13 -12.5q-9 -11 -9 -15q0 -10 9 -10q7 0 20 12
q11 10 25 20.5t28.5 20.5t28 18.5t24.5 14.5q10 5 15 5t13 -6q4 -3 15.5 -12t25.5 -20.5t27 -23t20 -18.5q11 -11 15 -11q6 0 13 7l29 29q5 5 5 10q0 2 -3 5t-11 9q-6 4 -24 17.5t-38 29t-37 28t-20 15.5q-15 11 -18 11z" />
    <glyph glyph-name="Atilde" unicode="&#xc3;" horiz-adv-x="700" 
d="M427 258q7 0 10 -7l80 -212q4 -9 0 -15t-9 -8q-14 -1 -14 -9q0 -5 8 -6t22 -2q60 -2 111 -2h78q28 0 37 2t9 8q0 8 -13 8q-9 0 -20 1t-22 3q-8 2 -17.5 6.5t-20.5 16t-23.5 32t-26.5 54.5q-16 38 -39 94.5t-48.5 120.5t-51.5 129t-48 121t-38.5 96t-22.5 54
q-14 32 -25 32q-8 0 -13.5 -9t-14.5 -31l-251 -628q-15 -38 -32.5 -61.5t-52.5 -28.5q-6 -1 -15 -1.5t-16 -0.5q-12 0 -12 -8q0 -10 19 -10t38.5 0.5t36 1t28 1t15.5 0.5q23 0 52.5 -1.5t53.5 -1.5q17 0 17 10q0 5 -3 6.5t-12 1.5h-15q-23 0 -31.5 8.5t-8.5 22.5
q0 9 3.5 25.5t11.5 35.5l54 143q3 8 9 8h223zM224 308q-6 0 -4 7l92 246q1 3 2.5 6t3.5 3t3 -3l2 -6l90 -247q2 -6 -5 -6h-184zM421 830q18 0 34 9.5t29 22t22.5 25t12.5 18.5q2 5 4 9t2 8q0 8 -8 8q-6 0 -16 -13q-2 -2 -6.5 -7t-12 -10t-18.5 -9t-24 -4q-18 0 -35.5 5.5
t-36.5 16.5q-17 10 -35.5 19t-44.5 9q-18 0 -34.5 -8.5t-30 -21t-23.5 -25.5t-16 -22q-2 -3 -5 -9t-3 -10q0 -7 7 -7q3 0 6 1.5t10 8.5q3 3 8.5 9t14 12t19.5 10.5t26 4.5q20 0 35 -7t29 -15q16 -8 37 -18t53 -10z" />
    <glyph glyph-name="Adieresis" unicode="&#xc4;" horiz-adv-x="700" 
d="M427 258q7 0 10 -7l80 -212q4 -9 0 -15t-9 -8q-14 -1 -14 -9q0 -5 8 -6t22 -2q60 -2 111 -2h78q28 0 37 2t9 8q0 8 -13 8q-9 0 -20 1t-22 3q-8 2 -17.5 6.5t-20.5 16t-23.5 32t-26.5 54.5q-16 38 -39 94.5t-48.5 120.5t-51.5 129t-48 121t-38.5 96t-22.5 54
q-14 32 -25 32q-8 0 -13.5 -9t-14.5 -31l-251 -628q-15 -38 -32.5 -61.5t-52.5 -28.5q-6 -1 -15 -1.5t-16 -0.5q-12 0 -12 -8q0 -10 19 -10t38.5 0.5t36 1t28 1t15.5 0.5q23 0 52.5 -1.5t53.5 -1.5q17 0 17 10q0 5 -3 6.5t-12 1.5h-15q-23 0 -31.5 8.5t-8.5 22.5
q0 9 3.5 25.5t11.5 35.5l54 143q3 8 9 8h223zM224 308q-6 0 -4 7l92 246q1 3 2.5 6t3.5 3t3 -3l2 -6l90 -247q2 -6 -5 -6h-184zM455 830q22 0 35 14.5t13 35.5t-13.5 32.5t-33.5 11.5q-24 0 -35 -16t-11 -31q0 -16 10.5 -31.5t34.5 -15.5zM244 830q22 0 35 14.5t13 35.5
q0 20 -13.5 31.5t-33.5 11.5q-24 0 -35 -16t-11 -30q0 -16 10.5 -31.5t34.5 -15.5z" />
    <glyph glyph-name="Aring" unicode="&#xc5;" horiz-adv-x="700" 
d="M427 258q7 0 10 -7l80 -212q4 -9 0 -15t-9 -8q-14 -1 -14 -9q0 -5 8 -6t22 -2q60 -2 111 -2h78q28 0 37 2t9 8q0 8 -13 8q-9 0 -20 1t-22 3q-8 2 -17.5 6.5t-20.5 16t-23.5 32t-26.5 54.5q-16 38 -39 94.5t-48.5 120.5t-51.5 129t-48 121t-38.5 96t-22.5 54
q-14 32 -25 32q-8 0 -13.5 -9t-14.5 -31l-251 -628q-15 -38 -32.5 -61.5t-52.5 -28.5q-6 -1 -15 -1.5t-16 -0.5q-12 0 -12 -8q0 -10 19 -10t38.5 0.5t36 1t28 1t15.5 0.5q23 0 52.5 -1.5t53.5 -1.5q17 0 17 10q0 5 -3 6.5t-12 1.5h-15q-23 0 -31.5 8.5t-8.5 22.5
q0 9 3.5 25.5t11.5 35.5l54 143q3 8 9 8h223zM224 308q-6 0 -4 7l92 246q1 3 2.5 6t3.5 3t3 -3l2 -6l90 -247q2 -6 -5 -6h-184zM324 820q24 0 49.5 6t46.5 18t34 28.5t13 37.5q0 26 -25.5 42t-69.5 16q-29 0 -54 -7.5t-43.5 -19.5t-29 -28t-10.5 -33q0 -26 23.5 -43
t65.5 -17zM296 894q0 13 5.5 22t14 15t18.5 9t19 3q27 0 40 -14t13 -32q0 -21 -17.5 -36.5t-42.5 -15.5q-18 0 -34 13t-16 36z" />
    <glyph glyph-name="AE" unicode="&#xc6;" horiz-adv-x="927" 
d="M466 287q0 -69 -0.5 -125t-4.5 -88q-3 -22 -8.5 -37t-20.5 -18q-7 -2 -15.5 -3t-19.5 -1q-8 0 -10.5 -2t-2.5 -7q0 -9 19 -9q14 0 30 0.5t33 1.5q16 0 30 0.5t23 0.5q23 0 47.5 -0.5t56.5 -2.5q32 -1 74 -2t99 -1q14 0 23.5 0.5t15.5 3t9 7.5t6 15q2 7 4 22.5t4 32
t3.5 32t1.5 24.5q0 8 -1 13t-7 5q-8 0 -11 -15q-5 -31 -15 -48t-30 -26t-47 -10.5t-47 -1.5q-38 0 -61.5 3.5t-36 12.5t-17 25.5t-5.5 42.5v21q0 20 0.5 45.5t0.5 50.5v38v47q0 10 6 10q9 0 29.5 -0.5t43 -1t42.5 -1t27 -1.5q28 -3 40 -13.5t16 -25.5q2 -10 2.5 -19t1.5 -17
q0 -9 9 -9q7 0 8 6.5t1 12.5q0 3 0.5 11t1 18t1.5 20t1 18q3 38 5.5 53t2.5 20q0 9 -7 9q-5 0 -16 -13q-7 -8 -18.5 -10.5t-29.5 -4.5q-9 -1 -32 -1.5t-49 -0.5h-48h-31q-7 0 -7 11v285q0 10 7 10t28 -0.5t44 -1t43.5 -1t26.5 -1.5q37 -5 49.5 -14t17.5 -22q4 -9 5 -20
t1 -16q0 -14 9 -14q5 0 7 3.5t3 7.5t1.5 13.5t1.5 20t1.5 19.5t0.5 13q2 35 5 47.5t3 17.5q0 9 -6 9q-4 0 -8 -1.5t-8 -2.5q-6 -2 -17.5 -3t-25.5 -3q-5 0 -23 -0.5t-43 -0.5h-54h-55h-47h-28q-12 0 -20.5 0.5t-15.5 1.5q-6 0 -10 0.5t-7 0.5q-10 0 -13 -14
q-2 -5 -6.5 -15.5t-15.5 -28.5q-3 -4 -18.5 -29t-40 -63t-55.5 -86t-63 -98.5t-63.5 -99t-57.5 -88.5t-44.5 -67.5t-24.5 -35.5q-8 -10 -17.5 -24t-22 -28.5t-28.5 -28.5t-38 -23q-11 -5 -23.5 -7t-19.5 -2q-14 0 -14 -8q0 -10 14 -10q19 0 39 0.5t37 1t30.5 1t20.5 0.5
q15 0 55 -1.5t88 -1.5q19 0 19 10q0 8 -15 8q-14 0 -27.5 2t-23.5 7q-7 3 -12 10t-5 18t9 33t35 65q4 7 13 22.5t20 34.5t23 40.5t22.5 39.5t18.5 31.5t11 17.5q5 7 17 7h161q9 0 9 -8v-48zM466 398q0 -8 -9 -8h-134q-10 0 -5 10q2 5 12 22t24 40.5t30.5 50.5t31.5 52
t27 45.5t18 29.5h5v-242z" />
    <glyph glyph-name="Ccedilla" unicode="&#xc7;" horiz-adv-x="800" 
d="M469 -15q12 -1 25.5 -1.5t27.5 -0.5q24 0 49.5 1.5t49.5 4t45 7t36 10.5q13 5 17.5 10.5t8.5 18.5t8 33.5t7 41t5 37t2 21.5q0 6 -2 10.5t-7 4.5q-6 0 -8.5 -4t-4.5 -16q-3 -14 -12 -33t-22 -33q-30 -35 -73 -45.5t-110 -10.5q-50 0 -105.5 22t-102 66.5t-77 111.5
t-30.5 156q0 73 18.5 140.5t73.5 118.5q33 30 77.5 46t110.5 16q69 0 123.5 -18t79.5 -44q19 -20 28.5 -44.5t10.5 -47.5q0 -22 10 -22q7 0 9 6t3 17q1 7 1 20q0 14 0.5 29t0.5 31t1 28q2 26 3.5 37.5t1.5 17.5q0 11 -15 12q-23 2 -47 7.5t-53 9.5q-35 5 -66.5 7.5
t-78.5 2.5q-112 0 -187 -28t-129 -78q-36 -33 -59 -70.5t-35.5 -74t-17.5 -70.5t-5 -59q0 -96 30.5 -166.5t81.5 -118.5t116.5 -75.5t135.5 -36.5l-80 -60q-10 -8 -13 -10.5t-3 -4.5q0 -5 22 -8q25 -4 40.5 -12t24 -18t11.5 -21.5t3 -21.5q0 -16 -8.5 -28.5t-21 -21
t-27.5 -13t-27 -4.5q-11 0 -18.5 -3t-7.5 -10q0 -5 5 -7.5t12 -2.5q54 0 89.5 11t56.5 27.5t29.5 35t8.5 33.5q0 34 -31.5 54.5t-86.5 25.5z" />
    <glyph glyph-name="Egrave" unicode="&#xc8;" 
d="M164 287q0 -69 -0.5 -125t-4.5 -88q-3 -22 -8.5 -37t-20.5 -18q-7 -2 -16 -3t-20 -1q-16 0 -16 -8q0 -10 20 -10q15 0 33.5 1t35.5 1q18 1 33 1h24q23 0 47.5 -0.5t56.5 -2.5q32 -1 74 -2t99 -1q14 0 23.5 0.5t15.5 3t9 7.5t6 15q2 7 4 22.5t4 32t3.5 32t1.5 24.5
q0 8 -1 13t-7 5q-8 0 -11 -15q-5 -31 -15 -48t-30 -26t-47 -10.5t-47 -1.5q-38 0 -61.5 3.5t-36 12.5t-17 25.5t-5.5 42.5v31v44v45v35v79q0 10 6 10h29q21 0 43.5 -0.5t42.5 -1t27 -1.5q28 -3 40 -13.5t16 -25.5q2 -10 2.5 -19t1.5 -17q0 -9 9 -9q7 0 8 6.5t1 12.5
q0 3 0.5 11t1 18t1.5 20t1 18q3 38 5.5 53t2.5 20q0 8 -7 8q-5 0 -16 -13q-7 -8 -18.5 -10.5t-29.5 -4.5q-9 -1 -32 -1.5t-49 -0.5h-48h-31q-7 0 -7 11v253q0 10 7 10t28 -0.5t44 -1t43.5 -1t26.5 -1.5q37 -5 49.5 -14t17.5 -22q4 -9 5 -20t1 -16q0 -14 9 -14q5 0 7 3.5
t3 7.5t1.5 13.5t1.5 20t1.5 19.5t0.5 13q2 35 5 47.5t3 17.5q0 9 -6 9q-4 0 -8 -1.5t-8 -2.5q-6 -2 -17.5 -3t-25.5 -3q-5 0 -23 -0.5t-43 -0.5h-54h-55h-47h-28q-11 0 -27 0.5t-36 1.5q-19 0 -40 0.5t-41 0.5q-22 0 -22 -9t17 -9q11 0 22 -0.5t17 -2.5q25 -5 33 -18t10 -39
q1 -12 1.5 -25.5t0.5 -36.5v-58v-92v-176zM409 837q0 5 -6.5 8.5t-14.5 9.5q-17 12 -35.5 28t-34 31t-27 26.5t-14.5 16.5q-8 11 -10 16.5t-6 5.5t-7.5 -1.5t-11.5 -5.5q-5 -2 -13.5 -5.5t-18 -7l-19 -7t-16.5 -5.5q-13 -3 -13 -9q0 -5 9.5 -12t23.5 -13q4 -2 20 -9t37 -16
t45 -19.5t45.5 -19t36.5 -14t19 -5.5q3 0 7 1.5t4 5.5z" />
    <glyph glyph-name="Eacute" unicode="&#xc9;" 
d="M164 287q0 -69 -0.5 -125t-4.5 -88q-3 -22 -8.5 -37t-20.5 -18q-7 -2 -16 -3t-20 -1q-16 0 -16 -8q0 -10 20 -10q15 0 33.5 1t35.5 1q18 1 33 1h24q23 0 47.5 -0.5t56.5 -2.5q32 -1 74 -2t99 -1q14 0 23.5 0.5t15.5 3t9 7.5t6 15q2 7 4 22.5t4 32t3.5 32t1.5 24.5
q0 8 -1 13t-7 5q-8 0 -11 -15q-5 -31 -15 -48t-30 -26t-47 -10.5t-47 -1.5q-38 0 -61.5 3.5t-36 12.5t-17 25.5t-5.5 42.5v31v44v45v35v79q0 10 6 10h29q21 0 43.5 -0.5t42.5 -1t27 -1.5q28 -3 40 -13.5t16 -25.5q2 -10 2.5 -19t1.5 -17q0 -9 9 -9q7 0 8 6.5t1 12.5
q0 3 0.5 11t1 18t1.5 20t1 18q3 38 5.5 53t2.5 20q0 8 -7 8q-5 0 -16 -13q-7 -8 -18.5 -10.5t-29.5 -4.5q-9 -1 -32 -1.5t-49 -0.5h-48h-31q-7 0 -7 11v253q0 10 7 10t28 -0.5t44 -1t43.5 -1t26.5 -1.5q37 -5 49.5 -14t17.5 -22q4 -9 5 -20t1 -16q0 -14 9 -14q5 0 7 3.5
t3 7.5t1.5 13.5t1.5 20t1.5 19.5t0.5 13q2 35 5 47.5t3 17.5q0 9 -6 9q-4 0 -8 -1.5t-8 -2.5q-6 -2 -17.5 -3t-25.5 -3q-5 0 -23 -0.5t-43 -0.5h-54h-55h-47h-28q-11 0 -27 0.5t-36 1.5q-19 0 -40 0.5t-41 0.5q-22 0 -22 -9t17 -9q11 0 22 -0.5t17 -2.5q25 -5 33 -18t10 -39
q1 -12 1.5 -25.5t0.5 -36.5v-58v-92v-176zM462 972q-4 7 -6.5 9.5t-7.5 2.5q-7 0 -20 -9q-6 -4 -26.5 -18.5t-45 -34t-49.5 -39.5t-40 -34q-9 -9 -9 -13q0 -3 2 -4.5t4 -1.5t6.5 2.5t10.5 5.5q14 7 34.5 16.5t44 18t47.5 15t45 9.5q15 2 22.5 1t11.5 -1t7 3t-2 12
q-9 20 -16 34.5t-13 25.5z" />
    <glyph glyph-name="Ecircumflex" unicode="&#xca;" 
d="M164 287q0 -69 -0.5 -125t-4.5 -88q-3 -22 -8.5 -37t-20.5 -18q-7 -2 -16 -3t-20 -1q-16 0 -16 -8q0 -10 20 -10q15 0 33.5 1t35.5 1q18 1 33 1h24q23 0 47.5 -0.5t56.5 -2.5q32 -1 74 -2t99 -1q14 0 23.5 0.5t15.5 3t9 7.5t6 15q2 7 4 22.5t4 32t3.5 32t1.5 24.5
q0 8 -1 13t-7 5q-8 0 -11 -15q-5 -31 -15 -48t-30 -26t-47 -10.5t-47 -1.5q-38 0 -61.5 3.5t-36 12.5t-17 25.5t-5.5 42.5v31v44v45v35v79q0 10 6 10h29q21 0 43.5 -0.5t42.5 -1t27 -1.5q28 -3 40 -13.5t16 -25.5q2 -10 2.5 -19t1.5 -17q0 -9 9 -9q7 0 8 6.5t1 12.5
q0 3 0.5 11t1 18t1.5 20t1 18q3 38 5.5 53t2.5 20q0 8 -7 8q-5 0 -16 -13q-7 -8 -18.5 -10.5t-29.5 -4.5q-9 -1 -32 -1.5t-49 -0.5h-48h-31q-7 0 -7 11v253q0 10 7 10t28 -0.5t44 -1t43.5 -1t26.5 -1.5q37 -5 49.5 -14t17.5 -22q4 -9 5 -20t1 -16q0 -14 9 -14q5 0 7 3.5
t3 7.5t1.5 13.5t1.5 20t1.5 19.5t0.5 13q2 35 5 47.5t3 17.5q0 9 -6 9q-4 0 -8 -1.5t-8 -2.5q-6 -2 -17.5 -3t-25.5 -3q-5 0 -23 -0.5t-43 -0.5h-54h-55h-47h-28q-11 0 -27 0.5t-36 1.5q-19 0 -40 0.5t-41 0.5q-22 0 -22 -9t17 -9q11 0 22 -0.5t17 -2.5q25 -5 33 -18t10 -39
q1 -12 1.5 -25.5t0.5 -36.5v-58v-92v-176zM341 981q-8 0 -21 -12q-4 -3 -14 -12.5t-24 -22.5t-29.5 -27t-28.5 -27t-23 -22.5t-13 -12.5q-9 -11 -9 -15q0 -10 9 -10q7 0 20 12q11 10 25 20.5t28.5 20.5t28 18.5t24.5 14.5q10 5 15 5t13 -6q4 -3 15.5 -12t25.5 -20.5t27 -23
t20 -18.5q11 -11 15 -11q6 0 13 7l29 29q5 5 5 10q0 2 -3 5t-11 9q-6 4 -24 17.5t-38 29t-37 28t-20 15.5q-15 11 -18 11z" />
    <glyph glyph-name="Edieresis" unicode="&#xcb;" 
d="M164 287q0 -69 -0.5 -125t-4.5 -88q-3 -22 -8.5 -37t-20.5 -18q-7 -2 -16 -3t-20 -1q-16 0 -16 -8q0 -10 20 -10q15 0 33.5 1t35.5 1q18 1 33 1h24q23 0 47.5 -0.5t56.5 -2.5q32 -1 74 -2t99 -1q14 0 23.5 0.5t15.5 3t9 7.5t6 15q2 7 4 22.5t4 32t3.5 32t1.5 24.5
q0 8 -1 13t-7 5q-8 0 -11 -15q-5 -31 -15 -48t-30 -26t-47 -10.5t-47 -1.5q-38 0 -61.5 3.5t-36 12.5t-17 25.5t-5.5 42.5v31v44v45v35v79q0 10 6 10h29q21 0 43.5 -0.5t42.5 -1t27 -1.5q28 -3 40 -13.5t16 -25.5q2 -10 2.5 -19t1.5 -17q0 -9 9 -9q7 0 8 6.5t1 12.5
q0 3 0.5 11t1 18t1.5 20t1 18q3 38 5.5 53t2.5 20q0 8 -7 8q-5 0 -16 -13q-7 -8 -18.5 -10.5t-29.5 -4.5q-9 -1 -32 -1.5t-49 -0.5h-48h-31q-7 0 -7 11v253q0 10 7 10t28 -0.5t44 -1t43.5 -1t26.5 -1.5q37 -5 49.5 -14t17.5 -22q4 -9 5 -20t1 -16q0 -14 9 -14q5 0 7 3.5
t3 7.5t1.5 13.5t1.5 20t1.5 19.5t0.5 13q2 35 5 47.5t3 17.5q0 9 -6 9q-4 0 -8 -1.5t-8 -2.5q-6 -2 -17.5 -3t-25.5 -3q-5 0 -23 -0.5t-43 -0.5h-54h-55h-47h-28q-11 0 -27 0.5t-36 1.5q-19 0 -40 0.5t-41 0.5q-22 0 -22 -9t17 -9q11 0 22 -0.5t17 -2.5q25 -5 33 -18t10 -39
q1 -12 1.5 -25.5t0.5 -36.5v-58v-92v-176zM440 830q22 0 35 14.5t13 35.5t-13.5 32.5t-33.5 11.5q-24 0 -35 -16t-11 -31q0 -16 10.5 -31.5t34.5 -15.5zM229 830q22 0 35 14.5t13 35.5q0 20 -13.5 31.5t-33.5 11.5q-24 0 -35 -16t-11 -30q0 -16 10.5 -31.5t34.5 -15.5z" />
    <glyph glyph-name="Igrave" unicode="&#xcc;" horiz-adv-x="452" 
d="M164 287q0 -73 -0.5 -129.5t-4.5 -88.5q-2 -22 -8 -34.5t-21 -15.5q-7 -2 -16 -3t-20 -1q-16 0 -16 -8q0 -10 20 -10q15 0 33.5 0.5t36 1t32.5 1t24 0.5q20 0 63 -1.5t93 -1.5q19 0 19 10q0 8 -16 8q-11 0 -25.5 1t-25.5 3q-23 3 -30.5 16t-9.5 33q-3 32 -3.5 89
t-0.5 130v176v92v58q0 23 0.5 36.5t1.5 25.5q2 26 9.5 39.5t27.5 17.5q9 2 15.5 2.5t14.5 0.5q16 0 16 10q0 8 -21 8q-14 0 -31.5 -0.5t-34.5 -1t-32 -1t-24 -0.5q-11 0 -27.5 0.5t-34.5 1l-36 1t-32 0.5q-24 0 -24 -8q0 -10 16 -10q9 0 18.5 -1t17.5 -3q31 -7 34 -56
q1 -12 1.5 -25.5t0.5 -36.5v-58v-92v-176zM300 837q0 5 -6.5 8.5t-14.5 9.5q-17 12 -35.5 28t-34 31t-27 26.5t-14.5 16.5q-8 11 -10 16.5t-6 5.5t-7.5 -1.5t-11.5 -5.5q-5 -2 -13.5 -5.5t-18 -7l-19 -7t-16.5 -5.5q-13 -3 -13 -9q0 -5 9.5 -12t23.5 -13q4 -2 20 -9t37 -16
t45 -19.5t45.5 -19t36.5 -14t19 -5.5q3 0 7 1.5t4 5.5z" />
    <glyph glyph-name="Iacute" unicode="&#xcd;" horiz-adv-x="452" 
d="M164 287q0 -73 -0.5 -129.5t-4.5 -88.5q-2 -22 -8 -34.5t-21 -15.5q-7 -2 -16 -3t-20 -1q-16 0 -16 -8q0 -10 20 -10q15 0 33.5 0.5t36 1t32.5 1t24 0.5q20 0 63 -1.5t93 -1.5q19 0 19 10q0 8 -16 8q-11 0 -25.5 1t-25.5 3q-23 3 -30.5 16t-9.5 33q-3 32 -3.5 89
t-0.5 130v176v92v58q0 23 0.5 36.5t1.5 25.5q2 26 9.5 39.5t27.5 17.5q9 2 15.5 2.5t14.5 0.5q16 0 16 10q0 8 -21 8q-14 0 -31.5 -0.5t-34.5 -1t-32 -1t-24 -0.5q-11 0 -27.5 0.5t-34.5 1l-36 1t-32 0.5q-24 0 -24 -8q0 -10 16 -10q9 0 18.5 -1t17.5 -3q31 -7 34 -56
q1 -12 1.5 -25.5t0.5 -36.5v-58v-92v-176zM363 972q-4 7 -6.5 9.5t-7.5 2.5q-7 0 -20 -9q-6 -4 -26.5 -18.5t-45 -34t-49.5 -39.5t-40 -34q-9 -9 -9 -13q0 -3 2 -4.5t4 -1.5t6.5 2.5t10.5 5.5q14 7 34.5 16.5t44 18t47.5 15t45 9.5q15 2 22.5 1t11.5 -1t7 3t-2 12
q-9 20 -16 34.5t-13 25.5z" />
    <glyph glyph-name="Icircumflex" unicode="&#xce;" horiz-adv-x="452" 
d="M164 287q0 -73 -0.5 -129.5t-4.5 -88.5q-2 -22 -8 -34.5t-21 -15.5q-7 -2 -16 -3t-20 -1q-16 0 -16 -8q0 -10 20 -10q15 0 33.5 0.5t36 1t32.5 1t24 0.5q20 0 63 -1.5t93 -1.5q19 0 19 10q0 8 -16 8q-11 0 -25.5 1t-25.5 3q-23 3 -30.5 16t-9.5 33q-3 32 -3.5 89
t-0.5 130v176v92v58q0 23 0.5 36.5t1.5 25.5q2 26 9.5 39.5t27.5 17.5q9 2 15.5 2.5t14.5 0.5q16 0 16 10q0 8 -21 8q-14 0 -31.5 -0.5t-34.5 -1t-32 -1t-24 -0.5q-11 0 -27.5 0.5t-34.5 1l-36 1t-32 0.5q-24 0 -24 -8q0 -10 16 -10q9 0 18.5 -1t17.5 -3q31 -7 34 -56
q1 -12 1.5 -25.5t0.5 -36.5v-58v-92v-176zM232 981q-8 0 -21 -12q-4 -3 -14 -12.5t-24 -22.5t-29.5 -27t-28.5 -27t-23 -22.5t-13 -12.5q-9 -11 -9 -15q0 -10 9 -10q7 0 20 12q11 10 25 20.5t28.5 20.5t28 18.5t24.5 14.5q10 5 15 5t13 -6q4 -3 15.5 -12t25.5 -20.5t27 -23
t20 -18.5q11 -11 15 -11q6 0 13 7l29 29q5 5 5 10q0 2 -3 5t-11 9q-6 4 -24 17.5t-38 29t-37 28t-20 15.5q-15 11 -18 11z" />
    <glyph glyph-name="Idieresis" unicode="&#xcf;" horiz-adv-x="452" 
d="M164 287q0 -73 -0.5 -129.5t-4.5 -88.5q-2 -22 -8 -34.5t-21 -15.5q-7 -2 -16 -3t-20 -1q-16 0 -16 -8q0 -10 20 -10q15 0 33.5 0.5t36 1t32.5 1t24 0.5q20 0 63 -1.5t93 -1.5q19 0 19 10q0 8 -16 8q-11 0 -25.5 1t-25.5 3q-23 3 -30.5 16t-9.5 33q-3 32 -3.5 89
t-0.5 130v176v92v58q0 23 0.5 36.5t1.5 25.5q2 26 9.5 39.5t27.5 17.5q9 2 15.5 2.5t14.5 0.5q16 0 16 10q0 8 -21 8q-14 0 -31.5 -0.5t-34.5 -1t-32 -1t-24 -0.5q-11 0 -27.5 0.5t-34.5 1l-36 1t-32 0.5q-24 0 -24 -8q0 -10 16 -10q9 0 18.5 -1t17.5 -3q31 -7 34 -56
q1 -12 1.5 -25.5t0.5 -36.5v-58v-92v-176zM331 830q22 0 35 14.5t13 35.5t-13.5 32.5t-33.5 11.5q-24 0 -35 -16t-11 -31q0 -16 10.5 -31.5t34.5 -15.5zM120 830q22 0 35 14.5t13 35.5q0 20 -13.5 31.5t-33.5 11.5q-24 0 -35 -16t-11 -30q0 -16 10.5 -31.5t34.5 -15.5z" />
    <glyph glyph-name="Eth" unicode="&#xd0;" horiz-adv-x="936" 
d="M164 353v-66q0 -69 -0.5 -125t-4.5 -88q-3 -22 -8.5 -37t-20.5 -18q-7 -2 -16 -3t-20 -1q-16 0 -16 -8q0 -10 20 -10q15 0 33.5 1t35.5 1q18 1 33 1h24q13 0 40.5 -2t60.5 -4l68 -4t60 -2q57 0 108 11.5t92 29t72 37.5t48 38q21 22 40.5 51t34.5 64t24 77t9 89
q0 45 -8 83t-21.5 69.5t-31 56.5t-36.5 45q-41 43 -91 66t-103.5 33.5t-106.5 12.5t-100 2q-45 0 -88 -1.5t-66 -1.5q-11 0 -27 0.5t-35.5 1t-40.5 1t-41 0.5q-22 0 -22 -9t17 -9q11 0 22 -0.5t17 -2.5q25 -5 33 -18t10 -39q1 -12 1.5 -25.5t0.5 -36.5v-58v-92v-58h-88
q-12 0 -13 -10l-5 -30q-2 -12 5 -12h101zM289 406v73v60v57t0.5 48.5t0.5 34.5q0 15 12 20q3 1 10.5 2.5t17.5 2.5t19.5 1.5t17.5 0.5q29 0 64 -3.5t72.5 -14t75 -30t72.5 -52.5q16 -15 33 -38.5t31 -54.5t23 -70t9 -87q0 -78 -18.5 -143t-61.5 -103q-45 -40 -101.5 -57.5
t-132.5 -17.5q-60 0 -90.5 13.5t-40.5 27.5q-3 4 -5 13t-3 20t-2 22.5t-1 20.5q0 7 -0.5 24t-1 38.5t-0.5 45.5v46v46h189q10 0 12 9l6 33q1 12 -7 12h-200z" />
    <glyph glyph-name="Ntilde" unicode="&#xd1;" horiz-adv-x="947" 
d="M209 553h3q7 -7 29.5 -32t55.5 -60.5t72.5 -77.5t80.5 -82l81 -81l82 -82t74 -74.5t58 -56.5q8 -8 17 -15t17 -7q13 0 13 31l11 631q1 42 8.5 60.5t28.5 24.5q9 2 15.5 2.5t14.5 0.5q18 0 18 9q0 6 -6.5 7.5t-16.5 1.5q-37 0 -63.5 -1.5t-34.5 -1.5q-16 0 -49 1.5
t-72 1.5q-11 0 -18.5 -1.5t-7.5 -7.5q0 -9 16 -9q11 0 26.5 -0.5t26.5 -5.5q18 -8 25.5 -26t8.5 -64l10 -449h-5l-17.5 17.5t-32 33.5t-41 43.5t-46 47.5t-45 46.5t-38.5 39.5q-55 54 -108.5 109.5t-97 100.5t-72 75.5t-32.5 35.5q-13 14 -21 22.5t-16 8.5t-10.5 -9.5
t-2.5 -24.5l-9 -592q-1 -65 -6.5 -91.5t-24.5 -32.5q-11 -3 -23 -4t-22 -1q-16 0 -16 -8q0 -7 6 -8.5t16 -1.5q39 0 70 1.5t38 1.5q14 0 44.5 -1.5t79.5 -1.5q23 0 23 10q0 8 -17 8q-12 0 -25.5 1t-26.5 6q-8 3 -14 9.5t-10.5 19.5t-7 33t-3.5 49zM554 830q18 0 34 9.5
t29 22t22.5 25t12.5 18.5q2 5 4 9t2 8q0 8 -8 8q-6 0 -16 -13q-2 -2 -6.5 -7t-12 -10t-18.5 -9t-24 -4q-18 0 -35.5 5.5t-36.5 16.5q-17 10 -35.5 19t-44.5 9q-18 0 -34.5 -8.5t-30 -21t-23.5 -25.5t-16 -22q-2 -3 -5 -9t-3 -10q0 -7 7 -7q3 0 6 1.5t10 8.5q3 3 8.5 9t14 12
t19.5 10.5t26 4.5q20 0 35 -7t29 -15q16 -8 37 -18t53 -10z" />
    <glyph glyph-name="Ograve" unicode="&#xd2;" horiz-adv-x="927" 
d="M458 -17q95 0 171.5 32t130.5 87.5t83 130t29 160.5t-28 155t-80.5 118t-127.5 75t-168 26q-113 0 -191.5 -37t-127.5 -94.5t-71.5 -127t-22.5 -133.5q0 -66 22.5 -135.5t71.5 -126.5t125 -93.5t184 -36.5zM500 33q-72 0 -129 29t-96.5 79.5t-60.5 118.5t-21 146
q0 93 22.5 154t57.5 96t79 49t87 14q61 0 114.5 -25t93.5 -72.5t62.5 -114.5t22.5 -151q0 -72 -12.5 -124t-32.5 -88t-45 -58t-51 -33.5t-50 -15.5t-41 -4zM537 837q0 5 -6.5 8.5t-14.5 9.5q-17 12 -35.5 28t-34 31t-27 26.5t-14.5 16.5q-8 11 -10 16.5t-6 5.5t-7.5 -1.5
t-11.5 -5.5q-5 -2 -13.5 -5.5t-18 -7l-19 -7t-16.5 -5.5q-13 -3 -13 -9q0 -5 9.5 -12t23.5 -13q4 -2 20 -9t37 -16t45 -19.5t45.5 -19t36.5 -14t19 -5.5q3 0 7 1.5t4 5.5z" />
    <glyph glyph-name="Oacute" unicode="&#xd3;" horiz-adv-x="927" 
d="M458 -17q95 0 171.5 32t130.5 87.5t83 130t29 160.5t-28 155t-80.5 118t-127.5 75t-168 26q-113 0 -191.5 -37t-127.5 -94.5t-71.5 -127t-22.5 -133.5q0 -66 22.5 -135.5t71.5 -126.5t125 -93.5t184 -36.5zM500 33q-72 0 -129 29t-96.5 79.5t-60.5 118.5t-21 146
q0 93 22.5 154t57.5 96t79 49t87 14q61 0 114.5 -25t93.5 -72.5t62.5 -114.5t22.5 -151q0 -72 -12.5 -124t-32.5 -88t-45 -58t-51 -33.5t-50 -15.5t-41 -4zM600 972q-4 7 -6.5 9.5t-7.5 2.5q-7 0 -20 -9q-6 -4 -26.5 -18.5t-45 -34t-49.5 -39.5t-40 -34q-9 -9 -9 -13
q0 -3 2 -4.5t4 -1.5t6.5 2.5t10.5 5.5q14 7 34.5 16.5t44 18t47.5 15t45 9.5q15 2 22.5 1t11.5 -1t7 3t-2 12q-9 20 -16 34.5t-13 25.5z" />
    <glyph glyph-name="Ocircumflex" unicode="&#xd4;" horiz-adv-x="927" 
d="M458 -17q95 0 171.5 32t130.5 87.5t83 130t29 160.5t-28 155t-80.5 118t-127.5 75t-168 26q-113 0 -191.5 -37t-127.5 -94.5t-71.5 -127t-22.5 -133.5q0 -66 22.5 -135.5t71.5 -126.5t125 -93.5t184 -36.5zM500 33q-72 0 -129 29t-96.5 79.5t-60.5 118.5t-21 146
q0 93 22.5 154t57.5 96t79 49t87 14q61 0 114.5 -25t93.5 -72.5t62.5 -114.5t22.5 -151q0 -72 -12.5 -124t-32.5 -88t-45 -58t-51 -33.5t-50 -15.5t-41 -4zM469 981q-8 0 -21 -12q-4 -3 -14 -12.5t-24 -22.5t-29.5 -27t-29 -27t-23 -22.5l-12.5 -12.5q-9 -11 -9 -15
q0 -10 9 -10q7 0 20 12q11 10 25 20.5t28.5 20.5t28 18.5t24.5 14.5q10 5 15 5t13 -6q4 -3 15.5 -12t25.5 -20.5t27 -23t20 -18.5q11 -11 15 -11q6 0 13 7l29 29q5 5 5 10q0 2 -3 5t-11 9q-6 4 -24 17.5t-38 29t-37 28t-20 15.5q-15 11 -18 11z" />
    <glyph glyph-name="Otilde" unicode="&#xd5;" horiz-adv-x="927" 
d="M458 -17q95 0 171.5 32t130.5 87.5t83 130t29 160.5t-28 155t-80.5 118t-127.5 75t-168 26q-113 0 -191.5 -37t-127.5 -94.5t-71.5 -127t-22.5 -133.5q0 -66 22.5 -135.5t71.5 -126.5t125 -93.5t184 -36.5zM500 33q-72 0 -129 29t-96.5 79.5t-60.5 118.5t-21 146
q0 93 22.5 154t57.5 96t79 49t87 14q61 0 114.5 -25t93.5 -72.5t62.5 -114.5t22.5 -151q0 -72 -12.5 -124t-32.5 -88t-45 -58t-51 -33.5t-50 -15.5t-41 -4zM534 830q18 0 34 9.5t29 22t22.5 25t12.5 18.5q2 5 4 9t2 8q0 8 -8 8q-6 0 -16 -13q-2 -2 -6.5 -7t-12 -10t-18.5 -9
t-24 -4q-18 0 -35.5 5.5t-36.5 16.5q-17 10 -35.5 19t-44.5 9q-18 0 -34.5 -8.5t-30 -21t-23.5 -25.5t-16 -22q-2 -3 -5 -9t-3 -10q0 -7 7 -7q3 0 6 1.5t10 8.5q3 3 8.5 9t14 12t19.5 10.5t26 4.5q20 0 35 -7t29 -15q16 -8 37 -18t53 -10z" />
    <glyph glyph-name="Odieresis" unicode="&#xd6;" horiz-adv-x="927" 
d="M458 -17q95 0 171.5 32t130.5 87.5t83 130t29 160.5t-28 155t-80.5 118t-127.5 75t-168 26q-113 0 -191.5 -37t-127.5 -94.5t-71.5 -127t-22.5 -133.5q0 -66 22.5 -135.5t71.5 -126.5t125 -93.5t184 -36.5zM500 33q-72 0 -129 29t-96.5 79.5t-60.5 118.5t-21 146
q0 93 22.5 154t57.5 96t79 49t87 14q61 0 114.5 -25t93.5 -72.5t62.5 -114.5t22.5 -151q0 -72 -12.5 -124t-32.5 -88t-45 -58t-51 -33.5t-50 -15.5t-41 -4zM568 830q22 0 35 14.5t13 35.5t-13.5 32.5t-33.5 11.5q-24 0 -35 -16t-11 -31q0 -16 10.5 -31.5t34.5 -15.5z
M357 830q22 0 35 14.5t13 35.5q0 20 -13.5 31.5t-33.5 11.5q-24 0 -35 -16t-11 -30q0 -16 10.5 -31.5t34.5 -15.5z" />
    <glyph glyph-name="multiply" unicode="&#xd7;" horiz-adv-x="549" 
d="M496 67l-180 185l180 185l-41 41l-180 -185l-180 185l-41 -41l180 -185l-180 -185l41 -41l180 184l180 -184z" />
    <glyph glyph-name="Oslash" unicode="&#xd8;" horiz-adv-x="927" 
d="M204 61q48 -36 110.5 -57t143.5 -21q95 0 171.5 32t130.5 87.5t83 130t29 160.5q0 83 -26 150t-75 115l74 78q5 5 0 11l-28 24q-9 7 -14 2l-75 -79q-50 35 -112.5 54t-147.5 19q-113 0 -191.5 -37t-127.5 -94.5t-71.5 -127t-22.5 -133.5q0 -72 26 -146t83 -132l-84 -89
q-4 -4 2 -10l28 -25q5 -5 10 0zM684 566q23 -43 36 -95.5t13 -115.5q0 -72 -12.5 -124t-32.5 -88t-45 -58t-51 -33.5t-50 -15.5t-41 -4q-72 0 -128 28.5t-96 77.5zM246 184q-26 46 -39 102t-13 119q0 93 22.5 154t57.5 96t79 49t87 14q63 0 118 -26.5t95 -77.5z" />
    <glyph glyph-name="Ugrave" unicode="&#xd9;" horiz-adv-x="852" 
d="M121 317q0 -54 6.5 -96t18.5 -73.5t28.5 -55t35.5 -40.5q27 -25 58 -39t60.5 -20.5t56.5 -8t47 -1.5q24 0 49.5 2.5t52 10.5t53 22t53.5 37q31 27 50 62t29 74t13 81t3 84v107v92v58q0 23 0.5 36.5t1.5 25.5q2 26 9.5 39.5t27.5 17.5q9 2 15 2.5t14 0.5q18 0 18 9t-21 9
q-15 0 -33 -0.5t-34.5 -1t-29.5 -1t-17 -0.5l-11 0.5t-27.5 1t-37 1t-39.5 0.5q-21 0 -21 -9t17 -9q8 0 19 -0.5t17 -2.5q25 -5 33 -18t10 -39q1 -12 1.5 -25.5t0.5 -36.5v-58v-92v-125q0 -39 -1.5 -74.5t-7 -67.5t-17 -58.5t-32.5 -47.5q-30 -30 -67.5 -42t-70.5 -12
q-26 0 -58.5 6.5t-66.5 34.5q-18 15 -32.5 35t-24.5 48.5t-15.5 68.5t-5.5 94v140v92v58q0 23 0.5 36.5t1.5 25.5q2 26 9.5 39.5t27.5 17.5q9 2 15 2.5t14 0.5q16 0 16 9t-22 9q-14 0 -31.5 -0.5t-34.5 -1t-32.5 -1t-24.5 -0.5q-23 0 -64.5 1.5t-81.5 1.5q-22 0 -22 -9
t17 -9q11 0 22 -0.5t17 -2.5q25 -5 33 -18t10 -39q1 -12 1.5 -25.5t0.5 -36.5v-58v-92v-146zM504 837q0 5 -6.5 8.5t-14.5 9.5q-17 12 -35.5 28t-34 31t-27 26.5t-14.5 16.5q-8 11 -10 16.5t-6 5.5t-7.5 -1.5t-11.5 -5.5q-5 -2 -13.5 -5.5t-18 -7l-19 -7t-16.5 -5.5
q-13 -3 -13 -9q0 -5 9.5 -12t23.5 -13q4 -2 20 -9t37 -16t45 -19.5t45.5 -19t36.5 -14t19 -5.5q3 0 7 1.5t4 5.5z" />
    <glyph glyph-name="Uacute" unicode="&#xda;" horiz-adv-x="852" 
d="M121 317q0 -54 6.5 -96t18.5 -73.5t28.5 -55t35.5 -40.5q27 -25 58 -39t60.5 -20.5t56.5 -8t47 -1.5q24 0 49.5 2.5t52 10.5t53 22t53.5 37q31 27 50 62t29 74t13 81t3 84v107v92v58q0 23 0.5 36.5t1.5 25.5q2 26 9.5 39.5t27.5 17.5q9 2 15 2.5t14 0.5q18 0 18 9t-21 9
q-15 0 -33 -0.5t-34.5 -1t-29.5 -1t-17 -0.5l-11 0.5t-27.5 1t-37 1t-39.5 0.5q-21 0 -21 -9t17 -9q8 0 19 -0.5t17 -2.5q25 -5 33 -18t10 -39q1 -12 1.5 -25.5t0.5 -36.5v-58v-92v-125q0 -39 -1.5 -74.5t-7 -67.5t-17 -58.5t-32.5 -47.5q-30 -30 -67.5 -42t-70.5 -12
q-26 0 -58.5 6.5t-66.5 34.5q-18 15 -32.5 35t-24.5 48.5t-15.5 68.5t-5.5 94v140v92v58q0 23 0.5 36.5t1.5 25.5q2 26 9.5 39.5t27.5 17.5q9 2 15 2.5t14 0.5q16 0 16 9t-22 9q-14 0 -31.5 -0.5t-34.5 -1t-32.5 -1t-24.5 -0.5q-23 0 -64.5 1.5t-81.5 1.5q-22 0 -22 -9
t17 -9q11 0 22 -0.5t17 -2.5q25 -5 33 -18t10 -39q1 -12 1.5 -25.5t0.5 -36.5v-58v-92v-146zM582 972q-4 7 -6.5 9.5t-7.5 2.5q-7 0 -20 -9q-6 -4 -26.5 -18.5t-45 -34t-49.5 -39.5t-40 -34q-9 -9 -9 -13q0 -3 2 -4.5t4 -1.5t6.5 2.5t10.5 5.5q14 7 34.5 16.5t44 18t47.5 15
t45 9.5q15 2 22.5 1t11.5 -1t7 3t-2 12q-9 20 -16 34.5t-13 25.5z" />
    <glyph glyph-name="Ucircumflex" unicode="&#xdb;" horiz-adv-x="852" 
d="M121 317q0 -54 6.5 -96t18.5 -73.5t28.5 -55t35.5 -40.5q27 -25 58 -39t60.5 -20.5t56.5 -8t47 -1.5q24 0 49.5 2.5t52 10.5t53 22t53.5 37q31 27 50 62t29 74t13 81t3 84v107v92v58q0 23 0.5 36.5t1.5 25.5q2 26 9.5 39.5t27.5 17.5q9 2 15 2.5t14 0.5q18 0 18 9t-21 9
q-15 0 -33 -0.5t-34.5 -1t-29.5 -1t-17 -0.5l-11 0.5t-27.5 1t-37 1t-39.5 0.5q-21 0 -21 -9t17 -9q8 0 19 -0.5t17 -2.5q25 -5 33 -18t10 -39q1 -12 1.5 -25.5t0.5 -36.5v-58v-92v-125q0 -39 -1.5 -74.5t-7 -67.5t-17 -58.5t-32.5 -47.5q-30 -30 -67.5 -42t-70.5 -12
q-26 0 -58.5 6.5t-66.5 34.5q-18 15 -32.5 35t-24.5 48.5t-15.5 68.5t-5.5 94v140v92v58q0 23 0.5 36.5t1.5 25.5q2 26 9.5 39.5t27.5 17.5q9 2 15 2.5t14 0.5q16 0 16 9t-22 9q-14 0 -31.5 -0.5t-34.5 -1t-32.5 -1t-24.5 -0.5q-23 0 -64.5 1.5t-81.5 1.5q-22 0 -22 -9
t17 -9q11 0 22 -0.5t17 -2.5q25 -5 33 -18t10 -39q1 -12 1.5 -25.5t0.5 -36.5v-58v-92v-146zM446 981q-8 0 -21 -12q-4 -3 -14 -12.5t-24 -22.5t-29.5 -27t-29 -27t-23 -22.5l-12.5 -12.5q-9 -11 -9 -15q0 -10 9 -10q7 0 20 12q11 10 25 20.5t28.5 20.5t28 18.5t24.5 14.5
q10 5 15 5t13 -6q4 -3 15.5 -12t25.5 -20.5t27 -23t20 -18.5q11 -11 15 -11q6 0 13 7l29 29q5 5 5 10q0 2 -3 5t-11 9q-6 4 -24 17.5t-38 29t-37 28t-20 15.5q-15 11 -18 11z" />
    <glyph glyph-name="Udieresis" unicode="&#xdc;" horiz-adv-x="852" 
d="M121 317q0 -54 6.5 -96t18.5 -73.5t28.5 -55t35.5 -40.5q27 -25 58 -39t60.5 -20.5t56.5 -8t47 -1.5q24 0 49.5 2.5t52 10.5t53 22t53.5 37q31 27 50 62t29 74t13 81t3 84v107v92v58q0 23 0.5 36.5t1.5 25.5q2 26 9.5 39.5t27.5 17.5q9 2 15 2.5t14 0.5q18 0 18 9t-21 9
q-15 0 -33 -0.5t-34.5 -1t-29.5 -1t-17 -0.5l-11 0.5t-27.5 1t-37 1t-39.5 0.5q-21 0 -21 -9t17 -9q8 0 19 -0.5t17 -2.5q25 -5 33 -18t10 -39q1 -12 1.5 -25.5t0.5 -36.5v-58v-92v-125q0 -39 -1.5 -74.5t-7 -67.5t-17 -58.5t-32.5 -47.5q-30 -30 -67.5 -42t-70.5 -12
q-26 0 -58.5 6.5t-66.5 34.5q-18 15 -32.5 35t-24.5 48.5t-15.5 68.5t-5.5 94v140v92v58q0 23 0.5 36.5t1.5 25.5q2 26 9.5 39.5t27.5 17.5q9 2 15 2.5t14 0.5q16 0 16 9t-22 9q-14 0 -31.5 -0.5t-34.5 -1t-32.5 -1t-24.5 -0.5q-23 0 -64.5 1.5t-81.5 1.5q-22 0 -22 -9
t17 -9q11 0 22 -0.5t17 -2.5q25 -5 33 -18t10 -39q1 -12 1.5 -25.5t0.5 -36.5v-58v-92v-146zM550 830q22 0 35 14.5t13 35.5t-13.5 32.5t-33.5 11.5q-24 0 -35 -16t-11 -31q0 -16 10.5 -31.5t34.5 -15.5zM339 830q22 0 35 14.5t13 35.5q0 20 -13.5 31.5t-33.5 11.5
q-24 0 -35 -16t-11 -30q0 -16 10.5 -31.5t34.5 -15.5z" />
    <glyph glyph-name="Yacute" unicode="&#xdd;" horiz-adv-x="670" 
d="M276 174q0 -12 -0.5 -40t-2.5 -60q-2 -22 -9 -37t-22 -18q-7 -2 -15.5 -3t-19.5 -1q-16 0 -16 -8q0 -10 22 -10q14 0 31.5 0.5t35.5 1t33.5 1t24.5 0.5q20 0 63 -1.5t90 -1.5q21 0 21 10q0 8 -16 8q-11 0 -25 1t-25 3q-23 3 -31 18t-10 37q-2 32 -2.5 60t-0.5 40v82
q0 25 2 49t13 51q4 11 18 36t32.5 57t39.5 67.5t41 67t36 56t24 34.5q17 20 27.5 30.5t26.5 18.5q11 6 23.5 9t20.5 3q19 0 19 10q0 8 -18 8q-7 0 -21.5 -0.5t-31 -1t-31.5 -1t-23 -0.5q-22 0 -45.5 1.5t-48.5 1.5q-17 0 -17 -9q0 -5 5.5 -6.5t12.5 -3.5q13 -3 17 -10t4 -15
q0 -21 -14 -52q-4 -8 -15.5 -29.5t-27.5 -50t-33.5 -60.5t-33 -60t-27 -48.5t-13.5 -26.5q-4 7 -17 30t-31 53.5t-38 65t-37.5 65.5t-30.5 54t-16 31q-5 11 -8.5 19.5t-3.5 14.5t3.5 11t10.5 7l16.5 4.5t5.5 6.5q0 9 -15 9q-34 0 -62.5 -1.5t-44.5 -1.5q-12 0 -31 0.5
t-37.5 1t-34.5 1t-23 0.5q-19 0 -19 -9q0 -5 4.5 -7t10.5 -2q9 0 20.5 -4t21.5 -9q14 -8 32 -26.5t37 -46.5q9 -13 25 -38.5t35 -56t38.5 -63t36.5 -60t28 -47t13 -23.5q5 -11 9 -21t7 -22t5 -27t2 -35v-82zM501 972q-4 7 -6.5 9.5t-7.5 2.5q-7 0 -20 -9q-6 -4 -26.5 -18.5
t-45 -34t-49.5 -39.5t-40 -34q-9 -9 -9 -13q0 -3 2 -4.5t4 -1.5t6.5 2.5t10.5 5.5q14 7 34.5 16.5t44 18t47.5 15t45 9.5q15 2 22.5 1t11.5 -1t7 3t-2 12q-9 20 -16 34.5t-13 25.5z" />
    <glyph glyph-name="Thorn" unicode="&#xde;" horiz-adv-x="655" 
d="M164 287q0 -69 -0.5 -125t-4.5 -88q-3 -22 -8.5 -37t-20.5 -18q-7 -2 -16 -3t-20 -1q-16 0 -16 -8q0 -10 20 -10q15 0 33.5 0.5t36 1t32.5 1t24 0.5q20 0 62 -1.5t87 -1.5q20 0 20 10q0 8 -13 8q-10 0 -24 1t-25 3q-23 3 -30 18t-9 36q-4 32 -4.5 88.5t-0.5 125.5v238
q0 16 8 19q7 3 18.5 4.5t24.5 1.5q18 0 44 -4.5t52 -30.5q20 -20 31.5 -42t17 -43t6.5 -39t1 -30q0 -35 -12.5 -64.5t-31.5 -51t-42 -33.5t-45 -12q-28 0 -28 -11q0 -5 4 -7t8 -2q4 -1 10 -1h11q53 0 98 17t78 48.5t51.5 75.5t18.5 97q0 39 -16 71t-33 47q-6 6 -18.5 15.5
t-34 18.5t-54 16t-79.5 7q-29 0 -47.5 -1.5t-40.5 -2.5q0 12 0.5 36.5t1.5 53.5q1 22 11 35t34 18q11 2 21.5 3t16.5 1t10.5 2t4.5 7q0 9 -19 9q-20 0 -40.5 -0.5t-39.5 -1t-35 -1t-25 -0.5q-10 0 -26 0.5t-35.5 1t-40.5 1t-41 0.5q-22 0 -22 -9t17 -9q11 0 22 -0.5t17 -2.5
q25 -5 33 -18t10 -39q1 -12 1.5 -25.5t0.5 -36.5v-58v-92v-176z" />
    <glyph glyph-name="germandbls" unicode="&#xdf;" horiz-adv-x="1080" 
d="M239 -14q35 0 75 6t72 29q48 34 68 72.5t20 86.5q0 29 -7.5 55.5t-25 52t-47 50t-72.5 48.5l-36 20q-30 16 -48 30.5t-28 28t-13.5 26.5t-3.5 27q0 22 10 39t26.5 28.5t38 17.5t45.5 6q43 0 65.5 -14t32.5 -26q14 -17 18.5 -33.5t4.5 -22.5q0 -15 9 -15q11 0 11 27
q0 50 1.5 72t1.5 30t-12 11q-17 5 -49.5 9.5t-75.5 4.5q-46 0 -86.5 -12t-70.5 -34.5t-47.5 -54t-17.5 -70.5q0 -28 7 -53t23 -48.5t42.5 -46t65.5 -45.5l51 -30q29 -17 46.5 -33t26.5 -30.5t11.5 -28.5t2.5 -28q0 -45 -32.5 -76.5t-89.5 -31.5q-21 0 -42.5 4.5t-41 14
t-34.5 25.5t-22 40q-4 11 -6 23.5t-2 20.5q0 5 -1.5 9.5t-7.5 4.5q-11 0 -11 -22q-1 -11 -3 -44.5t-2 -68.5q0 -14 3 -19t14 -10q29 -13 67 -17.5t76 -4.5zM779 -14q35 0 75 6t72 29q48 34 68 72.5t20 86.5q0 29 -7.5 55.5t-25 52t-47 50t-72.5 48.5l-36 20q-30 16 -48 30.5
t-28 28t-13.5 26.5t-3.5 27q0 22 10 39t26.5 28.5t38 17.5t45.5 6q43 0 65.5 -14t32.5 -26q14 -17 18.5 -33.5t4.5 -22.5q0 -15 9 -15q11 0 11 27q0 50 1.5 72t1.5 30t-12 11q-17 5 -49.5 9.5t-75.5 4.5q-46 0 -86.5 -12t-70.5 -34.5t-47.5 -54t-17.5 -70.5q0 -28 7 -53
t23 -48.5t42.5 -46t65.5 -45.5l51 -30q29 -17 46.5 -33t26.5 -30.5t11.5 -28.5t2.5 -28q0 -45 -32.5 -76.5t-89.5 -31.5q-21 0 -42.5 4.5t-41 14t-34.5 25.5t-22 40q-4 11 -6 23.5t-2 20.5q0 5 -1.5 9.5t-7.5 4.5q-11 0 -11 -22q-1 -11 -3 -44.5t-2 -68.5q0 -14 3 -19
t14 -10q29 -13 67 -17.5t76 -4.5z" />
    <glyph glyph-name="agrave" unicode="&#xe0;" 
d="M389 211q7 0 9 -6l68 -171q3 -8 0 -13t-8 -6q-11 -1 -11 -9q0 -5 7 -5.5t19 -1.5q56 -2 101 -2h68q25 0 31.5 2t6.5 7q0 9 -12 9q-14 0 -33 3q-6 1 -13.5 4.5t-17 13t-20.5 27t-24 46.5q-14 32 -34.5 80t-43.5 102.5t-47 110t-44 103t-35 82t-20 46.5q-7 14 -11.5 20.5
t-14.5 6.5q-12 0 -26 -34l-230 -535q-14 -32 -28.5 -51t-44.5 -24q-6 0 -13 -0.5t-13 -0.5q-10 0 -10 -9t16 -9q35 0 65 1.5t37 1.5q21 0 48.5 -1.5t49.5 -1.5q14 0 14 9q0 4 -2.5 6.5t-10.5 2.5h-13q-20 0 -27.5 6.5t-7.5 17.5q0 8 3 22t10 30l47 114q2 6 8 6h207zM200 258
q-6 0 -3 6l85 215q1 2 2 5t3 3t2.5 -3t1.5 -5l83 -216q2 -5 -4 -5h-170zM390 725q0 5 -6.5 8.5t-14.5 9.5q-17 12 -35.5 28t-34 31t-27 26.5t-14.5 16.5q-8 11 -10 16.5t-6 5.5t-7.5 -1.5t-11.5 -5.5q-5 -2 -13.5 -5.5t-18 -7l-19 -7t-16.5 -5.5q-13 -3 -13 -9q0 -5 9.5 -12
t23.5 -13q4 -2 20 -9t37 -16t45 -19.5t45.5 -19t36.5 -14t19 -5.5q3 0 7 1.5t4 5.5z" />
    <glyph glyph-name="aacute" unicode="&#xe1;" 
d="M389 211q7 0 9 -6l68 -171q3 -8 0 -13t-8 -6q-11 -1 -11 -9q0 -5 7 -5.5t19 -1.5q56 -2 101 -2h68q25 0 31.5 2t6.5 7q0 9 -12 9q-14 0 -33 3q-6 1 -13.5 4.5t-17 13t-20.5 27t-24 46.5q-14 32 -34.5 80t-43.5 102.5t-47 110t-44 103t-35 82t-20 46.5q-7 14 -11.5 20.5
t-14.5 6.5q-12 0 -26 -34l-230 -535q-14 -32 -28.5 -51t-44.5 -24q-6 0 -13 -0.5t-13 -0.5q-10 0 -10 -9t16 -9q35 0 65 1.5t37 1.5q21 0 48.5 -1.5t49.5 -1.5q14 0 14 9q0 4 -2.5 6.5t-10.5 2.5h-13q-20 0 -27.5 6.5t-7.5 17.5q0 8 3 22t10 30l47 114q2 6 8 6h207zM200 258
q-6 0 -3 6l85 215q1 2 2 5t3 3t2.5 -3t1.5 -5l83 -216q2 -5 -4 -5h-170zM453 860q-4 7 -6.5 9.5t-7.5 2.5q-7 0 -20 -9q-6 -4 -26.5 -18.5t-45 -34t-49.5 -39.5t-40 -34q-9 -9 -9 -13q0 -3 2 -4.5t4 -1.5t6.5 2.5t10.5 5.5q14 7 34.5 16.5t44 18t47.5 15t45 9.5q15 2 22.5 1
t11.5 -1t7 3t-2 12q-9 20 -16 34.5t-13 25.5z" />
    <glyph glyph-name="acircumflex" unicode="&#xe2;" 
d="M389 211q7 0 9 -6l68 -171q3 -8 0 -13t-8 -6q-11 -1 -11 -9q0 -5 7 -5.5t19 -1.5q56 -2 101 -2h68q25 0 31.5 2t6.5 7q0 9 -12 9q-14 0 -33 3q-6 1 -13.5 4.5t-17 13t-20.5 27t-24 46.5q-14 32 -34.5 80t-43.5 102.5t-47 110t-44 103t-35 82t-20 46.5q-7 14 -11.5 20.5
t-14.5 6.5q-12 0 -26 -34l-230 -535q-14 -32 -28.5 -51t-44.5 -24q-6 0 -13 -0.5t-13 -0.5q-10 0 -10 -9t16 -9q35 0 65 1.5t37 1.5q21 0 48.5 -1.5t49.5 -1.5q14 0 14 9q0 4 -2.5 6.5t-10.5 2.5h-13q-20 0 -27.5 6.5t-7.5 17.5q0 8 3 22t10 30l47 114q2 6 8 6h207zM200 258
q-6 0 -3 6l85 215q1 2 2 5t3 3t2.5 -3t1.5 -5l83 -216q2 -5 -4 -5h-170zM322 869q-8 0 -21 -12q-4 -3 -14 -12.5t-24 -22.5t-29.5 -27t-28.5 -27t-23 -22.5t-13 -12.5q-9 -11 -9 -15q0 -10 9 -10q7 0 20 12q11 10 25 20.5t28.5 20.5t28 18.5t24.5 14.5q10 5 15 5t13 -6
q4 -3 15.5 -12t25.5 -20.5t27 -23t20 -18.5q11 -11 15 -11q6 0 13 7l29 29q5 5 5 10q0 2 -3 5t-11 9q-6 4 -24 17.5t-38 29t-37 28t-20 15.5q-15 11 -18 11z" />
    <glyph glyph-name="atilde" unicode="&#xe3;" 
d="M389 211q7 0 9 -6l68 -171q3 -8 0 -13t-8 -6q-11 -1 -11 -9q0 -5 7 -5.5t19 -1.5q56 -2 101 -2h68q25 0 31.5 2t6.5 7q0 9 -12 9q-14 0 -33 3q-6 1 -13.5 4.5t-17 13t-20.5 27t-24 46.5q-14 32 -34.5 80t-43.5 102.5t-47 110t-44 103t-35 82t-20 46.5q-7 14 -11.5 20.5
t-14.5 6.5q-12 0 -26 -34l-230 -535q-14 -32 -28.5 -51t-44.5 -24q-6 0 -13 -0.5t-13 -0.5q-10 0 -10 -9t16 -9q35 0 65 1.5t37 1.5q21 0 48.5 -1.5t49.5 -1.5q14 0 14 9q0 4 -2.5 6.5t-10.5 2.5h-13q-20 0 -27.5 6.5t-7.5 17.5q0 8 3 22t10 30l47 114q2 6 8 6h207zM200 258
q-6 0 -3 6l85 215q1 2 2 5t3 3t2.5 -3t1.5 -5l83 -216q2 -5 -4 -5h-170zM387 718q18 0 34 9.5t29 22t22.5 25t12.5 18.5q2 5 4 9t2 8q0 8 -8 8q-6 0 -16 -13q-2 -2 -6.5 -7t-12 -10t-18.5 -9t-24 -4q-18 0 -35.5 5.5t-36.5 16.5q-17 10 -35.5 19t-44.5 9q-18 0 -34.5 -8.5
t-30 -21t-23.5 -25.5t-16 -22q-2 -3 -5 -9t-3 -10q0 -7 7 -7q3 0 6 1.5t10 8.5q3 3 8.5 9t14 12t19.5 10.5t26 4.5q20 0 35 -7t29 -15q16 -8 37 -18t53 -10z" />
    <glyph glyph-name="adieresis" unicode="&#xe4;" 
d="M389 211q7 0 9 -6l68 -171q3 -8 0 -13t-8 -6q-11 -1 -11 -9q0 -5 7 -5.5t19 -1.5q56 -2 101 -2h68q25 0 31.5 2t6.5 7q0 9 -12 9q-14 0 -33 3q-6 1 -13.5 4.5t-17 13t-20.5 27t-24 46.5q-14 32 -34.5 80t-43.5 102.5t-47 110t-44 103t-35 82t-20 46.5q-7 14 -11.5 20.5
t-14.5 6.5q-12 0 -26 -34l-230 -535q-14 -32 -28.5 -51t-44.5 -24q-6 0 -13 -0.5t-13 -0.5q-10 0 -10 -9t16 -9q35 0 65 1.5t37 1.5q21 0 48.5 -1.5t49.5 -1.5q14 0 14 9q0 4 -2.5 6.5t-10.5 2.5h-13q-20 0 -27.5 6.5t-7.5 17.5q0 8 3 22t10 30l47 114q2 6 8 6h207zM200 258
q-6 0 -3 6l85 215q1 2 2 5t3 3t2.5 -3t1.5 -5l83 -216q2 -5 -4 -5h-170zM421 718q22 0 35 14.5t13 35.5t-13.5 32.5t-33.5 11.5q-24 0 -35 -16t-11 -31q0 -16 10.5 -31.5t34.5 -15.5zM210 718q22 0 35 14.5t13 35.5q0 20 -13.5 31.5t-33.5 11.5q-24 0 -35 -16t-11 -30
q0 -16 10.5 -31.5t34.5 -15.5z" />
    <glyph glyph-name="aring" unicode="&#xe5;" 
d="M389 211q7 0 9 -6l68 -171q3 -8 0 -13t-8 -6q-11 -1 -11 -9q0 -5 7 -5.5t19 -1.5q56 -2 101 -2h68q25 0 31.5 2t6.5 7q0 9 -12 9q-14 0 -33 3q-6 1 -13.5 4.5t-17 13t-20.5 27t-24 46.5q-14 32 -34.5 80t-43.5 102.5t-47 110t-44 103t-35 82t-20 46.5q-7 14 -11.5 20.5
t-14.5 6.5q-12 0 -26 -34l-230 -535q-14 -32 -28.5 -51t-44.5 -24q-6 0 -13 -0.5t-13 -0.5q-10 0 -10 -9t16 -9q35 0 65 1.5t37 1.5q21 0 48.5 -1.5t49.5 -1.5q14 0 14 9q0 4 -2.5 6.5t-10.5 2.5h-13q-20 0 -27.5 6.5t-7.5 17.5q0 8 3 22t10 30l47 114q2 6 8 6h207zM200 258
q-6 0 -3 6l85 215q1 2 2 5t3 3t2.5 -3t1.5 -5l83 -216q2 -5 -4 -5h-170zM290 708q24 0 49.5 6t46.5 18t34 28.5t13 37.5q0 26 -25.5 42t-69.5 16q-29 0 -54 -7.5t-43.5 -19.5t-29 -28t-10.5 -33q0 -26 23.5 -43t65.5 -17zM262 782q0 13 5.5 22t14 15t18.5 9t19 3
q27 0 40 -14t13 -32q0 -21 -17.5 -36.5t-42.5 -15.5q-18 0 -34 13t-16 36z" />
    <glyph glyph-name="ae" unicode="&#xe6;" horiz-adv-x="836" 
d="M414 240q0 -59 -0.5 -104.5t-3.5 -72.5q-2 -19 -7 -30.5t-19 -14.5q-12 -3 -31 -3q-11 0 -11 -10q0 -8 17 -8q12 0 25.5 0.5t27.5 1.5q14 0 25.5 0.5t19.5 0.5h45t57 -2q32 -1 71.5 -2t89.5 -1q13 0 21 0.5t13.5 2.5t8.5 6.5t5 12.5q1 6 3 19t4 27t3 27.5t1 20.5t-2 13.5
t-7 6.5q-8 0 -9 -13q-5 -26 -14 -40.5t-26 -22.5t-40.5 -9t-40.5 -1q-33 0 -56 2.5t-36.5 9.5t-19.5 20t-6 35v130v40q0 8 5 8h28t42.5 -0.5t42.5 -1t26 -1.5q24 -2 34 -11t13 -22q2 -8 2.5 -16t1.5 -15q0 -7 8 -7q6 0 8 6.5t2 11.5t0.5 24.5t2.5 32.5q4 32 5.5 45.5
t1.5 17.5q0 7 -6 7q-5 0 -14 -11q-11 -11 -42 -12q-8 0 -30.5 -0.5t-48 -1t-47.5 -0.5h-29q-6 0 -6 9v238q0 8 6 8h26q21 0 44 -0.5t43 -1t26 -1.5q16 -2 26.5 -4.5t16.5 -6.5t9 -9t5 -11q3 -8 4 -17t1 -14q0 -11 8 -11q5 0 7.5 5t3.5 8q1 4 1.5 12t1 16.5t1 16.5t0.5 11
q2 29 4.5 39.5t2.5 15.5q0 8 -5 8q-3 0 -7 -1.5t-7 -2.5l-15 -3t-23 -2h-29h-44h-51h-50h-41h-25q-21 0 -31.5 1t-15.5 1q-8 0 -11 -12q-2 -5 -5.5 -13.5t-13.5 -23.5q-3 -5 -26.5 -40t-57 -85.5t-72.5 -109.5t-74 -111t-60.5 -89.5t-32.5 -46.5t-15 -20.5t-19 -23.5
t-25.5 -23.5t-33.5 -19.5q-10 -5 -21.5 -6t-17.5 -1q-12 0 -12 -9t12 -9q35 0 67.5 1.5t44.5 1.5q14 0 51 -1.5t79 -1.5q17 0 17 9t-13 9q-12 0 -24.5 1.5t-20.5 5.5q-6 3 -10.5 8t-4.5 14t7.5 28t30.5 56q5 9 18.5 32t28.5 48.5t28 47t17 26.5q4 6 14 6h146q8 0 8 -7v-41z
M414 337q0 -6 -8 -6h-119q-9 0 -4 8q2 4 10.5 18.5t21 35t26.5 44t27.5 45.5t24.5 40.5t17 27.5h4v-213z" />
    <glyph glyph-name="ccedilla" unicode="&#xe7;" horiz-adv-x="705" 
d="M661 143q0 5 -2.5 10t-7.5 5q-8 0 -11 -17q-2 -12 -10.5 -28t-19.5 -29q-26 -29 -62 -37t-94 -8q-44 0 -92.5 18t-89 55t-66.5 93t-26 132q0 31 3.5 61.5t12.5 59t25 54t40 46.5q30 26 69 37t97 11q61 0 104 -14t66 -36q17 -17 25 -38t9 -41q0 -18 9 -18q6 0 8.5 6
t3.5 15q0 6 0.5 17.5t0.5 24.5t0.5 26t1.5 24q2 23 3 32.5t1 14.5q0 9 -13 10q-20 2 -41.5 6t-46.5 8q-30 4 -58.5 6.5t-69.5 2.5q-98 0 -164.5 -24t-114.5 -66q-32 -28 -52 -60t-31 -63t-15.5 -59.5t-4.5 -50.5q0 -31 5 -63.5t17.5 -65t33.5 -64t54 -58.5q48 -40 105 -60.5
t123 -27.5l-80 -60q-10 -8 -13 -10.5t-3 -4.5q0 -5 22 -8q25 -4 40.5 -12t24 -18t11.5 -21.5t3 -21.5q0 -16 -8.5 -28.5t-21 -21t-27.5 -13t-27 -4.5q-11 0 -18.5 -3t-7.5 -10q0 -5 5 -7.5t12 -2.5q54 0 89.5 11t56.5 27.5t29.5 35t8.5 33.5q0 34 -31.5 54.5t-86.5 25.5
l75 55h21q21 0 44 1t44 3t39.5 6t31.5 9q11 5 15.5 9.5t7.5 15.5t6.5 28.5t6.5 35t4.5 31.5t1.5 18z" />
    <glyph glyph-name="egrave" unicode="&#xe8;" horiz-adv-x="576" 
d="M144 244q0 -59 -0.5 -106.5t-3.5 -74.5q-2 -19 -7 -30.5t-19 -14.5q-12 -3 -31 -3q-8 0 -11 -3t-3 -6q0 -9 17 -9q14 0 29.5 0.5t31.5 1.5q16 0 29 0.5t21 0.5q20 0 45 -0.5t57 -1.5q64 -3 162 -3q12 0 20 0.5t13.5 2.5t8.5 6.5t5 12.5q2 6 4 19t4 27t3 27.5t1 20.5
t-1.5 13.5t-6.5 6.5q-7 0 -10 -13q-5 -26 -13 -40.5t-25 -22.5t-41.5 -9.5t-41.5 -1.5q-34 0 -56.5 3t-36 11t-19.5 21.5t-7 35.5v26v35v36v29v68q0 9 5 9q8 0 28.5 -0.5t43 -1t41.5 -1t25 -1.5q25 -2 35 -11t14 -22q2 -8 2 -16t1 -15q0 -7 8 -7q6 0 7.5 7t1.5 12t1 24.5
t3 32.5q4 32 5.5 45t1.5 17q0 9 -7 9q-3 0 -6 -3l-8 -8q-6 -7 -16 -9t-26 -4q-8 -1 -30 -1.5t-47 -0.5h-48h-29q-6 0 -6 9v210q0 8 6 8q7 0 27 -0.5t43 -1t42.5 -1t25.5 -1.5q33 -3 43 -11.5t15 -19.5q4 -8 5 -17t1 -14q0 -11 7 -11q5 0 7 5.5t3 8.5q1 4 1.5 12t1.5 16.5
t1.5 16.5t0.5 11q2 29 4.5 39.5t2.5 15.5q0 8 -6 8q-3 0 -6.5 -1.5t-7.5 -2.5q-5 -1 -15 -2.5t-22 -2.5h-22h-42h-52h-53h-45h-26q-19 0 -55.5 1t-71.5 1q-20 0 -20 -8q0 -9 15 -9q10 0 20 -0.5t15 -2.5q21 -6 28.5 -15t9.5 -31q0 -10 0.5 -21.5t0.5 -30.5v-50v-78v-150z
M381 725q0 5 -6.5 8.5t-14.5 9.5q-17 12 -35.5 28t-34 31t-27 26.5t-14.5 16.5q-8 11 -10 16.5t-6 5.5t-7.5 -1.5t-11.5 -5.5q-5 -2 -13.5 -5.5t-18 -7l-19 -7t-16.5 -5.5q-13 -3 -13 -9q0 -5 9.5 -12t23.5 -13q4 -2 20 -9t37 -16t45 -19.5t45.5 -19t36.5 -14t19 -5.5
q3 0 7 1.5t4 5.5z" />
    <glyph glyph-name="eacute" unicode="&#xe9;" horiz-adv-x="576" 
d="M144 244q0 -59 -0.5 -106.5t-3.5 -74.5q-2 -19 -7 -30.5t-19 -14.5q-12 -3 -31 -3q-8 0 -11 -3t-3 -6q0 -9 17 -9q14 0 29.5 0.5t31.5 1.5q16 0 29 0.5t21 0.5q20 0 45 -0.5t57 -1.5q64 -3 162 -3q12 0 20 0.5t13.5 2.5t8.5 6.5t5 12.5q2 6 4 19t4 27t3 27.5t1 20.5
t-1.5 13.5t-6.5 6.5q-7 0 -10 -13q-5 -26 -13 -40.5t-25 -22.5t-41.5 -9.5t-41.5 -1.5q-34 0 -56.5 3t-36 11t-19.5 21.5t-7 35.5v26v35v36v29v68q0 9 5 9q8 0 28.5 -0.5t43 -1t41.5 -1t25 -1.5q25 -2 35 -11t14 -22q2 -8 2 -16t1 -15q0 -7 8 -7q6 0 7.5 7t1.5 12t1 24.5
t3 32.5q4 32 5.5 45t1.5 17q0 9 -7 9q-3 0 -6 -3l-8 -8q-6 -7 -16 -9t-26 -4q-8 -1 -30 -1.5t-47 -0.5h-48h-29q-6 0 -6 9v210q0 8 6 8q7 0 27 -0.5t43 -1t42.5 -1t25.5 -1.5q33 -3 43 -11.5t15 -19.5q4 -8 5 -17t1 -14q0 -11 7 -11q5 0 7 5.5t3 8.5q1 4 1.5 12t1.5 16.5
t1.5 16.5t0.5 11q2 29 4.5 39.5t2.5 15.5q0 8 -6 8q-3 0 -6.5 -1.5t-7.5 -2.5q-5 -1 -15 -2.5t-22 -2.5h-22h-42h-52h-53h-45h-26q-19 0 -55.5 1t-71.5 1q-20 0 -20 -8q0 -9 15 -9q10 0 20 -0.5t15 -2.5q21 -6 28.5 -15t9.5 -31q0 -10 0.5 -21.5t0.5 -30.5v-50v-78v-150z
M425 860q-4 7 -6.5 9.5t-7.5 2.5q-7 0 -20 -9q-6 -4 -26.5 -18.5t-45 -34t-49.5 -39.5t-40 -34q-9 -9 -9 -13q0 -3 2 -4.5t4 -1.5t6.5 2.5t10.5 5.5q14 7 34.5 16.5t44 18t47.5 15t45 9.5q15 2 22.5 1t11.5 -1t7 3t-2 12q-9 20 -16 34.5t-13 25.5z" />
    <glyph glyph-name="ecircumflex" unicode="&#xea;" horiz-adv-x="576" 
d="M144 244q0 -59 -0.5 -106.5t-3.5 -74.5q-2 -19 -7 -30.5t-19 -14.5q-12 -3 -31 -3q-8 0 -11 -3t-3 -6q0 -9 17 -9q14 0 29.5 0.5t31.5 1.5q16 0 29 0.5t21 0.5q20 0 45 -0.5t57 -1.5q64 -3 162 -3q12 0 20 0.5t13.5 2.5t8.5 6.5t5 12.5q2 6 4 19t4 27t3 27.5t1 20.5
t-1.5 13.5t-6.5 6.5q-7 0 -10 -13q-5 -26 -13 -40.5t-25 -22.5t-41.5 -9.5t-41.5 -1.5q-34 0 -56.5 3t-36 11t-19.5 21.5t-7 35.5v26v35v36v29v68q0 9 5 9q8 0 28.5 -0.5t43 -1t41.5 -1t25 -1.5q25 -2 35 -11t14 -22q2 -8 2 -16t1 -15q0 -7 8 -7q6 0 7.5 7t1.5 12t1 24.5
t3 32.5q4 32 5.5 45t1.5 17q0 9 -7 9q-3 0 -6 -3l-8 -8q-6 -7 -16 -9t-26 -4q-8 -1 -30 -1.5t-47 -0.5h-48h-29q-6 0 -6 9v210q0 8 6 8q7 0 27 -0.5t43 -1t42.5 -1t25.5 -1.5q33 -3 43 -11.5t15 -19.5q4 -8 5 -17t1 -14q0 -11 7 -11q5 0 7 5.5t3 8.5q1 4 1.5 12t1.5 16.5
t1.5 16.5t0.5 11q2 29 4.5 39.5t2.5 15.5q0 8 -6 8q-3 0 -6.5 -1.5t-7.5 -2.5q-5 -1 -15 -2.5t-22 -2.5h-22h-42h-52h-53h-45h-26q-19 0 -55.5 1t-71.5 1q-20 0 -20 -8q0 -9 15 -9q10 0 20 -0.5t15 -2.5q21 -6 28.5 -15t9.5 -31q0 -10 0.5 -21.5t0.5 -30.5v-50v-78v-150z
M294 869q-8 0 -21 -12q-4 -3 -14 -12.5t-24 -22.5t-29.5 -27t-29 -27t-23 -22.5l-12.5 -12.5q-9 -11 -9 -15q0 -10 9 -10q7 0 20 12q11 10 25 20.5t28.5 20.5t28 18.5t24.5 14.5q10 5 15 5t13 -6q4 -3 15.5 -12t25.5 -20.5t27 -23t20 -18.5q11 -11 15 -11q6 0 13 7l29 29
q5 5 5 10q0 2 -3 5t-11 9q-6 4 -24 17.5t-38 29t-37 28t-20 15.5q-15 11 -18 11z" />
    <glyph glyph-name="edieresis" unicode="&#xeb;" horiz-adv-x="576" 
d="M144 244q0 -59 -0.5 -106.5t-3.5 -74.5q-2 -19 -7 -30.5t-19 -14.5q-12 -3 -31 -3q-8 0 -11 -3t-3 -6q0 -9 17 -9q14 0 29.5 0.5t31.5 1.5q16 0 29 0.5t21 0.5q20 0 45 -0.5t57 -1.5q64 -3 162 -3q12 0 20 0.5t13.5 2.5t8.5 6.5t5 12.5q2 6 4 19t4 27t3 27.5t1 20.5
t-1.5 13.5t-6.5 6.5q-7 0 -10 -13q-5 -26 -13 -40.5t-25 -22.5t-41.5 -9.5t-41.5 -1.5q-34 0 -56.5 3t-36 11t-19.5 21.5t-7 35.5v26v35v36v29v68q0 9 5 9q8 0 28.5 -0.5t43 -1t41.5 -1t25 -1.5q25 -2 35 -11t14 -22q2 -8 2 -16t1 -15q0 -7 8 -7q6 0 7.5 7t1.5 12t1 24.5
t3 32.5q4 32 5.5 45t1.5 17q0 9 -7 9q-3 0 -6 -3l-8 -8q-6 -7 -16 -9t-26 -4q-8 -1 -30 -1.5t-47 -0.5h-48h-29q-6 0 -6 9v210q0 8 6 8q7 0 27 -0.5t43 -1t42.5 -1t25.5 -1.5q33 -3 43 -11.5t15 -19.5q4 -8 5 -17t1 -14q0 -11 7 -11q5 0 7 5.5t3 8.5q1 4 1.5 12t1.5 16.5
t1.5 16.5t0.5 11q2 29 4.5 39.5t2.5 15.5q0 8 -6 8q-3 0 -6.5 -1.5t-7.5 -2.5q-5 -1 -15 -2.5t-22 -2.5h-22h-42h-52h-53h-45h-26q-19 0 -55.5 1t-71.5 1q-20 0 -20 -8q0 -9 15 -9q10 0 20 -0.5t15 -2.5q21 -6 28.5 -15t9.5 -31q0 -10 0.5 -21.5t0.5 -30.5v-50v-78v-150z
M402 718q22 0 35 14.5t13 35.5t-13.5 32.5t-33.5 11.5q-24 0 -35 -16t-11 -31q0 -16 10.5 -31.5t34.5 -15.5zM191 718q22 0 35 14.5t13 35.5q0 20 -13.5 31.5t-33.5 11.5q-24 0 -35 -16t-11 -30q0 -16 10.5 -31.5t34.5 -15.5z" />
    <glyph glyph-name="igrave" unicode="&#xec;" horiz-adv-x="407" 
d="M144 244q0 -62 -0.5 -110.5t-3.5 -74.5q-2 -19 -7 -28.5t-19 -12.5q-12 -3 -31 -3q-8 0 -11 -3t-3 -6q0 -9 17 -9q13 0 30 0.5t33.5 1t30 1t21.5 0.5q18 0 58 -1.5t84 -1.5q17 0 17 9q0 3 -3 6t-11 3q-10 0 -23 0.5t-22 2.5q-20 3 -26.5 13t-8.5 27q-3 27 -3.5 75.5
t-0.5 110.5v150v78v50t0.5 30.5t1.5 21.5q2 23 8.5 33t24.5 13q15 3 26 3q14 0 14 10q0 7 -18 7q-13 0 -29 -0.5t-32 -0.5t-30 -0.5t-22 -0.5q-9 0 -24 0.5t-32 0.5t-33.5 0.5t-28.5 0.5q-21 0 -21 -7q0 -10 14 -10q19 0 32 -4q14 -5 21 -14t9 -31q0 -10 0.5 -21.5
t0.5 -30.5v-50v-78v-150zM277 725q0 5 -6.5 8.5t-14.5 9.5q-17 12 -35.5 28t-34 31t-27 26.5t-14.5 16.5q-8 11 -10 16.5t-6 5.5t-7.5 -1.5t-11.5 -5.5q-5 -2 -13.5 -5.5t-18 -7l-19 -7t-16.5 -5.5q-13 -3 -13 -9q0 -5 9.5 -12t23.5 -13q4 -2 20 -9t37 -16t45 -19.5
t45.5 -19t36.5 -14t19 -5.5q3 0 7 1.5t4 5.5z" />
    <glyph glyph-name="iacute" unicode="&#xed;" horiz-adv-x="407" 
d="M144 244q0 -62 -0.5 -110.5t-3.5 -74.5q-2 -19 -7 -28.5t-19 -12.5q-12 -3 -31 -3q-8 0 -11 -3t-3 -6q0 -9 17 -9q13 0 30 0.5t33.5 1t30 1t21.5 0.5q18 0 58 -1.5t84 -1.5q17 0 17 9q0 3 -3 6t-11 3q-10 0 -23 0.5t-22 2.5q-20 3 -26.5 13t-8.5 27q-3 27 -3.5 75.5
t-0.5 110.5v150v78v50t0.5 30.5t1.5 21.5q2 23 8.5 33t24.5 13q15 3 26 3q14 0 14 10q0 7 -18 7q-13 0 -29 -0.5t-32 -0.5t-30 -0.5t-22 -0.5q-9 0 -24 0.5t-32 0.5t-33.5 0.5t-28.5 0.5q-21 0 -21 -7q0 -10 14 -10q19 0 32 -4q14 -5 21 -14t9 -31q0 -10 0.5 -21.5
t0.5 -30.5v-50v-78v-150zM340 860q-4 7 -6.5 9.5t-7.5 2.5q-7 0 -20 -9q-6 -4 -26.5 -18.5t-45 -34t-49.5 -39.5t-40 -34q-9 -9 -9 -13q0 -3 2 -4.5t4 -1.5t6.5 2.5t10.5 5.5q14 7 34.5 16.5t44 18t47.5 15t45 9.5q15 2 22.5 1t11.5 -1t7 3t-2 12q-9 20 -16 34.5t-13 25.5z
" />
    <glyph glyph-name="icircumflex" unicode="&#xee;" horiz-adv-x="407" 
d="M144 244q0 -62 -0.5 -110.5t-3.5 -74.5q-2 -19 -7 -28.5t-19 -12.5q-12 -3 -31 -3q-8 0 -11 -3t-3 -6q0 -9 17 -9q13 0 30 0.5t33.5 1t30 1t21.5 0.5q18 0 58 -1.5t84 -1.5q17 0 17 9q0 3 -3 6t-11 3q-10 0 -23 0.5t-22 2.5q-20 3 -26.5 13t-8.5 27q-3 27 -3.5 75.5
t-0.5 110.5v150v78v50t0.5 30.5t1.5 21.5q2 23 8.5 33t24.5 13q15 3 26 3q14 0 14 10q0 7 -18 7q-13 0 -29 -0.5t-32 -0.5t-30 -0.5t-22 -0.5q-9 0 -24 0.5t-32 0.5t-33.5 0.5t-28.5 0.5q-21 0 -21 -7q0 -10 14 -10q19 0 32 -4q14 -5 21 -14t9 -31q0 -10 0.5 -21.5
t0.5 -30.5v-50v-78v-150zM209 869q-8 0 -21 -12q-4 -3 -14 -12.5t-24 -22.5t-29.5 -27t-28.5 -27t-23 -22.5t-13 -12.5q-9 -11 -9 -15q0 -10 9 -10q7 0 20 12q11 10 25 20.5t28.5 20.5t28 18.5t24.5 14.5q10 5 15 5t13 -6q4 -3 15.5 -12t25.5 -20.5t27 -23t20 -18.5
q11 -11 15 -11q6 0 13 7l29 29q5 5 5 10q0 2 -3 5t-11 9q-6 4 -24 17.5t-38 29t-37 28t-20 15.5q-15 11 -18 11z" />
    <glyph glyph-name="idieresis" unicode="&#xef;" horiz-adv-x="407" 
d="M144 244q0 -62 -0.5 -110.5t-3.5 -74.5q-2 -19 -7 -28.5t-19 -12.5q-12 -3 -31 -3q-8 0 -11 -3t-3 -6q0 -9 17 -9q13 0 30 0.5t33.5 1t30 1t21.5 0.5q18 0 58 -1.5t84 -1.5q17 0 17 9q0 3 -3 6t-11 3q-10 0 -23 0.5t-22 2.5q-20 3 -26.5 13t-8.5 27q-3 27 -3.5 75.5
t-0.5 110.5v150v78v50t0.5 30.5t1.5 21.5q2 23 8.5 33t24.5 13q15 3 26 3q14 0 14 10q0 7 -18 7q-13 0 -29 -0.5t-32 -0.5t-30 -0.5t-22 -0.5q-9 0 -24 0.5t-32 0.5t-33.5 0.5t-28.5 0.5q-21 0 -21 -7q0 -10 14 -10q19 0 32 -4q14 -5 21 -14t9 -31q0 -10 0.5 -21.5
t0.5 -30.5v-50v-78v-150zM308 718q22 0 35 14.5t13 35.5t-13.5 32.5t-33.5 11.5q-24 0 -35 -16t-11 -31q0 -16 10.5 -31.5t34.5 -15.5zM97 718q22 0 35 14.5t13 35.5q0 20 -13.5 31.5t-33.5 11.5q-24 0 -35 -16t-11 -30q0 -16 10.5 -31.5t34.5 -15.5z" />
    <glyph glyph-name="eth" unicode="&#xf0;" horiz-adv-x="833" 
d="M144 298v-54q0 -59 -0.5 -106.5t-3.5 -74.5q-2 -19 -7 -30.5t-19 -14.5q-12 -3 -31 -3q-8 0 -11 -3t-3 -6q0 -9 17 -9q14 0 29.5 0.5t31.5 1.5q16 0 29 0.5t21 0.5q11 0 36.5 -1.5t56.5 -3.5q32 -2 63 -3.5t54 -1.5q50 0 94.5 9.5t81 24.5t64 32t42.5 32q38 38 66.5 98
t28.5 141q0 76 -26 129.5t-59 86.5q-36 36 -80.5 56t-91.5 29t-94 10.5t-88 1.5q-20 0 -41 -0.5t-41 -0.5q-19 0 -35 -0.5t-26 -0.5q-19 0 -55.5 1t-71.5 1q-20 0 -20 -8q0 -9 15 -9q10 0 20 -0.5t15 -2.5q21 -6 28.5 -15t9.5 -31q0 -10 0.5 -21.5t0.5 -30.5v-50v-78v-48
h-77q-11 0 -12 -8l-4 -30q-2 -10 4 -10h89zM262 347v60v97q0 47 1 69q0 13 11 17q6 2 22.5 4t38.5 2q24 0 53 -2t60.5 -10.5t63.5 -24.5t62 -44q14 -13 29 -32.5t27 -46t20 -60t8 -73.5q0 -67 -16 -122t-54 -87q-39 -35 -86 -47.5t-114 -12.5q-52 0 -78.5 11t-35.5 24
q-5 7 -7 27.5t-3 36.5q0 6 -0.5 19.5t-1 30.5t-0.5 37v38v39h167q8 0 10 8l5 32q1 10 -6 10h-176z" />
    <glyph glyph-name="ntilde" unicode="&#xf1;" horiz-adv-x="841" 
d="M189 460h3q6 -6 25.5 -26.5t47.5 -49.5t62.5 -64.5t70.5 -69.5q34 -33 71 -68.5t71.5 -68.5t64 -61t50.5 -47q7 -7 16 -12.5t20 -5.5q5 0 9.5 6.5t4.5 20.5l10 536q1 36 7.5 50.5t24.5 19.5q8 2 14 2.5t13 0.5q15 0 15 9q0 8 -20 8q-32 0 -55 -1t-31 -1q-14 0 -45.5 1
t-66.5 1q-22 0 -22 -8q0 -9 14 -9q9 0 22.5 -0.5t23.5 -4.5q16 -6 22.5 -21t7.5 -54l9 -378h-4q-5 4 -27 26.5t-50.5 51.5t-59.5 60l-53 53q-48 47 -95 93.5t-84.5 84.5t-62.5 63.5t-29 29.5q-11 11 -20.5 19.5t-17.5 8.5q-7 0 -11 -8t-4 -21l-8 -504q0 -28 -1 -46.5
t-4 -30.5t-8 -18t-14 -8t-20 -3t-20 -1q-14 0 -14 -9q0 -6 5.5 -7.5t14.5 -1.5q34 0 61.5 1.5t33.5 1.5q12 0 41.5 -1.5t72.5 -1.5q20 0 20 9t-15 9q-11 0 -23 1t-23 5q-13 5 -20.5 23.5t-9.5 68.5zM491 718q18 0 34 9.5t29 22t22.5 25t12.5 18.5q2 5 4 9t2 8q0 8 -8 8
q-6 0 -16 -13q-2 -2 -6.5 -7t-12 -10t-18.5 -9t-24 -4q-18 0 -35.5 5.5t-36.5 16.5q-17 10 -35.5 19t-44.5 9q-18 0 -34.5 -8.5t-30 -21t-23.5 -25.5t-16 -22q-2 -3 -5 -9t-3 -10q0 -7 7 -7q3 0 6 1.5t10 8.5q3 3 8.5 9t14 12t19.5 10.5t26 4.5q20 0 35 -7t29 -15
q16 -8 37 -18t53 -10z" />
    <glyph glyph-name="ograve" unicode="&#xf2;" horiz-adv-x="827" 
d="M408 -14q85 0 153.5 27t116.5 74t73.5 110.5t25.5 136.5t-25 132t-71.5 100t-113.5 63.5t-150 22.5q-100 0 -170 -31.5t-114.5 -80.5t-64.5 -108t-20 -113q0 -57 20 -116t63.5 -107t112 -79t164.5 -31zM444 32q-62 0 -111.5 24.5t-84 66.5t-52.5 99t-18 123
q0 79 19.5 129.5t50 80t68.5 41t75 11.5q53 0 99.5 -21t81 -60.5t54.5 -96t20 -126.5q0 -91 -23 -144.5t-55 -81.5t-66.5 -36.5t-57.5 -8.5zM487 725q0 5 -6.5 8.5t-14.5 9.5q-17 12 -35.5 28t-34 31t-27 26.5t-14.5 16.5q-8 11 -10 16.5t-6 5.5t-7.5 -1.5t-11.5 -5.5
q-5 -2 -13.5 -5.5t-18 -7l-19 -7t-16.5 -5.5q-13 -3 -13 -9q0 -5 9.5 -12t23.5 -13q4 -2 20 -9t37 -16t45 -19.5t45.5 -19t36.5 -14t19 -5.5q3 0 7 1.5t4 5.5z" />
    <glyph glyph-name="oacute" unicode="&#xf3;" horiz-adv-x="827" 
d="M408 -14q85 0 153.5 27t116.5 74t73.5 110.5t25.5 136.5t-25 132t-71.5 100t-113.5 63.5t-150 22.5q-100 0 -170 -31.5t-114.5 -80.5t-64.5 -108t-20 -113q0 -57 20 -116t63.5 -107t112 -79t164.5 -31zM444 32q-62 0 -111.5 24.5t-84 66.5t-52.5 99t-18 123
q0 79 19.5 129.5t50 80t68.5 41t75 11.5q53 0 99.5 -21t81 -60.5t54.5 -96t20 -126.5q0 -91 -23 -144.5t-55 -81.5t-66.5 -36.5t-57.5 -8.5zM550 860q-4 7 -6.5 9.5t-7.5 2.5q-7 0 -20 -9q-6 -4 -26.5 -18.5t-45 -34t-49.5 -39.5t-40 -34q-9 -9 -9 -13q0 -3 2 -4.5t4 -1.5
t6.5 2.5t10.5 5.5q14 7 34.5 16.5t44 18t47.5 15t45 9.5q15 2 22.5 1t11.5 -1t7 3t-2 12q-9 20 -16 34.5t-13 25.5z" />
    <glyph glyph-name="ocircumflex" unicode="&#xf4;" horiz-adv-x="827" 
d="M408 -14q85 0 153.5 27t116.5 74t73.5 110.5t25.5 136.5t-25 132t-71.5 100t-113.5 63.5t-150 22.5q-100 0 -170 -31.5t-114.5 -80.5t-64.5 -108t-20 -113q0 -57 20 -116t63.5 -107t112 -79t164.5 -31zM444 32q-62 0 -111.5 24.5t-84 66.5t-52.5 99t-18 123
q0 79 19.5 129.5t50 80t68.5 41t75 11.5q53 0 99.5 -21t81 -60.5t54.5 -96t20 -126.5q0 -91 -23 -144.5t-55 -81.5t-66.5 -36.5t-57.5 -8.5zM419 869q-8 0 -21 -12q-4 -3 -14 -12.5t-24 -22.5t-29.5 -27t-29 -27t-23 -22.5l-12.5 -12.5q-9 -11 -9 -15q0 -10 9 -10q7 0 20 12
q11 10 25 20.5t28.5 20.5t28 18.5t24.5 14.5q10 5 15 5t13 -6q4 -3 15.5 -12t25.5 -20.5t27 -23t20 -18.5q11 -11 15 -11q6 0 13 7l29 29q5 5 5 10q0 2 -3 5t-11 9q-6 4 -24 17.5t-38 29t-37 28t-20 15.5q-15 11 -18 11z" />
    <glyph glyph-name="otilde" unicode="&#xf5;" horiz-adv-x="827" 
d="M408 -14q85 0 153.5 27t116.5 74t73.5 110.5t25.5 136.5t-25 132t-71.5 100t-113.5 63.5t-150 22.5q-100 0 -170 -31.5t-114.5 -80.5t-64.5 -108t-20 -113q0 -57 20 -116t63.5 -107t112 -79t164.5 -31zM444 32q-62 0 -111.5 24.5t-84 66.5t-52.5 99t-18 123
q0 79 19.5 129.5t50 80t68.5 41t75 11.5q53 0 99.5 -21t81 -60.5t54.5 -96t20 -126.5q0 -91 -23 -144.5t-55 -81.5t-66.5 -36.5t-57.5 -8.5zM484 718q18 0 34 9.5t29 22t22.5 25t12.5 18.5q2 5 4 9t2 8q0 8 -8 8q-6 0 -16 -13q-2 -2 -6.5 -7t-12 -10t-18.5 -9t-24 -4
q-18 0 -35.5 5.5t-36.5 16.5q-17 10 -35.5 19t-44.5 9q-18 0 -34.5 -8.5t-30 -21t-23.5 -25.5t-16 -22q-2 -3 -5 -9t-3 -10q0 -7 7 -7q3 0 6 1.5t10 8.5q3 3 8.5 9t14 12t19.5 10.5t26 4.5q20 0 35 -7t29 -15q16 -8 37 -18t53 -10z" />
    <glyph glyph-name="odieresis" unicode="&#xf6;" horiz-adv-x="827" 
d="M408 -14q85 0 153.5 27t116.5 74t73.5 110.5t25.5 136.5t-25 132t-71.5 100t-113.5 63.5t-150 22.5q-100 0 -170 -31.5t-114.5 -80.5t-64.5 -108t-20 -113q0 -57 20 -116t63.5 -107t112 -79t164.5 -31zM444 32q-62 0 -111.5 24.5t-84 66.5t-52.5 99t-18 123
q0 79 19.5 129.5t50 80t68.5 41t75 11.5q53 0 99.5 -21t81 -60.5t54.5 -96t20 -126.5q0 -91 -23 -144.5t-55 -81.5t-66.5 -36.5t-57.5 -8.5zM518 718q22 0 35 14.5t13 35.5t-13.5 32.5t-33.5 11.5q-24 0 -35 -16t-11 -31q0 -16 10.5 -31.5t34.5 -15.5zM307 718q22 0 35 14.5
t13 35.5q0 20 -13.5 31.5t-33.5 11.5q-24 0 -35 -16t-11 -30q0 -16 10.5 -31.5t34.5 -15.5z" />
    <glyph glyph-name="divide" unicode="&#xf7;" horiz-adv-x="549" 
d="M326 420q0 25 -14.5 40.5t-38.5 15.5t-39 -15.5t-15 -40.5q0 -24 14.5 -40t37.5 -16h1q25 0 39.5 16t14.5 40zM509 223v61h-469v-61h469zM326 87q0 25 -14.5 40.5t-38.5 15.5t-39 -15.5t-15 -40.5q0 -24 14.5 -40t37.5 -16h1q25 0 39.5 16t14.5 40z" />
    <glyph glyph-name="oslash" unicode="&#xf8;" horiz-adv-x="822" 
d="M181 51q39 -33 96.5 -49t129.5 -16q84 0 151.5 27t114.5 74t72.5 110.5t25.5 136.5q0 142 -90 224l65 65q4 4 0 9l-25 26q-7 7 -12 2l-66 -70q-44 30 -100 46t-131 16q-99 0 -168.5 -31.5t-113 -80.5t-63 -108t-19.5 -113q0 -61 22.5 -124t73.5 -113l-75 -72q-4 -4 2 -9
l27 -25q4 -5 9 0zM600 476q20 -36 30.5 -78.5t10.5 -95.5q0 -90 -22.5 -144t-54 -82t-65 -36.5t-56.5 -8.5q-126 0 -194 89zM222 160q-43 77 -43 184q0 79 19.5 130t49.5 80.5t67.5 40.5t73.5 11q56 0 103 -19.5t82 -68.5z" />
    <glyph glyph-name="ugrave" unicode="&#xf9;" horiz-adv-x="760" 
d="M106 269q0 -92 23 -144t57 -81q24 -21 52 -32.5t55.5 -17.5t52 -7t41.5 -1q43 0 91 11t95 50q28 23 44.5 52.5t25.5 63t11.5 69t2.5 71.5v91v78q0 31 0.5 50t1 30.5t0.5 21.5q2 23 8 33t24 13q8 2 13 2.5t13 0.5q15 0 15 9q0 8 -18 8q-13 0 -29 -0.5t-32 -0.5
q-15 0 -26.5 -0.5t-15.5 -0.5l-10.5 0.5t-25.5 0.5t-33.5 0.5t-35.5 0.5q-18 0 -18 -8q0 -9 15 -9q8 0 17.5 -0.5t14.5 -2.5q21 -6 28 -15t9 -31q0 -10 0.5 -21.5t1 -30.5t0.5 -50v-78v-107q0 -33 -1 -63t-6 -56t-15.5 -48.5t-28.5 -39.5q-26 -26 -57.5 -35.5t-60.5 -9.5
q-23 0 -52.5 5.5t-58.5 28.5q-16 13 -28.5 29t-21 40t-13 57t-4.5 80v119v78v50t0.5 30.5t1.5 21.5q2 23 8.5 33t23.5 13q8 2 13 2.5t13 0.5q14 0 14 9q0 8 -19 8q-12 0 -28 -0.5t-32 -0.5t-30.5 -0.5t-22.5 -0.5q-10 0 -25 0.5t-33 0.5t-37 0.5t-37 0.5q-19 0 -19 -8
q0 -9 15 -9q9 0 19 -0.5t15 -2.5q21 -6 28.5 -14.5t9.5 -31.5q1 -10 1 -22v-30v-50v-78v-125zM454 725q0 5 -6.5 8.5t-14.5 9.5q-17 12 -35.5 28t-34 31t-27 26.5t-14.5 16.5q-8 11 -10 16.5t-6 5.5t-7.5 -1.5t-11.5 -5.5q-5 -2 -13.5 -5.5t-18 -7l-19 -7t-16.5 -5.5
q-13 -3 -13 -9q0 -5 9.5 -12t23.5 -13q4 -2 20 -9t37 -16t45 -19.5t45.5 -19t36.5 -14t19 -5.5q3 0 7 1.5t4 5.5z" />
    <glyph glyph-name="uacute" unicode="&#xfa;" horiz-adv-x="760" 
d="M106 269q0 -92 23 -144t57 -81q24 -21 52 -32.5t55.5 -17.5t52 -7t41.5 -1q43 0 91 11t95 50q28 23 44.5 52.5t25.5 63t11.5 69t2.5 71.5v91v78q0 31 0.5 50t1 30.5t0.5 21.5q2 23 8 33t24 13q8 2 13 2.5t13 0.5q15 0 15 9q0 8 -18 8q-13 0 -29 -0.5t-32 -0.5
q-15 0 -26.5 -0.5t-15.5 -0.5l-10.5 0.5t-25.5 0.5t-33.5 0.5t-35.5 0.5q-18 0 -18 -8q0 -9 15 -9q8 0 17.5 -0.5t14.5 -2.5q21 -6 28 -15t9 -31q0 -10 0.5 -21.5t1 -30.5t0.5 -50v-78v-107q0 -33 -1 -63t-6 -56t-15.5 -48.5t-28.5 -39.5q-26 -26 -57.5 -35.5t-60.5 -9.5
q-23 0 -52.5 5.5t-58.5 28.5q-16 13 -28.5 29t-21 40t-13 57t-4.5 80v119v78v50t0.5 30.5t1.5 21.5q2 23 8.5 33t23.5 13q8 2 13 2.5t13 0.5q14 0 14 9q0 8 -19 8q-12 0 -28 -0.5t-32 -0.5t-30.5 -0.5t-22.5 -0.5q-10 0 -25 0.5t-33 0.5t-37 0.5t-37 0.5q-19 0 -19 -8
q0 -9 15 -9q9 0 19 -0.5t15 -2.5q21 -6 28.5 -14.5t9.5 -31.5q1 -10 1 -22v-30v-50v-78v-125zM517 860q-4 7 -6.5 9.5t-7.5 2.5q-7 0 -20 -9q-6 -4 -26.5 -18.5t-45 -34t-49.5 -39.5t-40 -34q-9 -9 -9 -13q0 -3 2 -4.5t4 -1.5t6.5 2.5t10.5 5.5q14 7 34.5 16.5t44 18
t47.5 15t45 9.5q15 2 22.5 1t11.5 -1t7 3t-2 12q-9 20 -16 34.5t-13 25.5z" />
    <glyph glyph-name="ucircumflex" unicode="&#xfb;" horiz-adv-x="760" 
d="M106 269q0 -92 23 -144t57 -81q24 -21 52 -32.5t55.5 -17.5t52 -7t41.5 -1q43 0 91 11t95 50q28 23 44.5 52.5t25.5 63t11.5 69t2.5 71.5v91v78q0 31 0.5 50t1 30.5t0.5 21.5q2 23 8 33t24 13q8 2 13 2.5t13 0.5q15 0 15 9q0 8 -18 8q-13 0 -29 -0.5t-32 -0.5
q-15 0 -26.5 -0.5t-15.5 -0.5l-10.5 0.5t-25.5 0.5t-33.5 0.5t-35.5 0.5q-18 0 -18 -8q0 -9 15 -9q8 0 17.5 -0.5t14.5 -2.5q21 -6 28 -15t9 -31q0 -10 0.5 -21.5t1 -30.5t0.5 -50v-78v-107q0 -33 -1 -63t-6 -56t-15.5 -48.5t-28.5 -39.5q-26 -26 -57.5 -35.5t-60.5 -9.5
q-23 0 -52.5 5.5t-58.5 28.5q-16 13 -28.5 29t-21 40t-13 57t-4.5 80v119v78v50t0.5 30.5t1.5 21.5q2 23 8.5 33t23.5 13q8 2 13 2.5t13 0.5q14 0 14 9q0 8 -19 8q-12 0 -28 -0.5t-32 -0.5t-30.5 -0.5t-22.5 -0.5q-10 0 -25 0.5t-33 0.5t-37 0.5t-37 0.5q-19 0 -19 -8
q0 -9 15 -9q9 0 19 -0.5t15 -2.5q21 -6 28.5 -14.5t9.5 -31.5q1 -10 1 -22v-30v-50v-78v-125zM386 869q-8 0 -21 -12q-4 -3 -14 -12.5t-24 -22.5t-29.5 -27t-29 -27t-23 -22.5l-12.5 -12.5q-9 -11 -9 -15q0 -10 9 -10q7 0 20 12q11 10 25 20.5t28.5 20.5t28 18.5t24.5 14.5
q10 5 15 5t13 -6q4 -3 15.5 -12t25.5 -20.5t27 -23t20 -18.5q11 -11 15 -11q6 0 13 7l29 29q5 5 5 10q0 2 -3 5t-11 9q-6 4 -24 17.5t-38 29t-37 28t-20 15.5q-15 11 -18 11z" />
    <glyph glyph-name="udieresis" unicode="&#xfc;" horiz-adv-x="760" 
d="M106 269q0 -92 23 -144t57 -81q24 -21 52 -32.5t55.5 -17.5t52 -7t41.5 -1q43 0 91 11t95 50q28 23 44.5 52.5t25.5 63t11.5 69t2.5 71.5v91v78q0 31 0.5 50t1 30.5t0.5 21.5q2 23 8 33t24 13q8 2 13 2.5t13 0.5q15 0 15 9q0 8 -18 8q-13 0 -29 -0.5t-32 -0.5
q-15 0 -26.5 -0.5t-15.5 -0.5l-10.5 0.5t-25.5 0.5t-33.5 0.5t-35.5 0.5q-18 0 -18 -8q0 -9 15 -9q8 0 17.5 -0.5t14.5 -2.5q21 -6 28 -15t9 -31q0 -10 0.5 -21.5t1 -30.5t0.5 -50v-78v-107q0 -33 -1 -63t-6 -56t-15.5 -48.5t-28.5 -39.5q-26 -26 -57.5 -35.5t-60.5 -9.5
q-23 0 -52.5 5.5t-58.5 28.5q-16 13 -28.5 29t-21 40t-13 57t-4.5 80v119v78v50t0.5 30.5t1.5 21.5q2 23 8.5 33t23.5 13q8 2 13 2.5t13 0.5q14 0 14 9q0 8 -19 8q-12 0 -28 -0.5t-32 -0.5t-30.5 -0.5t-22.5 -0.5q-10 0 -25 0.5t-33 0.5t-37 0.5t-37 0.5q-19 0 -19 -8
q0 -9 15 -9q9 0 19 -0.5t15 -2.5q21 -6 28.5 -14.5t9.5 -31.5q1 -10 1 -22v-30v-50v-78v-125zM494 718q22 0 35 14.5t13 35.5t-13.5 32.5t-33.5 11.5q-24 0 -35 -16t-11 -31q0 -16 10.5 -31.5t34.5 -15.5zM283 718q22 0 35 14.5t13 35.5q0 20 -13.5 31.5t-33.5 11.5
q-24 0 -35 -16t-11 -30q0 -16 10.5 -31.5t34.5 -15.5z" />
    <glyph glyph-name="yacute" unicode="&#xfd;" horiz-adv-x="590" 
d="M239 148q0 -11 -0.5 -34.5t-2.5 -50.5q-2 -19 -7.5 -30.5t-19.5 -14.5q-12 -3 -31 -3q-8 0 -11 -3t-3 -6q0 -9 19 -9q12 0 28.5 0.5t32.5 1t30.5 1t22.5 0.5q9 0 24 -0.5t33.5 -1t39 -1t41.5 -0.5q19 0 19 9q0 3 -3.5 6t-11.5 3q-9 0 -21.5 0.5t-22.5 2.5q-20 3 -27 14.5
t-9 30.5q-2 27 -2 50v35v68q0 21 0.5 41.5t10.5 43.5q4 9 16 30.5t29 48.5t36 57.5t36.5 58t32 48t21.5 29.5q14 17 23 25t23 15q22 10 38 10q17 0 17 10q0 7 -16 7q-6 0 -19 -0.5t-28 -0.5q-14 0 -27 -0.5t-20 -0.5q-20 0 -42 1t-44 1q-15 0 -15 -8q0 -5 5 -6.5t11 -3.5
q11 -2 15 -7.5t4 -11.5q0 -18 -13 -45q-3 -7 -13.5 -25t-24 -41.5t-29 -50t-29 -49.5t-23 -40t-12.5 -22q-4 6 -15 25t-26 44.5t-31.5 54.5t-31.5 54.5t-26.5 44.5t-15.5 26q-11 19 -11 29t12 13q11 3 15.5 4.5t4.5 6.5q0 8 -13 8q-30 0 -58 -1t-42 -1q-11 0 -27.5 0.5
t-33.5 0.5q-16 0 -29.5 0.5t-19.5 0.5q-17 0 -17 -8q0 -9 13 -9q8 0 18.5 -3t18.5 -8q13 -7 26.5 -22t30.5 -38q8 -11 22 -32.5t31 -48t35 -54t32.5 -51t24.5 -40t12 -19.5q9 -19 14.5 -36.5t5.5 -52.5v-70zM432 860q-4 7 -6.5 9.5t-7.5 2.5q-7 0 -20 -9q-6 -4 -26.5 -18.5
t-45 -34t-49.5 -39.5t-40 -34q-9 -9 -9 -13q0 -3 2 -4.5t4 -1.5t6.5 2.5t10.5 5.5q14 7 34.5 16.5t44 18t47.5 15t45 9.5q15 2 22.5 1t11.5 -1t7 3t-2 12q-9 20 -16 34.5t-13 25.5z" />
    <glyph glyph-name="thorn" unicode="&#xfe;" horiz-adv-x="598" 
d="M144 244q0 -59 -0.5 -106.5t-3.5 -74.5q-2 -19 -7 -30.5t-19 -14.5q-12 -3 -31 -3q-8 0 -11 -3t-3 -6q0 -9 17 -9q13 0 29 0.5l32 1t29 1t21 0.5q9 0 24 -0.5t34 -1t40 -1t41 -0.5q18 0 18 9q0 3 -3.5 6t-8.5 3q-8 0 -20.5 0.5t-22.5 2.5q-20 3 -26 14.5t-8 29.5
q-3 28 -3.5 75.5t-0.5 106.5v198q0 15 7 16q12 6 37 6q17 0 41.5 -4t47.5 -25q18 -17 28 -35.5t14.5 -35.5t5.5 -32t1 -25q0 -30 -10.5 -55t-28 -42.5t-38.5 -27.5t-42 -10q-25 0 -25 -11q0 -5 3.5 -6.5t7.5 -1.5q3 -1 13 -1h13q49 0 89.5 14.5t69.5 41.5t45.5 64t16.5 82
q0 34 -14 61t-29 40q-6 5 -18 13t-33 16t-52 13.5t-73 5.5q-26 0 -41.5 -0.5t-35.5 -2.5v31t1 45q1 19 10 29.5t30 13.5q9 2 18.5 3t14.5 1t9.5 2.5t4.5 6.5q0 8 -17 8t-36.5 -0.5t-38.5 -0.5q-18 0 -33 -0.5t-23 -0.5q-9 0 -23.5 0.5t-31.5 0.5t-35.5 0.5t-35.5 0.5
q-20 0 -20 -8q0 -9 15 -9q10 0 20 -0.5t15 -2.5q21 -5 28.5 -14.5t9.5 -31.5q0 -10 0.5 -21.5t0.5 -30.5v-50v-78v-150z" />
    <glyph glyph-name="ydieresis" unicode="&#xff;" horiz-adv-x="590" 
d="M239 148q0 -11 -0.5 -34.5t-2.5 -50.5q-2 -19 -7.5 -30.5t-19.5 -14.5q-12 -3 -31 -3q-8 0 -11 -3t-3 -6q0 -9 19 -9q12 0 28.5 0.5t32.5 1t30.5 1t22.5 0.5q9 0 24 -0.5t33.5 -1t39 -1t41.5 -0.5q19 0 19 9q0 3 -3.5 6t-11.5 3q-9 0 -21.5 0.5t-22.5 2.5q-20 3 -27 14.5
t-9 30.5q-2 27 -2 50v35v68q0 21 0.5 41.5t10.5 43.5q4 9 16 30.5t29 48.5t36 57.5t36.5 58t32 48t21.5 29.5q14 17 23 25t23 15q22 10 38 10q17 0 17 10q0 7 -16 7q-6 0 -19 -0.5t-28 -0.5q-14 0 -27 -0.5t-20 -0.5q-20 0 -42 1t-44 1q-15 0 -15 -8q0 -5 5 -6.5t11 -3.5
q11 -2 15 -7.5t4 -11.5q0 -18 -13 -45q-3 -7 -13.5 -25t-24 -41.5t-29 -50t-29 -49.5t-23 -40t-12.5 -22q-4 6 -15 25t-26 44.5t-31.5 54.5t-31.5 54.5t-26.5 44.5t-15.5 26q-11 19 -11 29t12 13q11 3 15.5 4.5t4.5 6.5q0 8 -13 8q-30 0 -58 -1t-42 -1q-11 0 -27.5 0.5
t-33.5 0.5q-16 0 -29.5 0.5t-19.5 0.5q-17 0 -17 -8q0 -9 13 -9q8 0 18.5 -3t18.5 -8q13 -7 26.5 -22t30.5 -38q8 -11 22 -32.5t31 -48t35 -54t32.5 -51t24.5 -40t12 -19.5q9 -19 14.5 -36.5t5.5 -52.5v-70zM400 718q22 0 35 14.5t13 35.5t-13.5 32.5t-33.5 11.5
q-24 0 -35 -16t-11 -31q0 -16 10.5 -31.5t34.5 -15.5zM189 718q22 0 35 14.5t13 35.5q0 20 -13.5 31.5t-33.5 11.5q-24 0 -35 -16t-11 -30q0 -16 10.5 -31.5t34.5 -15.5z" />
    <glyph glyph-name="Amacron" unicode="&#x100;" horiz-adv-x="700" 
d="M427 258q7 0 10 -7l80 -212q4 -9 0 -15t-9 -8q-14 -1 -14 -9q0 -5 8 -6t22 -2q60 -2 111 -2h78q28 0 37 2t9 8q0 8 -13 8q-9 0 -20 1t-22 3q-8 2 -17.5 6.5t-20.5 16t-23.5 32t-26.5 54.5q-16 38 -39 94.5t-48.5 120.5t-51.5 129t-48 121t-38.5 96t-22.5 54
q-14 32 -25 32q-8 0 -13.5 -9t-14.5 -31l-251 -628q-15 -38 -32.5 -61.5t-52.5 -28.5q-6 -1 -15 -1.5t-16 -0.5q-12 0 -12 -8q0 -10 19 -10t38.5 0.5t36 1t28 1t15.5 0.5q23 0 52.5 -1.5t53.5 -1.5q17 0 17 10q0 5 -3 6.5t-12 1.5h-15q-23 0 -31.5 8.5t-8.5 22.5
q0 9 3.5 25.5t11.5 35.5l54 143q3 8 9 8h223zM224 308q-6 0 -4 7l92 246q1 3 2.5 6t3.5 3t3 -3l2 -6l90 -247q2 -6 -5 -6h-184zM465 857q9 0 11 6l8 36q3 10 -8 10h-240q-8 0 -11 -9l-8 -36q-1 -7 8 -7h240z" />
    <glyph glyph-name="amacron" unicode="&#x101;" 
d="M389 211q7 0 9 -6l68 -171q3 -8 0 -13t-8 -6q-11 -1 -11 -9q0 -5 7 -5.5t19 -1.5q56 -2 101 -2h68q25 0 31.5 2t6.5 7q0 9 -12 9q-14 0 -33 3q-6 1 -13.5 4.5t-17 13t-20.5 27t-24 46.5q-14 32 -34.5 80t-43.5 102.5t-47 110t-44 103t-35 82t-20 46.5q-7 14 -11.5 20.5
t-14.5 6.5q-12 0 -26 -34l-230 -535q-14 -32 -28.5 -51t-44.5 -24q-6 0 -13 -0.5t-13 -0.5q-10 0 -10 -9t16 -9q35 0 65 1.5t37 1.5q21 0 48.5 -1.5t49.5 -1.5q14 0 14 9q0 4 -2.5 6.5t-10.5 2.5h-13q-20 0 -27.5 6.5t-7.5 17.5q0 8 3 22t10 30l47 114q2 6 8 6h207zM200 258
q-6 0 -3 6l85 215q1 2 2 5t3 3t2.5 -3t1.5 -5l83 -216q2 -5 -4 -5h-170zM431 745q9 0 11 6l8 36q3 10 -8 10h-240q-8 0 -11 -9l-8 -36q-1 -7 8 -7h240z" />
    <glyph glyph-name="Abreve" unicode="&#x102;" horiz-adv-x="700" 
d="M427 258q7 0 10 -7l80 -212q4 -9 0 -15t-9 -8q-14 -1 -14 -9q0 -5 8 -6t22 -2q60 -2 111 -2h78q28 0 37 2t9 8q0 8 -13 8q-9 0 -20 1t-22 3q-8 2 -17.5 6.5t-20.5 16t-23.5 32t-26.5 54.5q-16 38 -39 94.5t-48.5 120.5t-51.5 129t-48 121t-38.5 96t-22.5 54
q-14 32 -25 32q-8 0 -13.5 -9t-14.5 -31l-251 -628q-15 -38 -32.5 -61.5t-52.5 -28.5q-6 -1 -15 -1.5t-16 -0.5q-12 0 -12 -8q0 -10 19 -10t38.5 0.5t36 1t28 1t15.5 0.5q23 0 52.5 -1.5t53.5 -1.5q17 0 17 10q0 5 -3 6.5t-12 1.5h-15q-23 0 -31.5 8.5t-8.5 22.5
q0 9 3.5 25.5t11.5 35.5l54 143q3 8 9 8h223zM224 308q-6 0 -4 7l92 246q1 3 2.5 6t3.5 3t3 -3l2 -6l90 -247q2 -6 -5 -6h-184zM197 921q0 -6 13 -18.5t24 -21.5q22 -18 50 -27t49 -9q38 0 60.5 8.5t47.5 25.5q9 6 19.5 16t20.5 21t16.5 21t6.5 16q0 9 -8 9q-5 0 -13 -9.5
t-31 -27.5q-8 -5 -31.5 -16.5t-56.5 -11.5q-20 0 -43 6.5t-49 37.5q-7 8 -11.5 15.5t-9.5 7.5q-2 0 -5 -1t-8 -6l-33 -26q-2 -2 -5 -3.5t-3 -6.5z" />
    <glyph glyph-name="abreve" unicode="&#x103;" 
d="M389 211q7 0 9 -6l68 -171q3 -8 0 -13t-8 -6q-11 -1 -11 -9q0 -5 7 -5.5t19 -1.5q56 -2 101 -2h68q25 0 31.5 2t6.5 7q0 9 -12 9q-14 0 -33 3q-6 1 -13.5 4.5t-17 13t-20.5 27t-24 46.5q-14 32 -34.5 80t-43.5 102.5t-47 110t-44 103t-35 82t-20 46.5q-7 14 -11.5 20.5
t-14.5 6.5q-12 0 -26 -34l-230 -535q-14 -32 -28.5 -51t-44.5 -24q-6 0 -13 -0.5t-13 -0.5q-10 0 -10 -9t16 -9q35 0 65 1.5t37 1.5q21 0 48.5 -1.5t49.5 -1.5q14 0 14 9q0 4 -2.5 6.5t-10.5 2.5h-13q-20 0 -27.5 6.5t-7.5 17.5q0 8 3 22t10 30l47 114q2 6 8 6h207zM200 258
q-6 0 -3 6l85 215q1 2 2 5t3 3t2.5 -3t1.5 -5l83 -216q2 -5 -4 -5h-170zM163 794q0 -6 13 -18.5t24 -21.5q22 -18 50 -27t49 -9q38 0 60.5 8.5t47.5 25.5q9 6 19.5 16t20.5 21t16.5 21t6.5 16q0 9 -8 9q-5 0 -13 -9.5t-31 -27.5q-8 -5 -31.5 -16.5t-56.5 -11.5
q-20 0 -43 6.5t-49 37.5q-7 8 -11.5 15.5t-9.5 7.5q-2 0 -5 -1t-8 -6l-33 -26q-2 -2 -5 -3.5t-3 -6.5z" />
    <glyph glyph-name="Aogonek" unicode="&#x104;" horiz-adv-x="700" 
d="M224 308q-6 0 -4 7l92 246q1 3 2.5 6t3.5 3t3 -3l2 -6l90 -247q2 -6 -5 -6h-184zM554 -170q-58 0 -58 49q0 30 15 63t48 49q12 6 33.5 7.5t43.5 1.5q23 0 44 -1.5t33 -1.5q28 0 37 2t9 8q0 8 -13 8q-9 0 -20 1t-22 3q-8 2 -17.5 6.5t-20.5 16t-23.5 32t-26.5 54.5
q-16 38 -39 94.5t-48.5 120.5t-51.5 129t-48 121t-38.5 96t-22.5 54q-14 32 -25 32q-8 0 -13.5 -9t-14.5 -31l-251 -628q-15 -38 -32.5 -61.5t-52.5 -28.5q-6 -1 -15 -1.5t-16 -0.5q-12 0 -12 -8q0 -10 19 -10t38.5 0.5t36 1t28 1t15.5 0.5q23 0 52.5 -1.5t53.5 -1.5
q17 0 17 10q0 5 -3 6.5t-12 1.5h-15q-23 0 -31.5 8.5t-8.5 22.5q0 9 3.5 25.5t11.5 35.5l54 143q3 8 9 8h223q7 0 10 -7l80 -212q2 -7 4.5 -12t2.5 -10q0 -15 -12 -22q-9 -5 -27 -20t-35.5 -35.5t-30.5 -44.5t-13 -46q0 -41 22.5 -58.5t68.5 -17.5q25 0 46.5 9t37.5 20
t26 22t14 15q3 4 5.5 8.5t2.5 7.5q0 8 -9 8q-4 0 -9.5 -5t-13 -11.5t-18.5 -11.5t-25 -5z" />
    <glyph glyph-name="aogonek" unicode="&#x105;" 
d="M200 258q-6 0 -3 6l85 215q1 2 2 5t3 3t2.5 -3t1.5 -5l83 -216q2 -5 -4 -5h-170zM488 -170q-58 0 -58 49q0 32 11 55t27 37.5t33.5 21.5t31.5 7q13 0 29.5 -0.5t32.5 -0.5q16 -1 29 -1.5t18 -0.5q25 0 31.5 2t6.5 7q0 9 -12 9q-14 0 -33 3q-6 1 -13.5 4.5t-17 13
t-20.5 27t-24 46.5q-14 32 -34.5 80t-43.5 102.5t-47 110t-44 103t-35 82t-20 46.5q-7 14 -11.5 20.5t-14.5 6.5q-12 0 -26 -34l-230 -535q-14 -32 -28.5 -51t-44.5 -24q-6 0 -13 -0.5t-13 -0.5q-10 0 -10 -9t16 -9q35 0 65 1.5t37 1.5q21 0 48.5 -1.5t49.5 -1.5q14 0 14 9
q0 4 -2.5 6.5t-10.5 2.5h-13q-20 0 -27.5 6.5t-7.5 17.5q0 8 3 22t10 30l47 114q2 6 8 6h207q7 0 9 -6l68 -171q3 -8 3.5 -10t0.5 -7q0 -4 -20.5 -19t-44.5 -38t-44.5 -52t-20.5 -59q0 -41 22.5 -58.5t68.5 -17.5q25 0 46.5 9t37.5 20t26 22t14 15q3 4 5.5 8.5t2.5 7.5
q0 8 -9 8q-4 0 -9.5 -5t-13 -11.5t-18.5 -11.5t-25 -5z" />
    <glyph glyph-name="Cacute" unicode="&#x106;" horiz-adv-x="800" 
d="M522 -17q24 0 49.5 1.5t49.5 4t45 7t36 10.5q13 5 17.5 10.5t8.5 18.5t8 33.5t7 41t5 37t2 21.5q0 6 -2 10.5t-7 4.5q-6 0 -8.5 -4t-4.5 -16q-3 -14 -12 -33t-22 -33q-30 -35 -73 -45.5t-110 -10.5q-50 0 -105.5 22t-102 66.5t-77 111.5t-30.5 156q0 73 18.5 140.5
t73.5 118.5q33 30 77.5 46t110.5 16q69 0 123.5 -18t79.5 -44q19 -20 28.5 -44.5t10.5 -47.5q0 -22 10 -22q7 0 9 6t3 17q1 7 1 20q0 14 0.5 29t0.5 31t1 28q2 26 3.5 37.5t1.5 17.5q0 11 -15 12q-23 2 -47 7.5t-53 9.5q-35 5 -66.5 7.5t-78.5 2.5q-112 0 -187 -28t-129 -78
q-36 -33 -59 -70.5t-35.5 -74t-17.5 -70.5t-5 -59q0 -36 5.5 -74.5t19.5 -77t38 -75t61 -68.5q69 -60 154.5 -84.5t188.5 -24.5zM591 972q-4 7 -6.5 9.5t-7.5 2.5q-7 0 -20 -9q-6 -4 -26.5 -18.5t-45 -34t-49.5 -39.5t-40 -34q-9 -9 -9 -13q0 -3 2 -4.5t4 -1.5t6.5 2.5
t10.5 5.5q14 7 34.5 16.5t44 18t47.5 15t45 9.5q15 2 22.5 1t11.5 -1t7 3t-2 12q-9 20 -16 34.5t-13 25.5z" />
    <glyph glyph-name="cacute" unicode="&#x107;" horiz-adv-x="705" 
d="M460 -14q21 0 44 1t44 3t39.5 6t31.5 9q11 5 15.5 9.5t7.5 15.5t6.5 28.5t6.5 35t4.5 31.5t1.5 18q0 5 -2.5 10t-7.5 5q-8 0 -11 -17q-2 -12 -10.5 -28t-19.5 -29q-26 -29 -62 -37t-94 -8q-44 0 -92.5 18t-89 55t-66.5 93t-26 132q0 31 3.5 61.5t12.5 59t25 54t40 46.5
q30 26 69 37t97 11q61 0 104 -14t66 -36q17 -17 25 -38t9 -41q0 -18 9 -18q6 0 8.5 6t3.5 15q0 6 0.5 17.5t0.5 24.5t0.5 26t1.5 24q2 23 3 32.5t1 14.5q0 9 -13 10q-20 2 -41.5 6t-46.5 8q-30 4 -58.5 6.5t-69.5 2.5q-98 0 -164.5 -24t-114.5 -66q-32 -28 -52 -60t-31 -63
t-15.5 -59.5t-4.5 -50.5q0 -31 5 -63.5t17.5 -65t33.5 -64t54 -58.5q60 -51 135.5 -71.5t166.5 -20.5zM539 860q-4 7 -6.5 9.5t-7.5 2.5q-7 0 -20 -9q-6 -4 -26.5 -18.5t-45 -34t-49.5 -39.5t-40 -34q-9 -9 -9 -13q0 -3 2 -4.5t4 -1.5t6.5 2.5t10.5 5.5q14 7 34.5 16.5
t44 18t47.5 15t45 9.5q15 2 22.5 1t11.5 -1t7 3t-2 12q-9 20 -16 34.5t-13 25.5z" />
    <glyph glyph-name="Ccaron" unicode="&#x10c;" horiz-adv-x="800" 
d="M522 -17q24 0 49.5 1.5t49.5 4t45 7t36 10.5q13 5 17.5 10.5t8.5 18.5t8 33.5t7 41t5 37t2 21.5q0 6 -2 10.5t-7 4.5q-6 0 -8.5 -4t-4.5 -16q-3 -14 -12 -33t-22 -33q-30 -35 -73 -45.5t-110 -10.5q-50 0 -105.5 22t-102 66.5t-77 111.5t-30.5 156q0 73 18.5 140.5
t73.5 118.5q33 30 77.5 46t110.5 16q69 0 123.5 -18t79.5 -44q19 -20 28.5 -44.5t10.5 -47.5q0 -22 10 -22q7 0 9 6t3 17q1 7 1 20q0 14 0.5 29t0.5 31t1 28q2 26 3.5 37.5t1.5 17.5q0 11 -15 12q-23 2 -47 7.5t-53 9.5q-35 5 -66.5 7.5t-78.5 2.5q-112 0 -187 -28t-129 -78
q-36 -33 -59 -70.5t-35.5 -74t-17.5 -70.5t-5 -59q0 -36 5.5 -74.5t19.5 -77t38 -75t61 -68.5q69 -60 154.5 -84.5t188.5 -24.5zM308 945q-5 -5 -5 -10q0 -2 3 -5t11 -9q6 -4 24 -17.5t38 -29t37 -28t20 -15.5q15 -11 18 -11q8 0 21 12q5 4 25 22.5t42.5 39.5t41.5 39t23 23
q9 9 9 15q0 10 -9 10q-4 0 -8.5 -2.5t-13.5 -10.5q-11 -9 -24.5 -19t-27.5 -20t-28 -19.5t-24 -15.5q-7 -4 -15 -4q-6 0 -13 6q-4 3 -15.5 12t-25 20.5l-27 23t-20.5 18.5t-10.5 9t-6.5 2q-4 0 -11 -7z" />
    <glyph glyph-name="ccaron" unicode="&#x10d;" horiz-adv-x="705" 
d="M460 -14q21 0 44 1t44 3t39.5 6t31.5 9q11 5 15.5 9.5t7.5 15.5t6.5 28.5t6.5 35t4.5 31.5t1.5 18q0 5 -2.5 10t-7.5 5q-8 0 -11 -17q-2 -12 -10.5 -28t-19.5 -29q-26 -29 -62 -37t-94 -8q-44 0 -92.5 18t-89 55t-66.5 93t-26 132q0 31 3.5 61.5t12.5 59t25 54t40 46.5
q30 26 69 37t97 11q61 0 104 -14t66 -36q17 -17 25 -38t9 -41q0 -18 9 -18q6 0 8.5 6t3.5 15q0 6 0.5 17.5t0.5 24.5t0.5 26t1.5 24q2 23 3 32.5t1 14.5q0 9 -13 10q-20 2 -41.5 6t-46.5 8q-30 4 -58.5 6.5t-69.5 2.5q-98 0 -164.5 -24t-114.5 -66q-32 -28 -52 -60t-31 -63
t-15.5 -59.5t-4.5 -50.5q0 -31 5 -63.5t17.5 -65t33.5 -64t54 -58.5q60 -51 135.5 -71.5t166.5 -20.5zM261 833q-5 -5 -5 -10q0 -2 3 -5t11 -9q6 -4 24 -17.5t38 -29t37 -28t20 -15.5q15 -11 18 -11q8 0 21 12q5 4 25 22.5t42.5 39.5t41.5 39t23 23q9 9 9 15q0 10 -9 10
q-4 0 -8.5 -2.5t-13.5 -10.5q-11 -9 -24.5 -19t-27.5 -20t-28 -19.5t-24 -15.5q-7 -4 -15 -4q-6 0 -13 6q-4 3 -15.5 12t-25 20.5l-27 23t-20.5 18.5t-10.5 9t-6.5 2q-4 0 -11 -7z" />
    <glyph glyph-name="Dcaron" unicode="&#x10e;" horiz-adv-x="936" 
d="M164 287q0 -69 -0.5 -125t-4.5 -88q-3 -22 -8.5 -37t-20.5 -18q-7 -2 -16 -3t-20 -1q-16 0 -16 -8q0 -10 20 -10q15 0 33.5 1t35.5 1q18 1 33 1h24q19 0 44 -2t54 -4t58.5 -4t56.5 -2q69 0 123.5 12t96 29.5t70 38t45.5 38.5q21 21 40.5 49.5t35 64t24.5 77t9 88.5
q0 45 -8 83t-21.5 69.5t-31 56.5t-36.5 45q-41 43 -91 66t-103.5 33.5t-106.5 12.5t-100 2q-45 0 -88 -1.5t-66 -1.5q-11 0 -27 0.5t-35.5 1t-40.5 1t-41 0.5q-22 0 -22 -9t17 -9q11 0 22 -0.5t17 -2.5q25 -5 33 -18t10 -39q1 -12 1.5 -25.5t0.5 -36.5v-58v-92v-176z
M289 479v60v57t0.5 48.5t0.5 34.5q0 15 12 20q3 1 10.5 2.5t17.5 2.5t19.5 1.5t17.5 0.5q29 0 64 -3.5t72.5 -14t75 -30t72.5 -52.5q16 -15 33 -38.5t31 -54.5t23 -70t9 -87q0 -78 -18 -142.5t-66 -106.5q-45 -39 -99 -55.5t-131 -16.5q-60 0 -90.5 13t-40.5 27q-3 4 -5 13
t-3 20t-2 22.5t-1 20.5q-1 14 -1.5 68t-0.5 134v126zM296 945q-5 -5 -5 -10q0 -2 3 -5t11 -9q6 -4 24 -17.5t38 -29t37 -28t20 -15.5q15 -11 18 -11q8 0 21 12q5 4 25 22.5t42.5 39.5t41.5 39t23 23q9 9 9 15q0 10 -9 10q-4 0 -8.5 -2.5t-13.5 -10.5q-11 -9 -24.5 -19
t-27.5 -20t-28 -19.5t-24 -15.5q-7 -4 -15 -4q-6 0 -13 6q-4 3 -15.5 12t-25 20.5l-27 23t-20.5 18.5t-10.5 9t-6.5 2q-4 0 -11 -7z" />
    <glyph glyph-name="dcaron" unicode="&#x10f;" horiz-adv-x="831" 
d="M144 244q0 -59 -0.5 -106.5t-3.5 -74.5q-2 -19 -7 -30.5t-19 -14.5q-12 -3 -31 -3q-8 0 -11 -3t-3 -6q0 -9 17 -9q14 0 29.5 0.5t31.5 1.5q16 0 29 0.5t21 0.5q17 0 40 -1.5t49 -3.5t53.5 -3.5t51.5 -1.5q61 0 109 10t84.5 25t61.5 32.5t40 32.5q19 18 36 42.5t30.5 54.5
t21.5 65t8 75q0 76 -25 129.5t-58 86.5q-36 36 -80.5 56t-91.5 29t-94 10.5t-88 1.5q-20 0 -41 -0.5t-41 -0.5q-19 0 -35 -0.5t-26 -0.5q-19 0 -55.5 1t-71.5 1q-20 0 -20 -8q0 -9 15 -9q10 0 20 -0.5t15 -2.5q21 -6 28.5 -15t9.5 -31q0 -10 0.5 -21.5t0.5 -30.5v-50v-78
v-150zM262 407v97q0 47 1 69q0 13 11 17q5 3 22.5 4.5t31.5 1.5q26 0 56 -2.5t62.5 -11t65 -24.5t62.5 -43q15 -13 29.5 -32.5t26 -46t19 -60t7.5 -73.5q0 -66 -16 -121t-59 -90q-40 -33 -86 -45.5t-106 -12.5q-52 0 -79.5 11t-35.5 23q-5 7 -7 25.5t-3 34.5
q-1 13 -1.5 58.5t-0.5 113.5v107zM244 833q-5 -5 -5 -10q0 -2 3 -5t11 -9q6 -4 24 -17.5t38 -29t37 -28t20 -15.5q15 -11 18 -11q8 0 21 12q5 4 25 22.5t42.5 39.5t41.5 39t23 23q9 9 9 15q0 10 -9 10q-4 0 -8.5 -2.5t-13.5 -10.5q-11 -9 -24.5 -19t-27.5 -20t-28 -19.5
t-24 -15.5q-7 -4 -15 -4q-6 0 -13 6q-4 3 -15.5 12t-25 20.5l-27 23t-20.5 18.5t-10.5 9t-6.5 2q-4 0 -11 -7z" />
    <glyph glyph-name="Dcroat" unicode="&#x110;" horiz-adv-x="936" 
d="M164 353v-66q0 -69 -0.5 -125t-4.5 -88q-3 -22 -8.5 -37t-20.5 -18q-7 -2 -16 -3t-20 -1q-16 0 -16 -8q0 -10 20 -10q15 0 33.5 1t35.5 1q18 1 33 1h24q13 0 40.5 -2t60.5 -4l68 -4t60 -2q57 0 108 11.5t92 29t72 37.5t48 38q21 22 40.5 51t34.5 64t24 77t9 89
q0 45 -8 83t-21.5 69.5t-31 56.5t-36.5 45q-41 43 -91 66t-103.5 33.5t-106.5 12.5t-100 2q-45 0 -88 -1.5t-66 -1.5q-11 0 -27 0.5t-35.5 1t-40.5 1t-41 0.5q-22 0 -22 -9t17 -9q11 0 22 -0.5t17 -2.5q25 -5 33 -18t10 -39q1 -12 1.5 -25.5t0.5 -36.5v-58v-92v-58h-88
q-12 0 -13 -10l-5 -30q-2 -12 5 -12h101zM289 406v73v60v57t0.5 48.5t0.5 34.5q0 15 12 20q3 1 10.5 2.5t17.5 2.5t19.5 1.5t17.5 0.5q29 0 64 -3.5t72.5 -14t75 -30t72.5 -52.5q16 -15 33 -38.5t31 -54.5t23 -70t9 -87q0 -78 -18.5 -143t-61.5 -103q-45 -40 -101.5 -57.5
t-132.5 -17.5q-60 0 -90.5 13.5t-40.5 27.5q-3 4 -5 13t-3 20t-2 22.5t-1 20.5q0 7 -0.5 24t-1 38.5t-0.5 45.5v46v46h189q10 0 12 9l6 33q1 12 -7 12h-200z" />
    <glyph glyph-name="dcroat" unicode="&#x111;" horiz-adv-x="833" 
d="M144 298v-54q0 -59 -0.5 -106.5t-3.5 -74.5q-2 -19 -7 -30.5t-19 -14.5q-12 -3 -31 -3q-8 0 -11 -3t-3 -6q0 -9 17 -9q14 0 29.5 0.5t31.5 1.5q16 0 29 0.5t21 0.5q11 0 36.5 -1.5t56.5 -3.5q32 -2 63 -3.5t54 -1.5q50 0 94.5 9.5t81 24.5t64 32t42.5 32q38 38 66.5 98
t28.5 141q0 76 -26 129.5t-59 86.5q-36 36 -80.5 56t-91.5 29t-94 10.5t-88 1.5q-20 0 -41 -0.5t-41 -0.5q-19 0 -35 -0.5t-26 -0.5q-19 0 -55.5 1t-71.5 1q-20 0 -20 -8q0 -9 15 -9q10 0 20 -0.5t15 -2.5q21 -6 28.5 -15t9.5 -31q0 -10 0.5 -21.5t0.5 -30.5v-50v-78v-48
h-77q-11 0 -12 -8l-4 -30q-2 -10 4 -10h89zM262 347v60v97q0 47 1 69q0 13 11 17q6 2 22.5 4t38.5 2q24 0 53 -2t60.5 -10.5t63.5 -24.5t62 -44q14 -13 29 -32.5t27 -46t20 -60t8 -73.5q0 -67 -16 -122t-54 -87q-39 -35 -86 -47.5t-114 -12.5q-52 0 -78.5 11t-35.5 24
q-5 7 -7 27.5t-3 36.5q0 6 -0.5 19.5t-1 30.5t-0.5 37v38v39h167q8 0 10 8l5 32q1 10 -6 10h-176z" />
    <glyph glyph-name="Emacron" unicode="&#x112;" 
d="M164 287q0 -69 -0.5 -125t-4.5 -88q-3 -22 -8.5 -37t-20.5 -18q-7 -2 -16 -3t-20 -1q-16 0 -16 -8q0 -10 20 -10q15 0 33.5 1t35.5 1q18 1 33 1h24q23 0 47.5 -0.5t56.5 -2.5q32 -1 74 -2t99 -1q14 0 23.5 0.5t15.5 3t9 7.5t6 15q2 7 4 22.5t4 32t3.5 32t1.5 24.5
q0 8 -1 13t-7 5q-8 0 -11 -15q-5 -31 -15 -48t-30 -26t-47 -10.5t-47 -1.5q-38 0 -61.5 3.5t-36 12.5t-17 25.5t-5.5 42.5v31v44v45v35v79q0 10 6 10h29q21 0 43.5 -0.5t42.5 -1t27 -1.5q28 -3 40 -13.5t16 -25.5q2 -10 2.5 -19t1.5 -17q0 -9 9 -9q7 0 8 6.5t1 12.5
q0 3 0.5 11t1 18t1.5 20t1 18q3 38 5.5 53t2.5 20q0 8 -7 8q-5 0 -16 -13q-7 -8 -18.5 -10.5t-29.5 -4.5q-9 -1 -32 -1.5t-49 -0.5h-48h-31q-7 0 -7 11v253q0 10 7 10t28 -0.5t44 -1t43.5 -1t26.5 -1.5q37 -5 49.5 -14t17.5 -22q4 -9 5 -20t1 -16q0 -14 9 -14q5 0 7 3.5
t3 7.5t1.5 13.5t1.5 20t1.5 19.5t0.5 13q2 35 5 47.5t3 17.5q0 9 -6 9q-4 0 -8 -1.5t-8 -2.5q-6 -2 -17.5 -3t-25.5 -3q-5 0 -23 -0.5t-43 -0.5h-54h-55h-47h-28q-11 0 -27 0.5t-36 1.5q-19 0 -40 0.5t-41 0.5q-22 0 -22 -9t17 -9q11 0 22 -0.5t17 -2.5q25 -5 33 -18t10 -39
q1 -12 1.5 -25.5t0.5 -36.5v-58v-92v-176zM450 857q9 0 11 6l8 36q3 10 -8 10h-240q-8 0 -11 -9l-8 -36q-1 -7 8 -7h240z" />
    <glyph glyph-name="emacron" unicode="&#x113;" horiz-adv-x="576" 
d="M144 244q0 -59 -0.5 -106.5t-3.5 -74.5q-2 -19 -7 -30.5t-19 -14.5q-12 -3 -31 -3q-8 0 -11 -3t-3 -6q0 -9 17 -9q14 0 29.5 0.5t31.5 1.5q16 0 29 0.5t21 0.5q20 0 45 -0.5t57 -1.5q64 -3 162 -3q12 0 20 0.5t13.5 2.5t8.5 6.5t5 12.5q2 6 4 19t4 27t3 27.5t1 20.5
t-1.5 13.5t-6.5 6.5q-7 0 -10 -13q-5 -26 -13 -40.5t-25 -22.5t-41.5 -9.5t-41.5 -1.5q-34 0 -56.5 3t-36 11t-19.5 21.5t-7 35.5v26v35v36v29v68q0 9 5 9q8 0 28.5 -0.5t43 -1t41.5 -1t25 -1.5q25 -2 35 -11t14 -22q2 -8 2 -16t1 -15q0 -7 8 -7q6 0 7.5 7t1.5 12t1 24.5
t3 32.5q4 32 5.5 45t1.5 17q0 9 -7 9q-3 0 -6 -3l-8 -8q-6 -7 -16 -9t-26 -4q-8 -1 -30 -1.5t-47 -0.5h-48h-29q-6 0 -6 9v210q0 8 6 8q7 0 27 -0.5t43 -1t42.5 -1t25.5 -1.5q33 -3 43 -11.5t15 -19.5q4 -8 5 -17t1 -14q0 -11 7 -11q5 0 7 5.5t3 8.5q1 4 1.5 12t1.5 16.5
t1.5 16.5t0.5 11q2 29 4.5 39.5t2.5 15.5q0 8 -6 8q-3 0 -6.5 -1.5t-7.5 -2.5q-5 -1 -15 -2.5t-22 -2.5h-22h-42h-52h-53h-45h-26q-19 0 -55.5 1t-71.5 1q-20 0 -20 -8q0 -9 15 -9q10 0 20 -0.5t15 -2.5q21 -6 28.5 -15t9.5 -31q0 -10 0.5 -21.5t0.5 -30.5v-50v-78v-150z
M422 745q9 0 11 6l8 36q3 10 -8 10h-240q-8 0 -11 -9l-8 -36q-1 -7 8 -7h240z" />
    <glyph glyph-name="Edotaccent" unicode="&#x116;" 
d="M164 287q0 -69 -0.5 -125t-4.5 -88q-3 -22 -8.5 -37t-20.5 -18q-7 -2 -16 -3t-20 -1q-16 0 -16 -8q0 -10 20 -10q15 0 33.5 1t35.5 1q18 1 33 1h24q23 0 47.5 -0.5t56.5 -2.5q32 -1 74 -2t99 -1q14 0 23.5 0.5t15.5 3t9 7.5t6 15q2 7 4 22.5t4 32t3.5 32t1.5 24.5
q0 8 -1 13t-7 5q-8 0 -11 -15q-5 -31 -15 -48t-30 -26t-47 -10.5t-47 -1.5q-38 0 -61.5 3.5t-36 12.5t-17 25.5t-5.5 42.5v31v44v45v35v79q0 10 6 10h29q21 0 43.5 -0.5t42.5 -1t27 -1.5q28 -3 40 -13.5t16 -25.5q2 -10 2.5 -19t1.5 -17q0 -9 9 -9q7 0 8 6.5t1 12.5
q0 3 0.5 11t1 18t1.5 20t1 18q3 38 5.5 53t2.5 20q0 8 -7 8q-5 0 -16 -13q-7 -8 -18.5 -10.5t-29.5 -4.5q-9 -1 -32 -1.5t-49 -0.5h-48h-31q-7 0 -7 11v253q0 10 7 10t28 -0.5t44 -1t43.5 -1t26.5 -1.5q37 -5 49.5 -14t17.5 -22q4 -9 5 -20t1 -16q0 -14 9 -14q5 0 7 3.5
t3 7.5t1.5 13.5t1.5 20t1.5 19.5t0.5 13q2 35 5 47.5t3 17.5q0 9 -6 9q-4 0 -8 -1.5t-8 -2.5q-6 -2 -17.5 -3t-25.5 -3q-5 0 -23 -0.5t-43 -0.5h-54h-55h-47h-28q-11 0 -27 0.5t-36 1.5q-19 0 -40 0.5t-41 0.5q-22 0 -22 -9t17 -9q11 0 22 -0.5t17 -2.5q25 -5 33 -18t10 -39
q1 -12 1.5 -25.5t0.5 -36.5v-58v-92v-176zM340 830q26 0 41.5 17.5t15.5 42.5t-16.5 39.5t-40.5 14.5q-30 0 -43 -19.5t-13 -38.5t13 -37.5t43 -18.5z" />
    <glyph glyph-name="edotaccent" unicode="&#x117;" horiz-adv-x="576" 
d="M144 244q0 -59 -0.5 -106.5t-3.5 -74.5q-2 -19 -7 -30.5t-19 -14.5q-12 -3 -31 -3q-8 0 -11 -3t-3 -6q0 -9 17 -9q14 0 29.5 0.5t31.5 1.5q16 0 29 0.5t21 0.5q20 0 45 -0.5t57 -1.5q64 -3 162 -3q12 0 20 0.5t13.5 2.5t8.5 6.5t5 12.5q2 6 4 19t4 27t3 27.5t1 20.5
t-1.5 13.5t-6.5 6.5q-7 0 -10 -13q-5 -26 -13 -40.5t-25 -22.5t-41.5 -9.5t-41.5 -1.5q-34 0 -56.5 3t-36 11t-19.5 21.5t-7 35.5v26v35v36v29v68q0 9 5 9q8 0 28.5 -0.5t43 -1t41.5 -1t25 -1.5q25 -2 35 -11t14 -22q2 -8 2 -16t1 -15q0 -7 8 -7q6 0 7.5 7t1.5 12t1 24.5
t3 32.5q4 32 5.5 45t1.5 17q0 9 -7 9q-3 0 -6 -3l-8 -8q-6 -7 -16 -9t-26 -4q-8 -1 -30 -1.5t-47 -0.5h-48h-29q-6 0 -6 9v210q0 8 6 8q7 0 27 -0.5t43 -1t42.5 -1t25.5 -1.5q33 -3 43 -11.5t15 -19.5q4 -8 5 -17t1 -14q0 -11 7 -11q5 0 7 5.5t3 8.5q1 4 1.5 12t1.5 16.5
t1.5 16.5t0.5 11q2 29 4.5 39.5t2.5 15.5q0 8 -6 8q-3 0 -6.5 -1.5t-7.5 -2.5q-5 -1 -15 -2.5t-22 -2.5h-22h-42h-52h-53h-45h-26q-19 0 -55.5 1t-71.5 1q-20 0 -20 -8q0 -9 15 -9q10 0 20 -0.5t15 -2.5q21 -6 28.5 -15t9.5 -31q0 -10 0.5 -21.5t0.5 -30.5v-50v-78v-150z
M317 718q26 0 41.5 17.5t15.5 42.5t-16.5 39.5t-40.5 14.5q-30 0 -43 -19.5t-13 -38.5t13 -37.5t43 -18.5z" />
    <glyph glyph-name="Eogonek" unicode="&#x118;" 
d="M480 -170q-58 0 -58 49q0 17 5.5 36t14.5 35.5t22 28.5t28 15q10 2 20 3t19 2.5t15 6t9 14.5q2 7 4 22.5t4 32t3.5 32t1.5 24.5q0 8 -1 13t-7 5q-8 0 -11 -15q-5 -31 -15 -48t-30 -26t-47 -10.5t-47 -1.5q-38 0 -61.5 3.5t-36 12.5t-17 25.5t-5.5 42.5v31v44v45v35v79
q0 10 6 10h29q21 0 43.5 -0.5t42.5 -1t27 -1.5q28 -3 40 -13.5t16 -25.5q2 -10 2.5 -19t1.5 -17q0 -9 9 -9q7 0 8 6.5t1 12.5q0 3 0.5 11t1 18t1.5 20t1 18q3 38 5.5 53t2.5 20q0 8 -7 8q-5 0 -16 -13q-7 -8 -18.5 -10.5t-29.5 -4.5q-9 -1 -32 -1.5t-49 -0.5h-48h-31
q-7 0 -7 11v253q0 10 7 10t28 -0.5t44 -1t43.5 -1t26.5 -1.5q37 -5 49.5 -14t17.5 -22q4 -9 5 -20t1 -16q0 -14 9 -14q5 0 7 3.5t3 7.5t1.5 13.5t1.5 20t1.5 19.5t0.5 13q2 35 5 47.5t3 17.5q0 9 -6 9q-4 0 -8 -1.5t-8 -2.5q-6 -2 -17.5 -3t-25.5 -3q-5 0 -23 -0.5t-43 -0.5
h-54h-55h-47h-28q-11 0 -27 0.5t-36 1.5q-19 0 -40 0.5t-41 0.5q-22 0 -22 -9t17 -9q11 0 22 -0.5t17 -2.5q25 -5 33 -18t10 -39q1 -12 1.5 -25.5t0.5 -36.5v-58v-92v-176q0 -69 -0.5 -125t-4.5 -88q-3 -22 -8.5 -37t-20.5 -18q-7 -2 -16 -3t-20 -1q-16 0 -16 -8
q0 -10 20 -10q15 0 33.5 1t35.5 1q18 1 33 1h24q23 0 47.5 -1t56.5 -2q23 -1 49 -1.5t59 -1.5q-12 -8 -29.5 -24t-34 -36.5t-28.5 -42.5t-12 -42q0 -41 22.5 -58.5t68.5 -17.5q25 0 46.5 9t37.5 20t26 22t14 15q3 4 5.5 8.5t2.5 7.5q0 8 -9 8q-4 0 -9.5 -5t-13 -11.5
t-18.5 -11.5t-25 -5z" />
    <glyph glyph-name="eogonek" unicode="&#x119;" horiz-adv-x="576" 
d="M433 -170q-58 0 -58 49q0 19 5.5 38.5t15 36t23.5 27.5t31 14q12 2 21.5 2.5t17 2t12.5 5.5t7 12q2 6 4 19t4 27t3 27.5t1 20.5t-1.5 13.5t-6.5 6.5q-7 0 -10 -13q-5 -26 -13 -40.5t-25 -22.5t-41.5 -9.5t-41.5 -1.5q-34 0 -56.5 3t-36 11t-19.5 21.5t-7 35.5v26v35v36
v29v68q0 9 5 9q8 0 28.5 -0.5t43 -1t41.5 -1t25 -1.5q25 -2 35 -11t14 -22q2 -8 2 -16t1 -15q0 -7 8 -7q6 0 7.5 7t1.5 12t1 24.5t3 32.5q4 32 5.5 45t1.5 17q0 9 -7 9q-3 0 -6 -3l-8 -8q-6 -7 -16 -9t-26 -4q-8 -1 -30 -1.5t-47 -0.5h-48h-29q-6 0 -6 9v210q0 8 6 8
q7 0 27 -0.5t43 -1t42.5 -1t25.5 -1.5q33 -3 43 -11.5t15 -19.5q4 -8 5 -17t1 -14q0 -11 7 -11q5 0 7 5.5t3 8.5q1 4 1.5 12t1.5 16.5t1.5 16.5t0.5 11q2 29 4.5 39.5t2.5 15.5q0 8 -6 8q-3 0 -6.5 -1.5t-7.5 -2.5q-5 -1 -15 -2.5t-22 -2.5h-22h-42h-52h-53h-45h-26
q-19 0 -55.5 1t-71.5 1q-20 0 -20 -8q0 -9 15 -9q10 0 20 -0.5t15 -2.5q21 -6 28.5 -15t9.5 -31q0 -10 0.5 -21.5t0.5 -30.5v-50v-78v-150q0 -59 -0.5 -106.5t-3.5 -74.5q-2 -19 -7 -30.5t-19 -14.5q-12 -3 -31 -3q-8 0 -11 -3t-3 -6q0 -9 17 -9q14 0 29.5 1t31.5 1t29 0.5
t21 0.5q20 0 45 -0.5t57 -1.5q20 -1 43 -1t49 -1q-11 -7 -29 -23.5t-35 -37t-29.5 -43.5t-12.5 -43q0 -41 22.5 -58.5t68.5 -17.5q25 0 46.5 9t37.5 20t26 22t14 15q3 4 5.5 8.5t2.5 7.5q0 8 -9 8q-4 0 -9.5 -5t-13 -11.5t-18.5 -11.5t-25 -5z" />
    <glyph glyph-name="Ecaron" unicode="&#x11a;" 
d="M164 287q0 -69 -0.5 -125t-4.5 -88q-3 -22 -8.5 -37t-20.5 -18q-7 -2 -16 -3t-20 -1q-16 0 -16 -8q0 -10 20 -10q15 0 33.5 1t35.5 1q18 1 33 1h24q23 0 47.5 -0.5t56.5 -2.5q32 -1 74 -2t99 -1q14 0 23.5 0.5t15.5 3t9 7.5t6 15q2 7 4 22.5t4 32t3.5 32t1.5 24.5
q0 8 -1 13t-7 5q-8 0 -11 -15q-5 -31 -15 -48t-30 -26t-47 -10.5t-47 -1.5q-38 0 -61.5 3.5t-36 12.5t-17 25.5t-5.5 42.5v31v44v45v35v79q0 10 6 10h29q21 0 43.5 -0.5t42.5 -1t27 -1.5q28 -3 40 -13.5t16 -25.5q2 -10 2.5 -19t1.5 -17q0 -9 9 -9q7 0 8 6.5t1 12.5
q0 3 0.5 11t1 18t1.5 20t1 18q3 38 5.5 53t2.5 20q0 8 -7 8q-5 0 -16 -13q-7 -8 -18.5 -10.5t-29.5 -4.5q-9 -1 -32 -1.5t-49 -0.5h-48h-31q-7 0 -7 11v253q0 10 7 10t28 -0.5t44 -1t43.5 -1t26.5 -1.5q37 -5 49.5 -14t17.5 -22q4 -9 5 -20t1 -16q0 -14 9 -14q5 0 7 3.5
t3 7.5t1.5 13.5t1.5 20t1.5 19.5t0.5 13q2 35 5 47.5t3 17.5q0 9 -6 9q-4 0 -8 -1.5t-8 -2.5q-6 -2 -17.5 -3t-25.5 -3q-5 0 -23 -0.5t-43 -0.5h-54h-55h-47h-28q-11 0 -27 0.5t-36 1.5q-19 0 -40 0.5t-41 0.5q-22 0 -22 -9t17 -9q11 0 22 -0.5t17 -2.5q25 -5 33 -18t10 -39
q1 -12 1.5 -25.5t0.5 -36.5v-58v-92v-176zM194 945q-5 -5 -5 -10q0 -2 3 -5t11 -9q6 -4 24 -17.5t38 -29t37 -28t20 -15.5q15 -11 18 -11q8 0 21 12q5 4 25 22.5t42.5 39.5t41.5 39t23 23q9 9 9 15q0 10 -9 10q-4 0 -8.5 -2.5t-13.5 -10.5q-11 -9 -24.5 -19t-27.5 -20
t-28 -19.5t-24 -15.5q-7 -4 -15 -4q-6 0 -13 6q-4 3 -15.5 12t-25 20.5l-27 23t-20.5 18.5t-10.5 9t-6.5 2q-4 0 -11 -7z" />
    <glyph glyph-name="ecaron" unicode="&#x11b;" horiz-adv-x="576" 
d="M144 244q0 -59 -0.5 -106.5t-3.5 -74.5q-2 -19 -7 -30.5t-19 -14.5q-12 -3 -31 -3q-8 0 -11 -3t-3 -6q0 -9 17 -9q14 0 29.5 0.5t31.5 1.5q16 0 29 0.5t21 0.5q20 0 45 -0.5t57 -1.5q64 -3 162 -3q12 0 20 0.5t13.5 2.5t8.5 6.5t5 12.5q2 6 4 19t4 27t3 27.5t1 20.5
t-1.5 13.5t-6.5 6.5q-7 0 -10 -13q-5 -26 -13 -40.5t-25 -22.5t-41.5 -9.5t-41.5 -1.5q-34 0 -56.5 3t-36 11t-19.5 21.5t-7 35.5v26v35v36v29v68q0 9 5 9q8 0 28.5 -0.5t43 -1t41.5 -1t25 -1.5q25 -2 35 -11t14 -22q2 -8 2 -16t1 -15q0 -7 8 -7q6 0 7.5 7t1.5 12t1 24.5
t3 32.5q4 32 5.5 45t1.5 17q0 9 -7 9q-3 0 -6 -3l-8 -8q-6 -7 -16 -9t-26 -4q-8 -1 -30 -1.5t-47 -0.5h-48h-29q-6 0 -6 9v210q0 8 6 8q7 0 27 -0.5t43 -1t42.5 -1t25.5 -1.5q33 -3 43 -11.5t15 -19.5q4 -8 5 -17t1 -14q0 -11 7 -11q5 0 7 5.5t3 8.5q1 4 1.5 12t1.5 16.5
t1.5 16.5t0.5 11q2 29 4.5 39.5t2.5 15.5q0 8 -6 8q-3 0 -6.5 -1.5t-7.5 -2.5q-5 -1 -15 -2.5t-22 -2.5h-22h-42h-52h-53h-45h-26q-19 0 -55.5 1t-71.5 1q-20 0 -20 -8q0 -9 15 -9q10 0 20 -0.5t15 -2.5q21 -6 28.5 -15t9.5 -31q0 -10 0.5 -21.5t0.5 -30.5v-50v-78v-150z
M166 833q-5 -5 -5 -10q0 -2 3 -5t11 -9q6 -4 24 -17.5t38 -29t37 -28t20 -15.5q15 -11 18 -11q8 0 21 12q5 4 25 22.5t42.5 39.5t41.5 39t23 23q9 9 9 15q0 10 -9 10q-4 0 -8.5 -2.5t-13.5 -10.5q-11 -9 -24.5 -19t-27.5 -20t-28 -19.5t-24 -15.5q-7 -4 -15 -4q-6 0 -13 6
q-4 3 -15.5 12t-25 20.5l-27 23t-20.5 18.5t-10.5 9t-6.5 2q-4 0 -11 -7z" />
    <glyph glyph-name="Gbreve" unicode="&#x11e;" horiz-adv-x="886" 
d="M771 174v67q0 30 1 53q1 26 9.5 39.5t28.5 17.5q9 2 15 2.5t12 0.5q13 0 13 8q0 10 -20 10q-12 0 -27.5 -0.5t-31.5 -1t-31 -1t-27 -0.5q-11 0 -28 0.5t-36.5 1t-40.5 1t-40 0.5q-21 0 -21 -10q0 -8 15 -8q11 0 22 -0.5t17 -2.5q25 -5 33.5 -18t9.5 -39q1 -23 1 -52v-66
v-94q0 -13 -4 -22.5t-15 -14.5q-18 -8 -41.5 -9.5t-43.5 -1.5q-79 0 -143.5 28.5t-110 79t-70 119t-24.5 149.5q0 93 25 151.5t67 93.5q26 22 52.5 34.5t52 18.5t49 7.5t44.5 1.5q42 0 78 -7.5t64.5 -19.5t49 -25.5t31.5 -25.5q20 -21 26 -43.5t8 -39.5q2 -13 10 -13
q6 0 8.5 4.5t2.5 16.5q0 47 1 77t2.5 48t2.5 26.5t1 12.5q0 5 -2.5 8t-11.5 4q-17 1 -40 4.5t-39 6.5q-8 1 -26.5 4t-43.5 5.5t-53 4.5t-54 2q-32 0 -64 -2t-66 -9t-68.5 -19.5t-70.5 -34.5q-34 -21 -65.5 -52t-55.5 -72t-38.5 -92t-14.5 -111q0 -104 37.5 -178
t101.5 -121.5t147.5 -70t175.5 -22.5q29 0 61.5 2t64 7.5t61.5 14t54 21.5q9 5 11 10.5t2 25.5v110zM330 906q0 -6 13 -18.5t24 -21.5q22 -18 50 -27t49 -9q38 0 60.5 8.5t47.5 25.5q9 6 19.5 16t20.5 21t16.5 21t6.5 16q0 9 -8 9q-5 0 -13 -9.5t-31 -27.5
q-8 -5 -31.5 -16.5t-56.5 -11.5q-20 0 -43 6.5t-49 37.5q-7 8 -11.5 15.5t-9.5 7.5q-2 0 -5 -1t-8 -6l-33 -26q-2 -2 -5 -3.5t-3 -6.5z" />
    <glyph glyph-name="gbreve" unicode="&#x11f;" horiz-adv-x="783" 
d="M681 148v57t1 45q1 23 8.5 33t25.5 13q15 3 24 3q11 0 11 9q0 8 -18 8q-22 0 -52 -1t-51 -1q-10 0 -25.5 0.5t-34.5 0.5t-38.5 0.5t-36.5 0.5q-19 0 -19 -8q0 -9 14 -9q9 0 19 -0.5t15 -2.5q21 -6 29 -15t9 -31q1 -20 1 -44v-56v-78q0 -22 -17 -30q-16 -7 -30.5 -8
t-31.5 -1q-71 0 -127.5 23.5t-96 65.5t-61 100t-21.5 127q0 78 22 127.5t59 79.5q23 18 45.5 28.5t44.5 15t42 5.5t38 1q37 0 68 -6.5t55 -16t41 -21t27 -21.5q17 -18 22.5 -37t7.5 -33q2 -11 9 -11q12 0 12 19q0 40 1 65.5t2 41t2 22.5t1 11q0 5 -2 7t-10 3q-16 1 -36 4
t-34 5q-7 1 -23.5 3.5t-38.5 5t-46.5 4t-47.5 1.5q-56 0 -115 -9t-122 -46q-30 -18 -58 -44.5t-49.5 -61.5t-34 -78t-12.5 -94q0 -88 33 -151t89.5 -103.5t130 -59.5t154.5 -19q26 0 54.5 2t57 6.5t55 11.5t48.5 18q8 5 9.5 9t1.5 21v94zM268 794q0 -6 13 -18.5t24 -21.5
q22 -18 50 -27t49 -9q38 0 60.5 8.5t47.5 25.5q9 6 19.5 16t20.5 21t16.5 21t6.5 16q0 9 -8 9q-5 0 -13 -9.5t-31 -27.5q-8 -5 -31.5 -16.5t-56.5 -11.5q-20 0 -43 6.5t-49 37.5q-7 8 -11.5 15.5t-9.5 7.5q-2 0 -5 -1t-8 -6l-33 -26q-2 -2 -5 -3.5t-3 -6.5z" />
    <glyph glyph-name="Gcommaaccent" unicode="&#x122;" horiz-adv-x="886" 
d="M771 174v67q0 30 1 53q1 26 9.5 39.5t28.5 17.5q9 2 15 2.5t12 0.5q13 0 13 8q0 10 -20 10q-12 0 -27.5 -0.5t-31.5 -1t-31 -1t-27 -0.5q-11 0 -28 0.5t-36.5 1t-40.5 1t-40 0.5q-21 0 -21 -10q0 -8 15 -8q11 0 22 -0.5t17 -2.5q25 -5 33.5 -18t9.5 -39q1 -23 1 -52v-66
v-94q0 -13 -4 -22.5t-15 -14.5q-18 -8 -41.5 -9.5t-43.5 -1.5q-79 0 -143.5 28.5t-110 79t-70 119t-24.5 149.5q0 93 25 151.5t67 93.5q26 22 52.5 34.5t52 18.5t49 7.5t44.5 1.5q42 0 78 -7.5t64.5 -19.5t49 -25.5t31.5 -25.5q20 -21 26 -43.5t8 -39.5q2 -13 10 -13
q6 0 8.5 4.5t2.5 16.5q0 47 1 77t2.5 48t2.5 26.5t1 12.5q0 5 -2.5 8t-11.5 4q-17 1 -40 4.5t-39 6.5q-8 1 -26.5 4t-43.5 5.5t-53 4.5t-54 2q-32 0 -64 -2t-66 -9t-68.5 -19.5t-70.5 -34.5q-34 -21 -65.5 -52t-55.5 -72t-38.5 -92t-14.5 -111q0 -104 37.5 -178
t101.5 -121.5t147.5 -70t175.5 -22.5q29 0 61.5 2t64 7.5t61.5 14t54 21.5q9 5 11 10.5t2 25.5v110zM551 -118q0 7 -4 17t-15 27q-8 13 -12 17.5t-10 4.5q-10 0 -21 -5t-20.5 -13.5t-16 -19.5t-6.5 -22q0 -5 5.5 -10t12.5 -13t12.5 -20.5t5.5 -30.5q0 -15 -5.5 -33.5
t-19.5 -41.5q-2 -3 -4.5 -7t-2.5 -7t2.5 -6t4.5 -3q4 0 7 3t8 7q11 12 21.5 28t19.5 31.5t16 30t11 24.5q5 11 8 23t3 19z" />
    <glyph glyph-name="gcommaaccent" unicode="&#x123;" horiz-adv-x="783" 
d="M681 148v57t1 45q1 23 8.5 33t25.5 13q15 3 24 3q11 0 11 9q0 8 -18 8q-22 0 -52 -1t-51 -1q-10 0 -25.5 0.5t-34.5 0.5t-38.5 0.5t-36.5 0.5q-19 0 -19 -8q0 -9 14 -9q9 0 19 -0.5t15 -2.5q21 -6 29 -15t9 -31q1 -20 1 -44v-56v-78q0 -22 -17 -30q-16 -7 -30.5 -8
t-31.5 -1q-71 0 -127.5 23.5t-96 65.5t-61 100t-21.5 127q0 78 22 127.5t59 79.5q23 18 45.5 28.5t44.5 15t42 5.5t38 1q37 0 68 -6.5t55 -16t41 -21t27 -21.5q17 -18 22.5 -37t7.5 -33q2 -11 9 -11q12 0 12 19q0 40 1 65.5t2 41t2 22.5t1 11q0 5 -2 7t-10 3q-16 1 -36 4
t-34 5q-7 1 -23.5 3.5t-38.5 5t-46.5 4t-47.5 1.5q-56 0 -115 -9t-122 -46q-30 -18 -58 -44.5t-49.5 -61.5t-34 -78t-12.5 -94q0 -88 33 -151t89.5 -103.5t130 -59.5t154.5 -19q26 0 54.5 2t57 6.5t55 11.5t48.5 18q8 5 9.5 9t1.5 21v94zM494 -118q0 7 -4 17t-15 27
q-8 13 -12 17.5t-10 4.5q-10 0 -21 -5t-20.5 -13.5t-16 -19.5t-6.5 -22q0 -5 5.5 -10t12.5 -13t12.5 -20.5t5.5 -30.5q0 -15 -5.5 -33.5t-19.5 -41.5q-2 -3 -4.5 -7t-2.5 -7t2.5 -6t4.5 -3q4 0 7 3t8 7q11 12 21.5 28t19.5 31.5t16 30t11 24.5q5 11 8 23t3 19z" />
    <glyph glyph-name="Imacron" unicode="&#x12a;" horiz-adv-x="452" 
d="M164 287q0 -73 -0.5 -129.5t-4.5 -88.5q-2 -22 -8 -34.5t-21 -15.5q-7 -2 -16 -3t-20 -1q-16 0 -16 -8q0 -10 20 -10q15 0 33.5 0.5t36 1t32.5 1t24 0.5q20 0 63 -1.5t93 -1.5q19 0 19 10q0 8 -16 8q-11 0 -25.5 1t-25.5 3q-23 3 -30.5 16t-9.5 33q-3 32 -3.5 89
t-0.5 130v176v92v58q0 23 0.5 36.5t1.5 25.5q2 26 9.5 39.5t27.5 17.5q9 2 15.5 2.5t14.5 0.5q16 0 16 10q0 8 -21 8q-14 0 -31.5 -0.5t-34.5 -1t-32 -1t-24 -0.5q-11 0 -27.5 0.5t-34.5 1l-36 1t-32 0.5q-24 0 -24 -8q0 -10 16 -10q9 0 18.5 -1t17.5 -3q31 -7 34 -56
q1 -12 1.5 -25.5t0.5 -36.5v-58v-92v-176zM341 857q9 0 11 6l8 36q3 10 -8 10h-240q-8 0 -11 -9l-8 -36q-1 -7 8 -7h240z" />
    <glyph glyph-name="imacron" unicode="&#x12b;" horiz-adv-x="407" 
d="M144 244q0 -62 -0.5 -110.5t-3.5 -74.5q-2 -19 -7 -28.5t-19 -12.5q-12 -3 -31 -3q-8 0 -11 -3t-3 -6q0 -9 17 -9q13 0 30 0.5t33.5 1t30 1t21.5 0.5q18 0 58 -1.5t84 -1.5q17 0 17 9q0 3 -3 6t-11 3q-10 0 -23 0.5t-22 2.5q-20 3 -26.5 13t-8.5 27q-3 27 -3.5 75.5
t-0.5 110.5v150v78v50t0.5 30.5t1.5 21.5q2 23 8.5 33t24.5 13q15 3 26 3q14 0 14 10q0 7 -18 7q-13 0 -29 -0.5t-32 -0.5t-30 -0.5t-22 -0.5q-9 0 -24 0.5t-32 0.5t-33.5 0.5t-28.5 0.5q-21 0 -21 -7q0 -10 14 -10q19 0 32 -4q14 -5 21 -14t9 -31q0 -10 0.5 -21.5
t0.5 -30.5v-50v-78v-150zM318 745q9 0 11 6l8 36q3 10 -8 10h-240q-8 0 -11 -9l-8 -36q-1 -7 8 -7h240z" />
    <glyph glyph-name="Iogonek" unicode="&#x12e;" horiz-adv-x="452" 
d="M276 -170q-58 0 -58 49q0 15 4.5 32t12.5 32.5t20 28.5t26 21q20 10 46 7t53 -3q19 0 19 10q0 8 -16 8q-11 0 -25.5 1t-25.5 3q-23 3 -30.5 16t-9.5 33q-3 32 -3.5 89t-0.5 130v176v92v58q0 23 0.5 36.5t1.5 25.5q2 26 9.5 39.5t27.5 17.5q9 2 15.5 2.5t14.5 0.5
q16 0 16 10q0 8 -21 8q-14 0 -31.5 -0.5t-34.5 -1t-32 -1t-24 -0.5q-11 0 -27.5 0.5t-34.5 1l-36 1t-32 0.5q-24 0 -24 -8q0 -10 16 -10q9 0 18.5 -1t17.5 -3q31 -7 34 -56q1 -12 1.5 -25.5t0.5 -36.5v-58v-92v-176q0 -73 -0.5 -129.5t-4.5 -88.5q-2 -22 -8 -34.5t-21 -15.5
q-7 -2 -16 -3t-20 -1q-16 0 -16 -8q0 -10 20 -10q15 0 33.5 1t35.5 1q18 1 33 1h24h18q-7 -3 -26 -18.5t-38.5 -37.5t-34.5 -47.5t-15 -47.5q0 -41 22.5 -58.5t68.5 -17.5q25 0 46.5 9t37.5 20t26 22t14 15q3 4 5.5 8.5t2.5 7.5q0 8 -9 8q-4 0 -9.5 -5t-13 -11.5
t-18.5 -11.5t-25 -5z" />
    <glyph glyph-name="iogonek" unicode="&#x12f;" horiz-adv-x="407" 
d="M251 -170q-58 0 -58 49q0 15 4.5 31.5t13 32.5t19.5 28.5t24 20.5q18 10 42 7.5t47 -2.5q17 0 17 9q0 3 -3 6t-11 3q-10 0 -23 0.5t-22 2.5q-20 3 -26.5 13t-8.5 27q-3 27 -3.5 75.5t-0.5 110.5v150v78v50t0.5 30.5t1.5 21.5q2 23 8.5 33t24.5 13q15 3 26 3q14 0 14 10
q0 7 -18 7q-13 0 -29 -0.5t-32 -0.5t-30 -0.5t-22 -0.5q-9 0 -24 0.5t-32 0.5t-33.5 0.5t-28.5 0.5q-21 0 -21 -7q0 -10 14 -10q19 0 32 -4q14 -5 21 -14t9 -31q0 -10 0.5 -21.5t0.5 -30.5v-50v-78v-150q0 -62 -0.5 -110.5t-3.5 -74.5q-2 -19 -7 -28.5t-19 -12.5
q-12 -3 -31 -3q-8 0 -11 -3t-3 -6q0 -9 17 -9q14 0 30 0.5t33 1.5q17 0 30.5 0.5t21.5 0.5h16q-7 -2 -26 -17.5t-38.5 -37.5t-34.5 -48t-15 -48q0 -41 22.5 -58.5t68.5 -17.5q25 0 46.5 9t37.5 20t26 22t14 15q3 4 5.5 8.5t2.5 7.5q0 8 -9 8q-4 0 -9.5 -5t-13 -11.5
t-18.5 -11.5t-25 -5z" />
    <glyph glyph-name="Idotaccent" unicode="&#x130;" horiz-adv-x="452" 
d="M164 287q0 -73 -0.5 -129.5t-4.5 -88.5q-2 -22 -8 -34.5t-21 -15.5q-7 -2 -16 -3t-20 -1q-16 0 -16 -8q0 -10 20 -10q15 0 33.5 0.5t36 1t32.5 1t24 0.5q20 0 63 -1.5t93 -1.5q19 0 19 10q0 8 -16 8q-11 0 -25.5 1t-25.5 3q-23 3 -30.5 16t-9.5 33q-3 32 -3.5 89
t-0.5 130v176v92v58q0 23 0.5 36.5t1.5 25.5q2 26 9.5 39.5t27.5 17.5q9 2 15.5 2.5t14.5 0.5q16 0 16 10q0 8 -21 8q-14 0 -31.5 -0.5t-34.5 -1t-32 -1t-24 -0.5q-11 0 -27.5 0.5t-34.5 1l-36 1t-32 0.5q-24 0 -24 -8q0 -10 16 -10q9 0 18.5 -1t17.5 -3q31 -7 34 -56
q1 -12 1.5 -25.5t0.5 -36.5v-58v-92v-176zM226 830q26 0 41.5 17.5t15.5 42.5t-16.5 39.5t-40.5 14.5q-30 0 -43 -19.5t-13 -38.5t13 -37.5t43 -18.5z" />
    <glyph glyph-name="dotlessi" unicode="&#x131;" horiz-adv-x="407" 
d="M144 244q0 -62 -0.5 -110.5t-3.5 -74.5q-2 -19 -7 -28.5t-19 -12.5q-12 -3 -31 -3q-8 0 -11 -3t-3 -6q0 -9 17 -9q13 0 30 0.5t33.5 1t30 1t21.5 0.5q18 0 58 -1.5t84 -1.5q17 0 17 9q0 3 -3 6t-11 3q-10 0 -23 0.5t-22 2.5q-20 3 -26.5 13t-8.5 27q-3 27 -3.5 75.5
t-0.5 110.5v150v78v50t0.5 30.5t1.5 21.5q2 23 8.5 33t24.5 13q15 3 26 3q14 0 14 10q0 7 -18 7q-13 0 -29 -0.5t-32 -0.5t-30 -0.5t-22 -0.5q-9 0 -24 0.5t-32 0.5t-33.5 0.5t-28.5 0.5q-21 0 -21 -7q0 -10 14 -10q19 0 32 -4q14 -5 21 -14t9 -31q0 -10 0.5 -21.5
t0.5 -30.5v-50v-78v-150z" />
    <glyph glyph-name="Kcommaaccent" unicode="&#x136;" horiz-adv-x="768" 
d="M286 463v92v58q0 23 0.5 36.5t1.5 25.5q2 26 9.5 39.5t27.5 17.5q9 2 14.5 2.5t13.5 0.5q14 0 14 9t-21 9q-13 0 -30 -0.5t-34.5 -1t-32.5 -1t-24 -0.5t-24.5 0.5t-34.5 1t-40 1t-41 0.5q-22 0 -22 -9t17 -9q11 0 22 -0.5t17 -2.5q25 -5 33 -18t10 -39q1 -12 1.5 -25.5
t0.5 -36.5v-58v-92v-176q0 -69 -0.5 -125t-4.5 -88q-3 -22 -8.5 -37t-20.5 -18q-7 -2 -16 -3t-20 -1q-16 0 -16 -8q0 -10 20 -10q15 0 33.5 0.5t36 1t32.5 1t24 0.5t25 -0.5t35.5 -1t41 -1t42.5 -0.5q19 0 19 10q0 8 -13 8q-10 0 -24 1t-25 3q-19 3 -26.5 18t-9.5 36
q-2 32 -2.5 88.5t-0.5 125.5v91h5l11 -15q5 -7 23.5 -29.5t44 -52.5t55 -64t57 -64.5t49.5 -54.5t33 -34q16 -14 30 -25.5t28 -19.5t30 -13t36 -7q16 -2 31 -2h38h87q14 0 19 2.5t5 7.5q0 8 -13 8q-9 0 -24 3t-38 12q-41 16 -75.5 46t-67.5 62q-10 9 -31 31.5t-48.5 51
t-57.5 61t-56.5 62.5t-47.5 53.5t-30 35.5q8 9 25.5 26.5l39 39l45 45l44.5 44.5t37.5 37t24.5 24q32 32 58.5 49t49.5 26q14 5 30.5 8t27.5 3q15 0 15 9t-17 9q-12 0 -27 -0.5t-31.5 -1t-31.5 -1t-27 -0.5q-10 0 -24.5 0.5t-29.5 1t-28 1t-21 0.5q-16 0 -16 -9q0 -7 13 -10
q14 -3 14 -20q0 -13 -14.5 -31.5t-35.5 -43.5q-7 -9 -23 -26t-36.5 -38t-43 -44.5t-43.5 -45.5t-38 -39.5t-25 -26.5h-5v44zM511 -98q0 7 -4 17t-15 27q-8 13 -12 17.5t-10 4.5q-10 0 -21 -5t-20.5 -13.5t-16 -19.5t-6.5 -22q0 -5 5.5 -10t12.5 -13t12.5 -20.5t5.5 -30.5
q0 -15 -5.5 -33.5t-19.5 -41.5q-2 -3 -4.5 -7t-2.5 -7t2.5 -6t4.5 -3q4 0 7 3t8 7q11 12 21.5 28t19.5 31.5t16 30t11 24.5q5 11 8 23t3 19z" />
    <glyph glyph-name="kcommaaccent" unicode="&#x137;" horiz-adv-x="685" 
d="M259 394v78v50t0.5 30.5t0.5 21.5q2 23 8.5 33t24.5 13q8 2 13 2.5t12 0.5q12 0 12 9q0 8 -19 8q-11 0 -27 -0.5t-33 -0.5q-16 0 -30.5 -0.5t-22.5 -0.5q-16 0 -52 1t-71 1q-20 0 -20 -8q0 -9 15 -9q10 0 20 -0.5t15 -2.5q21 -6 28.5 -15t9.5 -31q0 -10 0.5 -21.5
t0.5 -30.5v-50v-78v-150q0 -59 -0.5 -106.5t-3.5 -74.5q-2 -19 -7 -30.5t-19 -14.5q-12 -3 -31 -3q-8 0 -11 -3t-3 -6q0 -9 17 -9q13 0 29 0.5l32 1t29 1t21 0.5t23 -0.5t33.5 -1t39 -1t38.5 -0.5q17 0 17 9q0 3 -3.5 6t-8.5 3q-8 0 -21 0.5t-22 2.5q-17 3 -23.5 14.5
t-8.5 29.5q-2 28 -2 75v107v77h4l9 -12q5 -7 21 -26t38 -44.5t47 -54.5t48.5 -55t43 -46.5t28.5 -28.5q29 -25 54 -38.5t60 -16.5q14 -2 27 -2h34h77q12 0 16.5 2t4.5 7q0 9 -12 9q-8 0 -21 1.5t-33 9.5q-35 14 -63 39.5t-57 51.5q-9 8 -27.5 27t-42.5 43.5t-50 52.5t-50 53
t-42 45.5t-26 30.5q7 8 21.5 22.5l32.5 32.5t38.5 37.5t39 37t33 31.5t21.5 20q28 26 50 40.5t43 22.5q12 5 26.5 7.5t24.5 2.5q13 0 13 9q0 8 -15 8q-10 0 -23.5 -0.5t-28.5 -0.5q-14 0 -27.5 -0.5t-23.5 -0.5q-9 0 -21.5 0.5t-25.5 0.5t-25 0.5t-19 0.5q-14 0 -14 -8
q0 -6 12 -9t12 -17q0 -11 -12.5 -26.5t-31.5 -36.5q-10 -11 -35.5 -37t-55 -55.5l-56 -56t-37.5 -38.5h-4v38zM465 -118q0 7 -4 17t-15 27q-8 13 -12 17.5t-10 4.5q-10 0 -21 -5t-20.5 -13.5t-16 -19.5t-6.5 -22q0 -5 5.5 -10t12.5 -13t12.5 -20.5t5.5 -30.5
q0 -15 -5.5 -33.5t-19.5 -41.5q-2 -3 -4.5 -7t-2.5 -7t2.5 -6t4.5 -3q4 0 7 3t8 7q11 12 21.5 28t19.5 31.5t16 30t11 24.5q5 11 8 23t3 19z" />
    <glyph glyph-name="Lacute" unicode="&#x139;" horiz-adv-x="605" 
d="M289 463v92v58q0 23 0.5 36.5t1.5 25.5q2 26 9.5 39.5t27.5 17.5q9 2 20 2.5t19 0.5q18 0 18 9t-21 9q-15 0 -34.5 -0.5l-39 -1t-36.5 -1t-26 -0.5q-10 0 -26 0.5t-35 1t-38.5 1t-37.5 0.5q-22 0 -22 -9t17 -9q21 0 33 -3q25 -5 33 -18t10 -39q1 -12 1.5 -25.5t0.5 -36.5
v-58v-92v-176q0 -69 -0.5 -125t-4.5 -88q-3 -22 -8.5 -37t-20.5 -18q-7 -2 -16 -3t-20 -1q-16 0 -16 -8q0 -10 20 -10q15 0 33.5 1t35.5 1q18 1 33 1h24q31 0 59.5 -0.5t62.5 -2.5q34 -1 74.5 -2t94.5 -1q19 0 30.5 1t18 4t9.5 8.5t5 13.5q3 11 5.5 28.5t5 35.5t3.5 32.5
t1 18.5q0 17 -8 17q-6 0 -8 -4t-3 -11q-2 -14 -9.5 -32t-16.5 -28q-19 -20 -48 -24t-69 -4q-29 0 -49.5 1.5t-34 4t-22.5 6.5t-15 10q-16 14 -18.5 66t-2.5 149v176zM414 972q-4 7 -6.5 9.5t-7.5 2.5q-7 0 -20 -9q-6 -4 -26.5 -18.5t-45 -34t-49.5 -39.5t-40 -34
q-9 -9 -9 -13q0 -3 2 -4.5t4 -1.5t6.5 2.5t10.5 5.5q14 7 34.5 16.5t44 18t47.5 15t45 9.5q15 2 22.5 1t11.5 -1t7 3t-2 12q-9 20 -16 34.5t-13 25.5z" />
    <glyph glyph-name="lacute" unicode="&#x13a;" horiz-adv-x="552" 
d="M262 394v78v50t0.5 30.5t1.5 21.5q2 23 8.5 33t24.5 13q8 2 17 2.5t17 0.5q16 0 16 9q0 8 -19 8q-13 0 -31.5 -0.5t-37.5 -0.5q-18 0 -34 -0.5t-24 -0.5q-9 0 -23.5 0.5t-31.5 0.5q-16 0 -33.5 0.5t-32.5 0.5q-19 0 -19 -8q0 -9 15 -9q18 0 29 -3q21 -6 28.5 -15t9.5 -31
q0 -10 0.5 -21.5t0.5 -30.5v-50v-78v-150q0 -59 -0.5 -106.5t-3.5 -74.5q-2 -19 -7 -30.5t-19 -14.5q-12 -3 -31 -3q-8 0 -11 -3t-3 -6q0 -9 17 -9q14 0 29.5 0.5t31.5 1.5q16 0 29 0.5t21 0.5q27 0 55.5 -0.5t61.5 -1.5q66 -3 158 -3q17 0 27 1t16 3.5t8.5 7t4.5 11.5
q3 9 5 24.5t4 30.5t3 27t1 16q0 8 -1.5 13.5t-6.5 5.5q-8 0 -10 -13q-2 -12 -8 -27.5t-14 -23.5q-17 -17 -42.5 -20.5t-60.5 -3.5q-51 0 -78.5 4t-38.5 14q-14 12 -16.5 54.5t-2.5 124.5v150zM392 860q-4 7 -6.5 9.5t-7.5 2.5q-7 0 -20 -9q-6 -4 -26.5 -18.5t-45 -34
t-49.5 -39.5t-40 -34q-9 -9 -9 -13q0 -3 2 -4.5t4 -1.5t6.5 2.5t10.5 5.5q14 7 34.5 16.5t44 18t47.5 15t45 9.5q15 2 22.5 1t11.5 -1t7 3t-2 12q-9 20 -16 34.5t-13 25.5z" />
    <glyph glyph-name="Lcommaaccent" unicode="&#x13b;" horiz-adv-x="605" 
d="M289 463v92v58q0 23 0.5 36.5t1.5 25.5q2 26 9.5 39.5t27.5 17.5q9 2 20 2.5t19 0.5q18 0 18 9t-21 9q-15 0 -34.5 -0.5l-39 -1t-36.5 -1t-26 -0.5q-10 0 -26 0.5t-35 1t-38.5 1t-37.5 0.5q-22 0 -22 -9t17 -9q21 0 33 -3q25 -5 33 -18t10 -39q1 -12 1.5 -25.5t0.5 -36.5
v-58v-92v-176q0 -69 -0.5 -125t-4.5 -88q-3 -22 -8.5 -37t-20.5 -18q-7 -2 -16 -3t-20 -1q-16 0 -16 -8q0 -10 20 -10q15 0 33.5 1t35.5 1q18 1 33 1h24q31 0 59.5 -0.5t62.5 -2.5q34 -1 74.5 -2t94.5 -1q19 0 30.5 1t18 4t9.5 8.5t5 13.5q3 11 5.5 28.5t5 35.5t3.5 32.5
t1 18.5q0 17 -8 17q-6 0 -8 -4t-3 -11q-2 -14 -9.5 -32t-16.5 -28q-19 -20 -48 -24t-69 -4q-29 0 -49.5 1.5t-34 4t-22.5 6.5t-15 10q-16 14 -18.5 66t-2.5 149v176zM425 -118q0 7 -4 17t-15 27q-8 13 -12 17.5t-10 4.5q-10 0 -21 -5t-20.5 -13.5t-16 -19.5t-6.5 -22
q0 -5 5.5 -10t12.5 -13t12.5 -20.5t5.5 -30.5q0 -15 -5.5 -33.5t-19.5 -41.5q-2 -3 -4.5 -7t-2.5 -7t2.5 -6t4.5 -3q4 0 7 3t8 7q11 12 21.5 28t19.5 31.5t16 30t11 24.5q5 11 8 23t3 19z" />
    <glyph glyph-name="lcommaaccent" unicode="&#x13c;" horiz-adv-x="552" 
d="M262 394v78v50t0.5 30.5t1.5 21.5q2 23 8.5 33t24.5 13q8 2 17 2.5t17 0.5q16 0 16 9q0 8 -19 8q-13 0 -31.5 -0.5t-37.5 -0.5q-18 0 -34 -0.5t-24 -0.5q-9 0 -23.5 0.5t-31.5 0.5q-16 0 -33.5 0.5t-32.5 0.5q-19 0 -19 -8q0 -9 15 -9q18 0 29 -3q21 -6 28.5 -15t9.5 -31
q0 -10 0.5 -21.5t0.5 -30.5v-50v-78v-150q0 -59 -0.5 -106.5t-3.5 -74.5q-2 -19 -7 -30.5t-19 -14.5q-12 -3 -31 -3q-8 0 -11 -3t-3 -6q0 -9 17 -9q14 0 29.5 0.5t31.5 1.5q16 0 29 0.5t21 0.5q27 0 55.5 -0.5t61.5 -1.5q66 -3 158 -3q17 0 27 1t16 3.5t8.5 7t4.5 11.5
q3 9 5 24.5t4 30.5t3 27t1 16q0 8 -1.5 13.5t-6.5 5.5q-8 0 -10 -13q-2 -12 -8 -27.5t-14 -23.5q-17 -17 -42.5 -20.5t-60.5 -3.5q-51 0 -78.5 4t-38.5 14q-14 12 -16.5 54.5t-2.5 124.5v150zM388 -118q0 7 -4 17t-15 27q-8 13 -12 17.5t-10 4.5q-10 0 -21 -5t-20.5 -13.5
t-16 -19.5t-6.5 -22q0 -5 5.5 -10t12.5 -13t12.5 -20.5t5.5 -30.5q0 -15 -5.5 -33.5t-19.5 -41.5q-2 -3 -4.5 -7t-2.5 -7t2.5 -6t4.5 -3q4 0 7 3t8 7q11 12 21.5 28t19.5 31.5t16 30t11 24.5q5 11 8 23t3 19z" />
    <glyph glyph-name="Lcaron" unicode="&#x13d;" horiz-adv-x="605" 
d="M289 463v92v58q0 23 0.5 36.5t1.5 25.5q2 26 9.5 39.5t27.5 17.5q9 2 20 2.5t19 0.5q18 0 18 9t-21 9q-15 0 -34.5 -0.5l-39 -1t-36.5 -1t-26 -0.5q-10 0 -26 0.5t-35 1t-38.5 1t-37.5 0.5q-22 0 -22 -9t17 -9q21 0 33 -3q25 -5 33 -18t10 -39q1 -12 1.5 -25.5t0.5 -36.5
v-58v-92v-176q0 -69 -0.5 -125t-4.5 -88q-3 -22 -8.5 -37t-20.5 -18q-7 -2 -16 -3t-20 -1q-16 0 -16 -8q0 -10 20 -10q15 0 33.5 1t35.5 1q18 1 33 1h24q31 0 59.5 -0.5t62.5 -2.5q34 -1 74.5 -2t94.5 -1q19 0 30.5 1t18 4t9.5 8.5t5 13.5q3 11 5.5 28.5t5 35.5t3.5 32.5
t1 18.5q0 17 -8 17q-6 0 -8 -4t-3 -11q-2 -14 -9.5 -32t-16.5 -28q-19 -20 -48 -24t-69 -4q-29 0 -49.5 1.5t-34 4t-22.5 6.5t-15 10q-16 14 -18.5 66t-2.5 149v176zM585 687q0 7 -4 17t-15 27q-8 13 -12 17.5t-10 4.5q-10 0 -21 -5t-20.5 -13.5t-16 -19.5t-6.5 -22
q0 -5 5.5 -10t12.5 -13t12.5 -20.5t5.5 -30.5q0 -15 -5.5 -33.5t-19.5 -41.5q-2 -3 -4.5 -7t-2.5 -7t2.5 -6t4.5 -3q4 0 7 3t8 7q11 12 21.5 28t19.5 31.5t16 30t11 24.5q5 11 8 23t3 19z" />
    <glyph glyph-name="lcaron" unicode="&#x13e;" horiz-adv-x="552" 
d="M262 394v78v50t0.5 30.5t1.5 21.5q2 23 8.5 33t24.5 13q8 2 17 2.5t17 0.5q16 0 16 9q0 8 -19 8q-13 0 -31.5 -0.5t-37.5 -0.5q-18 0 -34 -0.5t-24 -0.5q-9 0 -23.5 0.5t-31.5 0.5q-16 0 -33.5 0.5t-32.5 0.5q-19 0 -19 -8q0 -9 15 -9q18 0 29 -3q21 -6 28.5 -15t9.5 -31
q0 -10 0.5 -21.5t0.5 -30.5v-50v-78v-150q0 -59 -0.5 -106.5t-3.5 -74.5q-2 -19 -7 -30.5t-19 -14.5q-12 -3 -31 -3q-8 0 -11 -3t-3 -6q0 -9 17 -9q14 0 29.5 0.5t31.5 1.5q16 0 29 0.5t21 0.5q27 0 55.5 -0.5t61.5 -1.5q66 -3 158 -3q17 0 27 1t16 3.5t8.5 7t4.5 11.5
q3 9 5 24.5t4 30.5t3 27t1 16q0 8 -1.5 13.5t-6.5 5.5q-8 0 -10 -13q-2 -12 -8 -27.5t-14 -23.5q-17 -17 -42.5 -20.5t-60.5 -3.5q-51 0 -78.5 4t-38.5 14q-14 12 -16.5 54.5t-2.5 124.5v150zM539 582q0 7 -4 17t-15 27q-8 13 -12 17.5t-10 4.5q-10 0 -21 -5t-20.5 -13.5
t-16 -19.5t-6.5 -22q0 -5 5.5 -10t12.5 -13t12.5 -20.5t5.5 -30.5q0 -15 -5.5 -33.5t-19.5 -41.5q-2 -3 -4.5 -7t-2.5 -7t2.5 -6t4.5 -3q4 0 7 3t8 7q11 12 21.5 28t19.5 31.5t16 30t11 24.5q5 11 8 23t3 19z" />
    <glyph glyph-name="Lslash" unicode="&#x141;" horiz-adv-x="605" 
d="M289 380l154 74q11 4 7 14l-12 33q-3 9 -16 3l-133 -65v24v92v58q0 23 0.5 36.5t1.5 25.5q2 26 9.5 39.5t27.5 17.5q18 3 34 3q18 0 18 9t-21 9q-15 0 -33.5 -0.5t-37.5 -1t-35 -1t-25 -0.5q-10 0 -26 0.5t-35 1t-39 1t-38 0.5q-22 0 -22 -9t17 -9q9 0 18.5 -0.5
t15.5 -2.5q25 -5 33 -18t10 -39q1 -12 1.5 -25.5t0.5 -36.5v-58v-92v-77l-107 -54q-6 -3 -3 -9l16 -34q4 -8 11 -4l83 44v-42q0 -69 -0.5 -125t-4.5 -88q-3 -22 -8.5 -37t-20.5 -18q-7 -2 -16 -3t-20 -1q-16 0 -16 -8q0 -10 20 -10q15 0 33.5 1t35.5 1q18 1 33 1h24
q31 0 59.5 -0.5t62.5 -2.5q34 -1 74.5 -2t94.5 -1q19 0 30.5 1t18 4t9.5 8.5t5 13.5q3 11 5.5 28.5t5 35.5t3.5 32.5t1 18.5q0 20 -8 20q-6 0 -8 -5.5t-3 -12.5q-2 -14 -9.5 -32t-16.5 -28q-19 -20 -48 -24t-69 -4q-29 0 -49.5 1.5t-34 4t-22.5 6.5t-15 10q-16 14 -18.5 66
t-2.5 149v93z" />
    <glyph glyph-name="lslash" unicode="&#x142;" horiz-adv-x="552" 
d="M262 320l136 63q9 4 6 12l-11 31q-3 7 -14 2l-117 -55v21v78v50t0.5 30.5t1.5 21.5q2 23 8.5 33t24.5 13q15 3 30 3t15 9q0 8 -18 8q-13 0 -30.5 -0.5t-35.5 -0.5t-33.5 -0.5t-23.5 -0.5q-9 0 -23.5 0.5t-31.5 0.5q-16 0 -33.5 0.5t-33.5 0.5q-19 0 -19 -8q0 -9 15 -9
q8 0 16.5 -0.5t13.5 -2.5q21 -6 28.5 -15t9.5 -31q0 -10 0.5 -21.5t0.5 -30.5v-50v-78v-70l-94 -46q-4 -2 -2 -7l14 -32q2 -6 9 -4l73 38v-36q0 -59 -0.5 -103t-3.5 -71q-2 -19 -7 -30.5t-19 -14.5q-12 -3 -31 -3q-8 0 -11 -3t-3 -6q0 -9 17 -9q14 0 29.5 0.5t31.5 1.5
q16 0 29 0.5t21 0.5q27 0 55.5 -0.5t61.5 -1.5q66 -3 159 -3q17 0 27 1t16 3.5t8.5 7t4.5 11.5q3 9 5 24.5t4 30.5t3 27t1 16q0 8 -2 14.5t-7 6.5t-7 -5t-3 -11q-2 -12 -7.5 -27.5t-13.5 -23.5q-17 -17 -42.5 -20t-60.5 -3q-51 0 -79 4t-39 14q-14 12 -16.5 54.5t-2.5 124.5
v76z" />
    <glyph glyph-name="Nacute" unicode="&#x143;" horiz-adv-x="947" 
d="M209 553h3q7 -7 29.5 -32t55.5 -60.5t72.5 -77.5t80.5 -82l81 -81l82 -82t74 -74.5t58 -56.5q8 -8 17 -15t17 -7q13 0 13 31l11 631q1 42 8.5 60.5t28.5 24.5q9 2 15.5 2.5t14.5 0.5q18 0 18 9q0 6 -6.5 7.5t-16.5 1.5q-37 0 -63.5 -1.5t-34.5 -1.5q-16 0 -49 1.5
t-72 1.5q-11 0 -18.5 -1.5t-7.5 -7.5q0 -9 16 -9q11 0 26.5 -0.5t26.5 -5.5q18 -8 25.5 -26t8.5 -64l10 -449h-5l-17.5 17.5t-32 33.5t-41 43.5t-46 47.5t-45 46.5t-38.5 39.5q-55 54 -108.5 109.5t-97 100.5t-72 75.5t-32.5 35.5q-13 14 -21 22.5t-16 8.5t-10.5 -9.5
t-2.5 -24.5l-9 -592q-1 -65 -6.5 -91.5t-24.5 -32.5q-11 -3 -23 -4t-22 -1q-16 0 -16 -8q0 -7 6 -8.5t16 -1.5q39 0 70 1.5t38 1.5q14 0 44.5 -1.5t79.5 -1.5q23 0 23 10q0 8 -17 8q-12 0 -25.5 1t-26.5 6q-8 3 -14 9.5t-10.5 19.5t-7 33t-3.5 49zM595 947q-4 7 -6.5 9.5
t-7.5 2.5q-7 0 -20 -9q-6 -4 -26.5 -18.5t-45 -34t-49.5 -39.5t-40 -34q-9 -9 -9 -13q0 -3 2 -4.5t4 -1.5t6.5 2.5t10.5 5.5q14 7 34.5 16.5t44 18t47.5 15t45 9.5q15 2 22.5 1t11.5 -1t7 3t-2 12q-9 20 -16 34.5t-13 25.5z" />
    <glyph glyph-name="nacute" unicode="&#x144;" horiz-adv-x="841" 
d="M189 460h3q6 -6 25.5 -26.5t47.5 -49.5t62.5 -64.5t70.5 -69.5q34 -33 71 -68.5t71.5 -68.5t64 -61t50.5 -47q7 -7 16 -12.5t20 -5.5q5 0 9.5 6.5t4.5 20.5l10 536q1 36 7.5 50.5t24.5 19.5q8 2 14 2.5t13 0.5q15 0 15 9q0 8 -20 8q-32 0 -55 -1t-31 -1q-14 0 -45.5 1
t-66.5 1q-22 0 -22 -8q0 -9 14 -9q9 0 22.5 -0.5t23.5 -4.5q16 -6 22.5 -21t7.5 -54l9 -378h-4q-5 4 -27 26.5t-50.5 51.5t-59.5 60l-53 53q-48 47 -95 93.5t-84.5 84.5t-62.5 63.5t-29 29.5q-11 11 -20.5 19.5t-17.5 8.5q-7 0 -11 -8t-4 -21l-8 -504q0 -28 -1 -46.5
t-4 -30.5t-8 -18t-14 -8t-20 -3t-20 -1q-14 0 -14 -9q0 -6 5.5 -7.5t14.5 -1.5q34 0 61.5 1.5t33.5 1.5q12 0 41.5 -1.5t72.5 -1.5q20 0 20 9t-15 9q-11 0 -23 1t-23 5q-13 5 -20.5 23.5t-9.5 68.5zM557 860q-4 7 -6.5 9.5t-7.5 2.5q-7 0 -20 -9q-6 -4 -26.5 -18.5t-45 -34
t-49.5 -39.5t-40 -34q-9 -9 -9 -13q0 -3 2 -4.5t4 -1.5t6.5 2.5t10.5 5.5q14 7 34.5 16.5t44 18t47.5 15t45 9.5q15 2 22.5 1t11.5 -1t7 3t-2 12q-9 20 -16 34.5t-13 25.5z" />
    <glyph glyph-name="Ncommaaccent" unicode="&#x145;" horiz-adv-x="947" 
d="M209 553h3q7 -7 29.5 -32t55.5 -60.5t72.5 -77.5t80.5 -82l81 -81l82 -82t74 -74.5t58 -56.5q8 -8 17 -15t17 -7q13 0 13 31l11 631q1 42 8.5 60.5t28.5 24.5q9 2 15.5 2.5t14.5 0.5q18 0 18 9q0 6 -6.5 7.5t-16.5 1.5q-37 0 -63.5 -1.5t-34.5 -1.5q-16 0 -49 1.5
t-72 1.5q-11 0 -18.5 -1.5t-7.5 -7.5q0 -9 16 -9q11 0 26.5 -0.5t26.5 -5.5q18 -8 25.5 -26t8.5 -64l10 -449h-5l-17.5 17.5t-32 33.5t-41 43.5t-46 47.5t-45 46.5t-38.5 39.5q-55 54 -108.5 109.5t-97 100.5t-72 75.5t-32.5 35.5q-13 14 -21 22.5t-16 8.5t-10.5 -9.5
t-2.5 -24.5l-9 -592q-1 -65 -6.5 -91.5t-24.5 -32.5q-11 -3 -23 -4t-22 -1q-16 0 -16 -8q0 -7 6 -8.5t16 -1.5q39 0 70 1.5t38 1.5q14 0 44.5 -1.5t79.5 -1.5q23 0 23 10q0 8 -17 8q-12 0 -25.5 1t-26.5 6q-8 3 -14 9.5t-10.5 19.5t-7 33t-3.5 49zM536 -88q0 7 -4 17t-15 27
q-8 13 -12 17.5t-10 4.5q-10 0 -21 -5t-20.5 -13.5t-16 -19.5t-6.5 -22q0 -5 5.5 -10t12.5 -13t12.5 -20.5t5.5 -30.5q0 -15 -5.5 -33.5t-19.5 -41.5q-2 -3 -4.5 -7t-2.5 -7t2.5 -6t4.5 -3q4 0 7 3t8 7q11 12 21.5 28t19.5 31.5t16 30t11 24.5q5 11 8 23t3 19z" />
    <glyph glyph-name="ncommaaccent" unicode="&#x146;" horiz-adv-x="841" 
d="M189 460h3q6 -6 25.5 -26.5t47.5 -49.5t62.5 -64.5t70.5 -69.5q34 -33 71 -68.5t71.5 -68.5t64 -61t50.5 -47q7 -7 16 -12.5t20 -5.5q5 0 9.5 6.5t4.5 20.5l10 536q1 36 7.5 50.5t24.5 19.5q8 2 14 2.5t13 0.5q15 0 15 9q0 8 -20 8q-32 0 -55 -1t-31 -1q-14 0 -45.5 1
t-66.5 1q-22 0 -22 -8q0 -9 14 -9q9 0 22.5 -0.5t23.5 -4.5q16 -6 22.5 -21t7.5 -54l9 -378h-4q-5 4 -27 26.5t-50.5 51.5t-59.5 60l-53 53q-48 47 -95 93.5t-84.5 84.5t-62.5 63.5t-29 29.5q-11 11 -20.5 19.5t-17.5 8.5q-7 0 -11 -8t-4 -21l-8 -504q0 -28 -1 -46.5
t-4 -30.5t-8 -18t-14 -8t-20 -3t-20 -1q-14 0 -14 -9q0 -6 5.5 -7.5t14.5 -1.5q34 0 61.5 1.5t33.5 1.5q12 0 41.5 -1.5t72.5 -1.5q20 0 20 9t-15 9q-11 0 -23 1t-23 5q-13 5 -20.5 23.5t-9.5 68.5zM473 -88q0 7 -4 17t-15 27q-8 13 -12 17.5t-10 4.5q-10 0 -21 -5
t-20.5 -13.5t-16 -19.5t-6.5 -22q0 -5 5.5 -10t12.5 -13t12.5 -20.5t5.5 -30.5q0 -15 -5.5 -33.5t-19.5 -41.5q-2 -3 -4.5 -7t-2.5 -7t2.5 -6t4.5 -3q4 0 7 3t8 7q11 12 21.5 28t19.5 31.5t16 30t11 24.5q5 11 8 23t3 19z" />
    <glyph glyph-name="Ncaron" unicode="&#x147;" horiz-adv-x="947" 
d="M209 553h3q7 -7 29.5 -32t55.5 -60.5t72.5 -77.5t80.5 -82l81 -81l82 -82t74 -74.5t58 -56.5q8 -8 17 -15t17 -7q13 0 13 31l11 631q1 42 8.5 60.5t28.5 24.5q9 2 15.5 2.5t14.5 0.5q18 0 18 9q0 6 -6.5 7.5t-16.5 1.5q-37 0 -63.5 -1.5t-34.5 -1.5q-16 0 -49 1.5
t-72 1.5q-11 0 -18.5 -1.5t-7.5 -7.5q0 -9 16 -9q11 0 26.5 -0.5t26.5 -5.5q18 -8 25.5 -26t8.5 -64l10 -449h-5l-17.5 17.5t-32 33.5t-41 43.5t-46 47.5t-45 46.5t-38.5 39.5q-55 54 -108.5 109.5t-97 100.5t-72 75.5t-32.5 35.5q-13 14 -21 22.5t-16 8.5t-10.5 -9.5
t-2.5 -24.5l-9 -592q-1 -65 -6.5 -91.5t-24.5 -32.5q-11 -3 -23 -4t-22 -1q-16 0 -16 -8q0 -7 6 -8.5t16 -1.5q39 0 70 1.5t38 1.5q14 0 44.5 -1.5t79.5 -1.5q23 0 23 10q0 8 -17 8q-12 0 -25.5 1t-26.5 6q-8 3 -14 9.5t-10.5 19.5t-7 33t-3.5 49zM327 925q-5 -5 -5 -10
q0 -2 3 -5t11 -9q6 -4 24 -17.5t38 -29t37 -28t20 -15.5q15 -11 18 -11q8 0 21 12q5 4 25 22.5t42.5 39.5t41.5 39t23 23q9 9 9 15q0 10 -9 10q-4 0 -8.5 -2.5t-13.5 -10.5q-11 -9 -24.5 -19t-27.5 -20t-28 -19.5t-24 -15.5q-7 -4 -15 -4q-6 0 -13 6q-4 3 -15.5 12t-25 20.5
l-27 23t-20.5 18.5t-10.5 9t-6.5 2q-4 0 -11 -7z" />
    <glyph glyph-name="ncaron" unicode="&#x148;" horiz-adv-x="841" 
d="M189 460h3q6 -6 25.5 -26.5t47.5 -49.5t62.5 -64.5t70.5 -69.5q34 -33 71 -68.5t71.5 -68.5t64 -61t50.5 -47q7 -7 16 -12.5t20 -5.5q5 0 9.5 6.5t4.5 20.5l10 536q1 36 7.5 50.5t24.5 19.5q8 2 14 2.5t13 0.5q15 0 15 9q0 8 -20 8q-32 0 -55 -1t-31 -1q-14 0 -45.5 1
t-66.5 1q-22 0 -22 -8q0 -9 14 -9q9 0 22.5 -0.5t23.5 -4.5q16 -6 22.5 -21t7.5 -54l9 -378h-4q-5 4 -27 26.5t-50.5 51.5t-59.5 60l-53 53q-48 47 -95 93.5t-84.5 84.5t-62.5 63.5t-29 29.5q-11 11 -20.5 19.5t-17.5 8.5q-7 0 -11 -8t-4 -21l-8 -504q0 -28 -1 -46.5
t-4 -30.5t-8 -18t-14 -8t-20 -3t-20 -1q-14 0 -14 -9q0 -6 5.5 -7.5t14.5 -1.5q34 0 61.5 1.5t33.5 1.5q12 0 41.5 -1.5t72.5 -1.5q20 0 20 9t-15 9q-11 0 -23 1t-23 5q-13 5 -20.5 23.5t-9.5 68.5zM269 833q-5 -5 -5 -10q0 -2 3 -5t11 -9q6 -4 24 -17.5t38 -29t37 -28
t20 -15.5q15 -11 18 -11q8 0 21 12q5 4 25 22.5t42.5 39.5t41.5 39t23 23q9 9 9 15q0 10 -9 10q-4 0 -8.5 -2.5t-13.5 -10.5q-11 -9 -24.5 -19t-27.5 -20t-28 -19.5t-24 -15.5q-7 -4 -15 -4q-6 0 -13 6q-4 3 -15.5 12t-25 20.5l-27 23t-20.5 18.5t-10.5 9t-6.5 2
q-4 0 -11 -7z" />
    <glyph glyph-name="Omacron" unicode="&#x14c;" horiz-adv-x="927" 
d="M458 -17q95 0 171.5 32t130.5 87.5t83 130t29 160.5t-28 155t-80.5 118t-127.5 75t-168 26q-113 0 -191.5 -37t-127.5 -94.5t-71.5 -127t-22.5 -133.5q0 -66 22.5 -135.5t71.5 -126.5t125 -93.5t184 -36.5zM500 33q-72 0 -129 29t-96.5 79.5t-60.5 118.5t-21 146
q0 93 22.5 154t57.5 96t79 49t87 14q61 0 114.5 -25t93.5 -72.5t62.5 -114.5t22.5 -151q0 -72 -12.5 -124t-32.5 -88t-45 -58t-51 -33.5t-50 -15.5t-41 -4zM578 857q9 0 11 6l8 36q3 10 -8 10h-240q-8 0 -11 -9l-8 -36q-1 -7 8 -7h240z" />
    <glyph glyph-name="omacron" unicode="&#x14d;" horiz-adv-x="827" 
d="M408 -14q85 0 153.5 27t116.5 74t73.5 110.5t25.5 136.5t-25 132t-71.5 100t-113.5 63.5t-150 22.5q-100 0 -170 -31.5t-114.5 -80.5t-64.5 -108t-20 -113q0 -57 20 -116t63.5 -107t112 -79t164.5 -31zM444 32q-62 0 -111.5 24.5t-84 66.5t-52.5 99t-18 123
q0 79 19.5 129.5t50 80t68.5 41t75 11.5q53 0 99.5 -21t81 -60.5t54.5 -96t20 -126.5q0 -91 -23 -144.5t-55 -81.5t-66.5 -36.5t-57.5 -8.5zM538 745q9 0 11 6l8 36q3 10 -8 10h-240q-8 0 -11 -9l-8 -36q-1 -7 8 -7h240z" />
    <glyph glyph-name="Ohungarumlaut" unicode="&#x150;" horiz-adv-x="927" 
d="M458 -17q95 0 171.5 32t130.5 87.5t83 130t29 160.5t-28 155t-80.5 118t-127.5 75t-168 26q-113 0 -191.5 -37t-127.5 -94.5t-71.5 -127t-22.5 -133.5q0 -66 22.5 -135.5t71.5 -126.5t125 -93.5t184 -36.5zM500 33q-72 0 -129 29t-96.5 79.5t-60.5 118.5t-21 146
q0 93 22.5 154t57.5 96t79 49t87 14q61 0 114.5 -25t93.5 -72.5t62.5 -114.5t22.5 -151q0 -72 -12.5 -124t-32.5 -88t-45 -58t-51 -33.5t-50 -15.5t-41 -4zM440 961q-5 -6 -22.5 -24.5t-36 -38.5t-34 -37t-17.5 -21q-2 -3 -1 -6.5t6 -3.5q7 0 22 12q13 10 30 22t36 23
t37 20.5t33 16.5q17 8 25.5 10t13.5 4q3 2 3 5q0 4 -5 9q-10 8 -22.5 16t-23.5 13q-11 4 -19 4q-4 0 -9 -6t-16 -18zM613 961q-5 -6 -22.5 -24.5t-36 -38.5t-34 -37t-17.5 -21q-2 -3 -1 -6.5t6 -3.5q7 0 22 12q13 10 30 22t36 23t37 20.5t33 16.5q17 8 25.5 10t13.5 4
q3 2 3 5q0 4 -5 9q-10 8 -21.5 16t-24.5 13q-11 4 -19 4q-4 0 -9 -6t-16 -18z" />
    <glyph glyph-name="ohungarumlaut" unicode="&#x151;" horiz-adv-x="827" 
d="M408 -14q85 0 153.5 27t116.5 74t73.5 110.5t25.5 136.5t-25 132t-71.5 100t-113.5 63.5t-150 22.5q-100 0 -170 -31.5t-114.5 -80.5t-64.5 -108t-20 -113q0 -57 20 -116t63.5 -107t112 -79t164.5 -31zM444 32q-62 0 -111.5 24.5t-84 66.5t-52.5 99t-18 123
q0 79 19.5 129.5t50 80t68.5 41t75 11.5q53 0 99.5 -21t81 -60.5t54.5 -96t20 -126.5q0 -91 -23 -144.5t-55 -81.5t-66.5 -36.5t-57.5 -8.5zM375 849q-5 -6 -22.5 -24.5t-36 -38.5t-34 -37t-17.5 -21q-2 -3 -1 -6.5t6 -3.5q7 0 22 12q13 10 30 22t36 23t37 20.5t33 16.5
q17 8 25.5 10t13.5 4q3 2 3 5q0 4 -5 9q-10 8 -22.5 16t-23.5 13q-11 4 -19 4q-4 0 -9 -6t-16 -18zM548 849q-5 -6 -22.5 -24.5t-36 -38.5t-34 -37t-17.5 -21q-2 -3 -1 -6.5t6 -3.5q7 0 22 12q13 10 30 22t36 23t37 20.5t33 16.5q17 8 25.5 10t13.5 4q3 2 3 5q0 4 -5 9
q-10 8 -21.5 16t-24.5 13q-11 4 -19 4q-4 0 -9 -6t-16 -18z" />
    <glyph glyph-name="OE" unicode="&#x152;" horiz-adv-x="1190" 
d="M848 367q0 10 6 10q9 0 29.5 -0.5t43 -1t42.5 -1t27 -1.5q28 -3 40 -13.5t16 -25.5q2 -10 2.5 -19t1.5 -17q0 -9 9 -9q7 0 8 6.5t1 12.5q0 3 0.5 11t1 18t1.5 20t1 18q3 38 5.5 53t2.5 20q0 9 -7 9q-5 0 -16 -13q-7 -8 -18.5 -10.5t-29.5 -4.5q-9 -1 -32 -1.5t-49 -0.5
h-48h-31q-7 0 -7 11v252q0 10 7 10t28 -0.5t44 -1t43.5 -1t26.5 -1.5q37 -5 49.5 -14t17.5 -22q4 -9 5 -20t1 -16q0 -14 9 -14q5 0 7 3.5t3 7.5t1.5 13.5t1.5 20t1.5 19.5t0.5 13q2 35 5 47.5t3 17.5q0 9 -6 9q-4 0 -8 -1.5t-8 -2.5q-6 -2 -17.5 -3t-25.5 -3q-5 0 -23 -0.5
t-43 -0.5h-54h-55h-47h-28q-12 0 -20.5 0.5t-13.5 1.5q-6 0 -9 0.5t-5 0.5q-10 0 -10 -9q0 -5 1 -10t1 -10q1 -9 1 -24v-47h-3q-19 22 -43.5 42.5t-58 36.5t-77 25.5t-100.5 9.5q-104 0 -179 -35t-123 -91t-70.5 -125.5t-22.5 -139.5q0 -67 22 -137t69 -127t120.5 -93
t177.5 -36q52 0 94 7.5t77 21.5t64 33.5t53 43.5v-33t-1 -22q-1 -11 -2 -17.5t-1 -12.5q0 -7 10 -7q4 0 7 0.5t7 1.5q5 0 9.5 0.5t10.5 0.5q26 0 53 -0.5t60 -2.5q33 -1 75 -2t99 -1q14 0 23.5 0.5t15.5 3t9 7.5t6 15q2 7 4 22.5t4 32t3.5 32t1.5 24.5q0 8 -1 13t-7 5
q-8 0 -11 -15q-5 -31 -15 -48t-30 -26t-47 -10.5t-47 -1.5q-38 0 -61.5 3.5t-36 13t-17 26t-5.5 42.5v31v44v44v35v80zM191 406q0 82 20 141t53.5 97t77 56t91.5 18q71 0 126 -30t92.5 -81t57 -120t19.5 -147q0 -79 -17.5 -137t-49 -96t-75.5 -56.5t-97 -18.5q-59 0 -113 25
t-95 72.5t-65.5 117t-24.5 159.5z" />
    <glyph glyph-name="oe" unicode="&#x153;" horiz-adv-x="1067" 
d="M754 310q0 8 6 8h28t42 -0.5t41 -1t25 -1.5q25 -2 35 -11t14 -22q2 -8 2 -16t1 -15q0 -7 8 -7q6 0 7.5 6.5t1.5 11.5t1 24.5t3 32.5q4 32 5.5 46t1.5 18q0 7 -6 7q-4 0 -7 -3l-8 -8q-9 -10 -42 -12q-8 0 -30 -0.5t-46.5 -1t-47.5 -0.5h-29q-6 0 -6 9v209q0 8 6 8h27
t42.5 -0.5t42 -1t25.5 -1.5q33 -3 42.5 -11.5t14.5 -19.5q4 -8 5 -17t1 -14q0 -11 8 -11q5 0 7 5t3 8q1 4 1.5 12t1.5 16.5t1.5 16.5t0.5 11q2 29 4.5 39.5t2.5 15.5q0 8 -6 8q-3 0 -6.5 -1.5t-7.5 -2.5q-5 -2 -15 -3.5t-22 -1.5h-235q-22 0 -30.5 1t-12.5 1q-8 0 -8 -8
q0 -5 0.5 -8.5t0.5 -8.5q1 -8 1 -21v-45h-2q-19 21 -41.5 39.5t-52.5 33t-68.5 22.5t-88.5 8q-92 0 -158 -29.5t-108 -77t-62 -107t-20 -118.5q0 -57 19.5 -116.5t60.5 -108t106 -79t157 -30.5q91 0 151 25.5t107 70.5v-32q0 -14 -1 -21q-1 -9 -1.5 -15t-0.5 -11q0 -6 8 -6
q6 0 12.5 1.5t17.5 1.5q44 0 103 -3q29 -2 72 -2h93q12 0 20 0.5t13.5 2.5t8.5 6.5t5 12.5q2 6 4 19t4 27t3 27.5t1 20.5t-2 13.5t-7 6.5q-7 0 -10 -13q-5 -26 -13.5 -40.5t-25.5 -22.5t-40.5 -9t-40.5 -1q-34 0 -56.5 3t-36 11t-19 22t-6.5 36v26v35v35v29v68zM176 345
q0 69 17 118.5t46.5 81t67.5 46.5t80 15q58 0 106 -24.5t82.5 -67.5t53.5 -101t19 -124t-18 -114t-47.5 -79.5t-67.5 -46.5t-79 -15q-52 0 -99 20t-83 59.5t-57 97.5t-21 134z" />
    </font>
</defs>
</svg>
